<?xml version="1.0" encoding="UTF-8" standalone="yes"?><svg xmlns="http://www.w3.org/2000/svg" xmlns:xlink="http://www.w3.org/1999/xlink" height="1221pt" style="width:685px;height:1221px;" version="1.1" viewBox="0 0 685 1221" width="685pt"><defs><filter height="300%" id="f1" width="300%" x="-1" y="-1"><feGaussianBlur result="blurOut" stdDeviation="2.0"/><feColorMatrix in="blurOut" result="blurOut2" type="matrix" values="0 0 0 0 0 0 0 0 0 0 0 0 0 0 0 0 0 0 .4 0"/><feOffset dx="4.0" dy="4.0" in="blurOut2" result="blurOut3"/><feBlend in="SourceGraphic" in2="blurOut3" mode="normal"/></filter></defs><g><a xlink:href="LMI_DiskPartition.html" xlink:title="LMI_DiskPartition.html"><rect fill="#FEFECE" filter="url(#f1)" height="292.125" style="stroke: #A80036; stroke-width: 1.5;" width="135" x="6" y="920"/><ellipse cx="37.45" cy="934" fill="#ADD1B2" rx="9" ry="9" style="stroke: #A80036; stroke-width: 1.0;"/><path d="M38.9188,931.375 C38.3719,931.1094 38.0125,931.0313 37.4969,931.0313 C35.9656,931.0313 34.7781,932.25 34.7781,933.8438 L34.7781,934.5156 C34.7781,936.0313 36.0125,937.1406 37.7156,937.1406 C38.4344,937.1406 39.1219,936.9531 39.5594,936.6406 C39.9031,936.4063 40.0906,936.1406 40.0906,935.9063 C40.0906,935.6406 39.8563,935.4063 39.5906,935.4063 C39.4656,935.4063 39.3406,935.4531 39.2313,935.5625 C38.9656,935.8438 38.9656,935.8438 38.8563,935.9063 C38.6063,936.0625 38.2,936.1406 37.7469,936.1406 C36.5438,936.1406 35.7781,935.4844 35.7781,934.4844 L35.7781,933.8438 C35.7781,932.7969 36.5125,932.0313 37.5438,932.0313 C37.8875,932.0313 38.2469,932.125 38.5125,932.2656 C38.7938,932.4375 38.9031,932.5625 38.95,932.7969 C38.9969,933.0469 39.0125,933.1094 39.0906,933.1875 C39.1688,933.2656 39.3094,933.3281 39.4344,933.3281 C39.6063,933.3281 39.7469,933.25 39.8563,933.125 C39.9188,933.0313 39.9344,932.9219 39.9344,932.6719 L39.9344,931.8281 C39.9344,931.5781 39.9344,931.5 39.8719,931.4063 C39.7781,931.2656 39.6219,931.1719 39.4344,931.1719 C39.2625,931.1719 39.1531,931.2344 39.0125,931.4063 L38.9188,931.375 Z "/><text fill="#000000" font-family="Monospace" font-size="10" lengthAdjust="spacingAndGlyphs" textLength="66" x="53.55" y="937.7969">LMI_DiskPartition</text><line style="stroke: #A80036; stroke-width: 1.5;" x1="7" x2="140" y1="948" y2="948"/><text fill="#000000" font-family="Monospace" font-size="10" lengthAdjust="spacingAndGlyphs" textLength="62" x="12" y="962">uint64 BlockSize</text><text fill="#000000" font-family="Monospace" font-size="10" lengthAdjust="spacingAndGlyphs" textLength="99" x="12" y="974.4063">uint64 ConsumableBlocks</text><text fill="#000000" font-family="Monospace" font-size="10" lengthAdjust="spacingAndGlyphs" textLength="93" x="12" y="986.8125">uint16 DataRedundancy</text><text fill="#000000" font-family="Monospace" font-size="10" lengthAdjust="spacingAndGlyphs" textLength="82" x="12" y="999.2188">string DeviceBusType</text><text fill="#000000" font-family="Monospace" font-size="10" lengthAdjust="spacingAndGlyphs" textLength="77" x="12" y="1011.625">string ElementName</text><text fill="#000000" font-family="Monospace" font-size="10" lengthAdjust="spacingAndGlyphs" textLength="100" x="12" y="1024.0313">string[] ExtentDiscriminator</text><text fill="#000000" font-family="Monospace" font-size="10" lengthAdjust="spacingAndGlyphs" textLength="76" x="12" y="1036.4375">uint16[] ExtentStatus</text><text fill="#000000" font-family="Monospace" font-size="10" lengthAdjust="spacingAndGlyphs" textLength="98" x="12" y="1048.8438">uint64 ExtentStripeLength</text><text fill="#000000" font-family="Monospace" font-size="10" lengthAdjust="spacingAndGlyphs" textLength="63" x="12" y="1061.25">string InstanceID</text><text fill="#000000" font-family="Monospace" font-size="10" lengthAdjust="spacingAndGlyphs" textLength="46" x="12" y="1073.6563">string Name</text><text fill="#000000" font-family="Monospace" font-size="10" lengthAdjust="spacingAndGlyphs" textLength="76" x="12" y="1086.0625">uint16 NameFormat</text><text fill="#000000" font-family="Monospace" font-size="10" lengthAdjust="spacingAndGlyphs" textLength="95" x="12" y="1098.4688">uint16 NameNamespace</text><text fill="#000000" font-family="Monospace" font-size="10" lengthAdjust="spacingAndGlyphs" textLength="54" x="12" y="1110.875">string[] Names</text><text fill="#000000" font-family="Monospace" font-size="10" lengthAdjust="spacingAndGlyphs" textLength="123" x="12" y="1123.2813">boolean NoSinglePointOfFailure</text><text fill="#000000" font-family="Monospace" font-size="10" lengthAdjust="spacingAndGlyphs" textLength="89" x="12" y="1135.6875">uint64 NumberOfBlocks</text><text fill="#000000" font-family="Monospace" font-size="10" lengthAdjust="spacingAndGlyphs" textLength="98" x="12" y="1148.0938">uint16[] OperationalStatus</text><text fill="#000000" font-family="Monospace" font-size="10" lengthAdjust="spacingAndGlyphs" textLength="108" x="12" y="1160.5">uint16 PackageRedundancy</text><text fill="#000000" font-family="Monospace" font-size="10" lengthAdjust="spacingAndGlyphs" textLength="76" x="12" y="1172.9063">uint16 PartitionType</text><text fill="#000000" font-family="Monospace" font-size="10" lengthAdjust="spacingAndGlyphs" textLength="94" x="12" y="1185.3125">boolean PrimaryPartition</text><text fill="#000000" font-family="Monospace" font-size="10" lengthAdjust="spacingAndGlyphs" textLength="73" x="12" y="1197.7188">boolean Primordial</text><line style="stroke: #A80036; stroke-width: 1.5;" x1="7" x2="140" y1="1204.125" y2="1204.125"/></a><rect fill="#FEFECE" filter="url(#f1)" height="44" style="stroke: #A80036; stroke-width: 1.5;" width="95" x="26" y="704.5"/><ellipse cx="39" cy="718.5" fill="#ADD1B2" rx="9" ry="9" style="stroke: #A80036; stroke-width: 1.0;"/><path d="M40.4688,715.875 C39.9219,715.6094 39.5625,715.5313 39.0469,715.5313 C37.5156,715.5313 36.3281,716.75 36.3281,718.3438 L36.3281,719.0156 C36.3281,720.5313 37.5625,721.6406 39.2656,721.6406 C39.9844,721.6406 40.6719,721.4531 41.1094,721.1406 C41.4531,720.9063 41.6406,720.6406 41.6406,720.4063 C41.6406,720.1406 41.4063,719.9063 41.1406,719.9063 C41.0156,719.9063 40.8906,719.9531 40.7813,720.0625 C40.5156,720.3438 40.5156,720.3438 40.4063,720.4063 C40.1563,720.5625 39.75,720.6406 39.2969,720.6406 C38.0938,720.6406 37.3281,719.9844 37.3281,718.9844 L37.3281,718.3438 C37.3281,717.2969 38.0625,716.5313 39.0938,716.5313 C39.4375,716.5313 39.7969,716.625 40.0625,716.7656 C40.3438,716.9375 40.4531,717.0625 40.5,717.2969 C40.5469,717.5469 40.5625,717.6094 40.6406,717.6875 C40.7188,717.7656 40.8594,717.8281 40.9844,717.8281 C41.1563,717.8281 41.2969,717.75 41.4063,717.625 C41.4688,717.5313 41.4844,717.4219 41.4844,717.1719 L41.4844,716.3281 C41.4844,716.0781 41.4844,716 41.4219,715.9063 C41.3281,715.7656 41.1719,715.6719 40.9844,715.6719 C40.8125,715.6719 40.7031,715.7344 40.5625,715.9063 L40.4688,715.875 Z "/><text fill="#000000" font-family="Monospace" font-size="10" lengthAdjust="spacingAndGlyphs" textLength="67" x="51" y="722.2969">CIM_DiskPartition</text><line style="stroke: #A80036; stroke-width: 1.5;" x1="27" x2="120" y1="732.5" y2="732.5"/><line style="stroke: #A80036; stroke-width: 1.5;" x1="27" x2="120" y1="740.5" y2="740.5"/><rect fill="#FEFECE" filter="url(#f1)" height="44" style="stroke: #A80036; stroke-width: 1.5;" width="125" x="226" y="470.5"/><ellipse cx="239" cy="484.5" fill="#ADD1B2" rx="9" ry="9" style="stroke: #A80036; stroke-width: 1.0;"/><path d="M240.4688,481.875 C239.9219,481.6094 239.5625,481.5313 239.0469,481.5313 C237.5156,481.5313 236.3281,482.75 236.3281,484.3438 L236.3281,485.0156 C236.3281,486.5313 237.5625,487.6406 239.2656,487.6406 C239.9844,487.6406 240.6719,487.4531 241.1094,487.1406 C241.4531,486.9063 241.6406,486.6406 241.6406,486.4063 C241.6406,486.1406 241.4063,485.9063 241.1406,485.9063 C241.0156,485.9063 240.8906,485.9531 240.7813,486.0625 C240.5156,486.3438 240.5156,486.3438 240.4063,486.4063 C240.1563,486.5625 239.75,486.6406 239.2969,486.6406 C238.0938,486.6406 237.3281,485.9844 237.3281,484.9844 L237.3281,484.3438 C237.3281,483.2969 238.0625,482.5313 239.0938,482.5313 C239.4375,482.5313 239.7969,482.625 240.0625,482.7656 C240.3438,482.9375 240.4531,483.0625 240.5,483.2969 C240.5469,483.5469 240.5625,483.6094 240.6406,483.6875 C240.7188,483.7656 240.8594,483.8281 240.9844,483.8281 C241.1563,483.8281 241.2969,483.75 241.4063,483.625 C241.4688,483.5313 241.4844,483.4219 241.4844,483.1719 L241.4844,482.3281 C241.4844,482.0781 241.4844,482 241.4219,481.9063 C241.3281,481.7656 241.1719,481.6719 240.9844,481.6719 C240.8125,481.6719 240.7031,481.7344 240.5625,481.9063 L240.4688,481.875 Z "/><text fill="#000000" font-family="Monospace" font-size="10" lengthAdjust="spacingAndGlyphs" textLength="97" x="251" y="488.2969">CIM_GenericDiskPartition</text><line style="stroke: #A80036; stroke-width: 1.5;" x1="227" x2="350" y1="498.5" y2="498.5"/><line style="stroke: #A80036; stroke-width: 1.5;" x1="227" x2="350" y1="506.5" y2="506.5"/><a xlink:href="LMI_MDRAIDStorageExtent.html" xlink:title="LMI_MDRAIDStorageExtent.html"><rect fill="#FEFECE" filter="url(#f1)" height="81.2188" style="stroke: #A80036; stroke-width: 1.5;" width="132" x="386.5" y="452"/><ellipse cx="399.5" cy="466" fill="#ADD1B2" rx="9" ry="9" style="stroke: #A80036; stroke-width: 1.0;"/><path d="M400.9688,463.375 C400.4219,463.1094 400.0625,463.0313 399.5469,463.0313 C398.0156,463.0313 396.8281,464.25 396.8281,465.8438 L396.8281,466.5156 C396.8281,468.0313 398.0625,469.1406 399.7656,469.1406 C400.4844,469.1406 401.1719,468.9531 401.6094,468.6406 C401.9531,468.4063 402.1406,468.1406 402.1406,467.9063 C402.1406,467.6406 401.9063,467.4063 401.6406,467.4063 C401.5156,467.4063 401.3906,467.4531 401.2813,467.5625 C401.0156,467.8438 401.0156,467.8438 400.9063,467.9063 C400.6563,468.0625 400.25,468.1406 399.7969,468.1406 C398.5938,468.1406 397.8281,467.4844 397.8281,466.4844 L397.8281,465.8438 C397.8281,464.7969 398.5625,464.0313 399.5938,464.0313 C399.9375,464.0313 400.2969,464.125 400.5625,464.2656 C400.8438,464.4375 400.9531,464.5625 401,464.7969 C401.0469,465.0469 401.0625,465.1094 401.1406,465.1875 C401.2188,465.2656 401.3594,465.3281 401.4844,465.3281 C401.6563,465.3281 401.7969,465.25 401.9063,465.125 C401.9688,465.0313 401.9844,464.9219 401.9844,464.6719 L401.9844,463.8281 C401.9844,463.5781 401.9844,463.5 401.9219,463.4063 C401.8281,463.2656 401.6719,463.1719 401.4844,463.1719 C401.3125,463.1719 401.2031,463.2344 401.0625,463.4063 L400.9688,463.375 Z "/><text fill="#000000" font-family="Monospace" font-size="10" lengthAdjust="spacingAndGlyphs" textLength="104" x="411.5" y="469.7969">LMI_MDRAIDStorageExtent</text><line style="stroke: #A80036; stroke-width: 1.5;" x1="387.5" x2="517.5" y1="480" y2="480"/><text fill="#000000" font-family="Monospace" font-size="10" lengthAdjust="spacingAndGlyphs" textLength="77" x="392.5" y="494">string ElementName</text><text fill="#000000" font-family="Monospace" font-size="10" lengthAdjust="spacingAndGlyphs" textLength="47" x="392.5" y="506.4063">uint16 Level</text><text fill="#000000" font-family="Monospace" font-size="10" lengthAdjust="spacingAndGlyphs" textLength="43" x="392.5" y="518.8125">string UUID</text><line style="stroke: #A80036; stroke-width: 1.5;" x1="387.5" x2="517.5" y1="525.2188" y2="525.2188"/></a><a xlink:href="LMI_StorageExtent.html" xlink:title="LMI_StorageExtent.html"><rect fill="#FEFECE" filter="url(#f1)" height="279.7188" style="stroke: #A80036; stroke-width: 1.5;" width="135" x="385" y="112"/><ellipse cx="413.75" cy="126" fill="#ADD1B2" rx="9" ry="9" style="stroke: #A80036; stroke-width: 1.0;"/><path d="M415.2188,123.375 C414.6719,123.1094 414.3125,123.0313 413.7969,123.0313 C412.2656,123.0313 411.0781,124.25 411.0781,125.8438 L411.0781,126.5156 C411.0781,128.0313 412.3125,129.1406 414.0156,129.1406 C414.7344,129.1406 415.4219,128.9531 415.8594,128.6406 C416.2031,128.4063 416.3906,128.1406 416.3906,127.9063 C416.3906,127.6406 416.1563,127.4063 415.8906,127.4063 C415.7656,127.4063 415.6406,127.4531 415.5313,127.5625 C415.2656,127.8438 415.2656,127.8438 415.1563,127.9063 C414.9063,128.0625 414.5,128.1406 414.0469,128.1406 C412.8438,128.1406 412.0781,127.4844 412.0781,126.4844 L412.0781,125.8438 C412.0781,124.7969 412.8125,124.0313 413.8438,124.0313 C414.1875,124.0313 414.5469,124.125 414.8125,124.2656 C415.0938,124.4375 415.2031,124.5625 415.25,124.7969 C415.2969,125.0469 415.3125,125.1094 415.3906,125.1875 C415.4688,125.2656 415.6094,125.3281 415.7344,125.3281 C415.9063,125.3281 416.0469,125.25 416.1563,125.125 C416.2188,125.0313 416.2344,124.9219 416.2344,124.6719 L416.2344,123.8281 C416.2344,123.5781 416.2344,123.5 416.1719,123.4063 C416.0781,123.2656 415.9219,123.1719 415.7344,123.1719 C415.5625,123.1719 415.4531,123.2344 415.3125,123.4063 L415.2188,123.375 Z "/><text fill="#000000" font-family="Monospace" font-size="10" lengthAdjust="spacingAndGlyphs" textLength="72" x="429.25" y="129.7969">LMI_StorageExtent</text><line style="stroke: #A80036; stroke-width: 1.5;" x1="386" x2="519" y1="140" y2="140"/><text fill="#000000" font-family="Monospace" font-size="10" lengthAdjust="spacingAndGlyphs" textLength="62" x="391" y="154">uint64 BlockSize</text><text fill="#000000" font-family="Monospace" font-size="10" lengthAdjust="spacingAndGlyphs" textLength="99" x="391" y="166.4063">uint64 ConsumableBlocks</text><text fill="#000000" font-family="Monospace" font-size="10" lengthAdjust="spacingAndGlyphs" textLength="93" x="391" y="178.8125">uint16 DataRedundancy</text><text fill="#000000" font-family="Monospace" font-size="10" lengthAdjust="spacingAndGlyphs" textLength="82" x="391" y="191.2188">string DeviceBusType</text><text fill="#000000" font-family="Monospace" font-size="10" lengthAdjust="spacingAndGlyphs" textLength="77" x="391" y="203.625">string ElementName</text><text fill="#000000" font-family="Monospace" font-size="10" lengthAdjust="spacingAndGlyphs" textLength="100" x="391" y="216.0313">string[] ExtentDiscriminator</text><text fill="#000000" font-family="Monospace" font-size="10" lengthAdjust="spacingAndGlyphs" textLength="76" x="391" y="228.4375">uint16[] ExtentStatus</text><text fill="#000000" font-family="Monospace" font-size="10" lengthAdjust="spacingAndGlyphs" textLength="98" x="391" y="240.8438">uint64 ExtentStripeLength</text><text fill="#000000" font-family="Monospace" font-size="10" lengthAdjust="spacingAndGlyphs" textLength="63" x="391" y="253.25">string InstanceID</text><text fill="#000000" font-family="Monospace" font-size="10" lengthAdjust="spacingAndGlyphs" textLength="81" x="391" y="265.6563">boolean IsComposite</text><text fill="#000000" font-family="Monospace" font-size="10" lengthAdjust="spacingAndGlyphs" textLength="46" x="391" y="278.0625">string Name</text><text fill="#000000" font-family="Monospace" font-size="10" lengthAdjust="spacingAndGlyphs" textLength="76" x="391" y="290.4688">uint16 NameFormat</text><text fill="#000000" font-family="Monospace" font-size="10" lengthAdjust="spacingAndGlyphs" textLength="95" x="391" y="302.875">uint16 NameNamespace</text><text fill="#000000" font-family="Monospace" font-size="10" lengthAdjust="spacingAndGlyphs" textLength="54" x="391" y="315.2813">string[] Names</text><text fill="#000000" font-family="Monospace" font-size="10" lengthAdjust="spacingAndGlyphs" textLength="123" x="391" y="327.6875">boolean NoSinglePointOfFailure</text><text fill="#000000" font-family="Monospace" font-size="10" lengthAdjust="spacingAndGlyphs" textLength="89" x="391" y="340.0938">uint64 NumberOfBlocks</text><text fill="#000000" font-family="Monospace" font-size="10" lengthAdjust="spacingAndGlyphs" textLength="98" x="391" y="352.5">uint16[] OperationalStatus</text><text fill="#000000" font-family="Monospace" font-size="10" lengthAdjust="spacingAndGlyphs" textLength="108" x="391" y="364.9063">uint16 PackageRedundancy</text><text fill="#000000" font-family="Monospace" font-size="10" lengthAdjust="spacingAndGlyphs" textLength="73" x="391" y="377.3125">boolean Primordial</text><line style="stroke: #A80036; stroke-width: 1.5;" x1="386" x2="519" y1="383.7188" y2="383.7188"/></a><rect fill="#FEFECE" filter="url(#f1)" height="44" style="stroke: #A80036; stroke-width: 1.5;" width="101" x="325" y="8"/><ellipse cx="338" cy="22" fill="#ADD1B2" rx="9" ry="9" style="stroke: #A80036; stroke-width: 1.0;"/><path d="M339.4688,19.375 C338.9219,19.1094 338.5625,19.0313 338.0469,19.0313 C336.5156,19.0313 335.3281,20.25 335.3281,21.8438 L335.3281,22.5156 C335.3281,24.0313 336.5625,25.1406 338.2656,25.1406 C338.9844,25.1406 339.6719,24.9531 340.1094,24.6406 C340.4531,24.4063 340.6406,24.1406 340.6406,23.9063 C340.6406,23.6406 340.4063,23.4063 340.1406,23.4063 C340.0156,23.4063 339.8906,23.4531 339.7813,23.5625 C339.5156,23.8438 339.5156,23.8438 339.4063,23.9063 C339.1563,24.0625 338.75,24.1406 338.2969,24.1406 C337.0938,24.1406 336.3281,23.4844 336.3281,22.4844 L336.3281,21.8438 C336.3281,20.7969 337.0625,20.0313 338.0938,20.0313 C338.4375,20.0313 338.7969,20.125 339.0625,20.2656 C339.3438,20.4375 339.4531,20.5625 339.5,20.7969 C339.5469,21.0469 339.5625,21.1094 339.6406,21.1875 C339.7188,21.2656 339.8594,21.3281 339.9844,21.3281 C340.1563,21.3281 340.2969,21.25 340.4063,21.125 C340.4688,21.0313 340.4844,20.9219 340.4844,20.6719 L340.4844,19.8281 C340.4844,19.5781 340.4844,19.5 340.4219,19.4063 C340.3281,19.2656 340.1719,19.1719 339.9844,19.1719 C339.8125,19.1719 339.7031,19.2344 339.5625,19.4063 L339.4688,19.375 Z "/><text fill="#000000" font-family="Monospace" font-size="10" lengthAdjust="spacingAndGlyphs" textLength="73" x="350" y="25.7969">CIM_StorageExtent</text><line style="stroke: #A80036; stroke-width: 1.5;" x1="326" x2="425" y1="36" y2="36"/><line style="stroke: #A80036; stroke-width: 1.5;" x1="326" x2="425" y1="44" y2="44"/><rect fill="#FEFECE" filter="url(#f1)" height="44" style="stroke: #A80036; stroke-width: 1.5;" width="103" x="242" y="230"/><ellipse cx="255" cy="244" fill="#ADD1B2" rx="9" ry="9" style="stroke: #A80036; stroke-width: 1.0;"/><path d="M256.4688,241.375 C255.9219,241.1094 255.5625,241.0313 255.0469,241.0313 C253.5156,241.0313 252.3281,242.25 252.3281,243.8438 L252.3281,244.5156 C252.3281,246.0313 253.5625,247.1406 255.2656,247.1406 C255.9844,247.1406 256.6719,246.9531 257.1094,246.6406 C257.4531,246.4063 257.6406,246.1406 257.6406,245.9063 C257.6406,245.6406 257.4063,245.4063 257.1406,245.4063 C257.0156,245.4063 256.8906,245.4531 256.7813,245.5625 C256.5156,245.8438 256.5156,245.8438 256.4063,245.9063 C256.1563,246.0625 255.75,246.1406 255.2969,246.1406 C254.0938,246.1406 253.3281,245.4844 253.3281,244.4844 L253.3281,243.8438 C253.3281,242.7969 254.0625,242.0313 255.0938,242.0313 C255.4375,242.0313 255.7969,242.125 256.0625,242.2656 C256.3438,242.4375 256.4531,242.5625 256.5,242.7969 C256.5469,243.0469 256.5625,243.1094 256.6406,243.1875 C256.7188,243.2656 256.8594,243.3281 256.9844,243.3281 C257.1563,243.3281 257.2969,243.25 257.4063,243.125 C257.4688,243.0313 257.4844,242.9219 257.4844,242.6719 L257.4844,241.8281 C257.4844,241.5781 257.4844,241.5 257.4219,241.4063 C257.3281,241.2656 257.1719,241.1719 256.9844,241.1719 C256.8125,241.1719 256.7031,241.2344 256.5625,241.4063 L256.4688,241.375 Z "/><text fill="#000000" font-family="Monospace" font-size="10" lengthAdjust="spacingAndGlyphs" textLength="75" x="267" y="247.7969">CIM_MediaPartition</text><line style="stroke: #A80036; stroke-width: 1.5;" x1="243" x2="344" y1="258" y2="258"/><line style="stroke: #A80036; stroke-width: 1.5;" x1="243" x2="344" y1="266" y2="266"/><rect fill="#FEFECE" filter="url(#f1)" height="44" style="stroke: #A80036; stroke-width: 1.5;" width="117" x="156" y="704.5"/><ellipse cx="169" cy="718.5" fill="#ADD1B2" rx="9" ry="9" style="stroke: #A80036; stroke-width: 1.0;"/><path d="M170.4688,715.875 C169.9219,715.6094 169.5625,715.5313 169.0469,715.5313 C167.5156,715.5313 166.3281,716.75 166.3281,718.3438 L166.3281,719.0156 C166.3281,720.5313 167.5625,721.6406 169.2656,721.6406 C169.9844,721.6406 170.6719,721.4531 171.1094,721.1406 C171.4531,720.9063 171.6406,720.6406 171.6406,720.4063 C171.6406,720.1406 171.4063,719.9063 171.1406,719.9063 C171.0156,719.9063 170.8906,719.9531 170.7813,720.0625 C170.5156,720.3438 170.5156,720.3438 170.4063,720.4063 C170.1563,720.5625 169.75,720.6406 169.2969,720.6406 C168.0938,720.6406 167.3281,719.9844 167.3281,718.9844 L167.3281,718.3438 C167.3281,717.2969 168.0625,716.5313 169.0938,716.5313 C169.4375,716.5313 169.7969,716.625 170.0625,716.7656 C170.3438,716.9375 170.4531,717.0625 170.5,717.2969 C170.5469,717.5469 170.5625,717.6094 170.6406,717.6875 C170.7188,717.7656 170.8594,717.8281 170.9844,717.8281 C171.1563,717.8281 171.2969,717.75 171.4063,717.625 C171.4688,717.5313 171.4844,717.4219 171.4844,717.1719 L171.4844,716.3281 C171.4844,716.0781 171.4844,716 171.4219,715.9063 C171.3281,715.7656 171.1719,715.6719 170.9844,715.6719 C170.8125,715.6719 170.7031,715.7344 170.5625,715.9063 L170.4688,715.875 Z "/><text fill="#000000" font-family="Monospace" font-size="10" lengthAdjust="spacingAndGlyphs" textLength="89" x="181" y="722.2969">CIM_VTOCDiskPartition</text><line style="stroke: #A80036; stroke-width: 1.5;" x1="157" x2="272" y1="732.5" y2="732.5"/><line style="stroke: #A80036; stroke-width: 1.5;" x1="157" x2="272" y1="740.5" y2="740.5"/><a xlink:href="LMI_LUKSStorageExtent.html" xlink:title="LMI_LUKSStorageExtent.html"><rect fill="#FEFECE" filter="url(#f1)" height="44" style="stroke: #A80036; stroke-width: 1.5;" width="121" x="555" y="230"/><ellipse cx="568" cy="244" fill="#ADD1B2" rx="9" ry="9" style="stroke: #A80036; stroke-width: 1.0;"/><path d="M569.4688,241.375 C568.9219,241.1094 568.5625,241.0313 568.0469,241.0313 C566.5156,241.0313 565.3281,242.25 565.3281,243.8438 L565.3281,244.5156 C565.3281,246.0313 566.5625,247.1406 568.2656,247.1406 C568.9844,247.1406 569.6719,246.9531 570.1094,246.6406 C570.4531,246.4063 570.6406,246.1406 570.6406,245.9063 C570.6406,245.6406 570.4063,245.4063 570.1406,245.4063 C570.0156,245.4063 569.8906,245.4531 569.7813,245.5625 C569.5156,245.8438 569.5156,245.8438 569.4063,245.9063 C569.1563,246.0625 568.75,246.1406 568.2969,246.1406 C567.0938,246.1406 566.3281,245.4844 566.3281,244.4844 L566.3281,243.8438 C566.3281,242.7969 567.0625,242.0313 568.0938,242.0313 C568.4375,242.0313 568.7969,242.125 569.0625,242.2656 C569.3438,242.4375 569.4531,242.5625 569.5,242.7969 C569.5469,243.0469 569.5625,243.1094 569.6406,243.1875 C569.7188,243.2656 569.8594,243.3281 569.9844,243.3281 C570.1563,243.3281 570.2969,243.25 570.4063,243.125 C570.4688,243.0313 570.4844,242.9219 570.4844,242.6719 L570.4844,241.8281 C570.4844,241.5781 570.4844,241.5 570.4219,241.4063 C570.3281,241.2656 570.1719,241.1719 569.9844,241.1719 C569.8125,241.1719 569.7031,241.2344 569.5625,241.4063 L569.4688,241.375 Z "/><text fill="#000000" font-family="Monospace" font-size="10" lengthAdjust="spacingAndGlyphs" textLength="93" x="580" y="247.7969">LMI_LUKSStorageExtent</text><line style="stroke: #A80036; stroke-width: 1.5;" x1="556" x2="675" y1="258" y2="258"/><line style="stroke: #A80036; stroke-width: 1.5;" x1="556" x2="675" y1="266" y2="266"/></a><rect fill="#FEFECE" filter="url(#f1)" height="44" style="stroke: #A80036; stroke-width: 1.5;" width="110" x="560.5" y="8"/><ellipse cx="573.5" cy="22" fill="#ADD1B2" rx="9" ry="9" style="stroke: #A80036; stroke-width: 1.0;"/><path d="M574.9688,19.375 C574.4219,19.1094 574.0625,19.0313 573.5469,19.0313 C572.0156,19.0313 570.8281,20.25 570.8281,21.8438 L570.8281,22.5156 C570.8281,24.0313 572.0625,25.1406 573.7656,25.1406 C574.4844,25.1406 575.1719,24.9531 575.6094,24.6406 C575.9531,24.4063 576.1406,24.1406 576.1406,23.9063 C576.1406,23.6406 575.9063,23.4063 575.6406,23.4063 C575.5156,23.4063 575.3906,23.4531 575.2813,23.5625 C575.0156,23.8438 575.0156,23.8438 574.9063,23.9063 C574.6563,24.0625 574.25,24.1406 573.7969,24.1406 C572.5938,24.1406 571.8281,23.4844 571.8281,22.4844 L571.8281,21.8438 C571.8281,20.7969 572.5625,20.0313 573.5938,20.0313 C573.9375,20.0313 574.2969,20.125 574.5625,20.2656 C574.8438,20.4375 574.9531,20.5625 575,20.7969 C575.0469,21.0469 575.0625,21.1094 575.1406,21.1875 C575.2188,21.2656 575.3594,21.3281 575.4844,21.3281 C575.6563,21.3281 575.7969,21.25 575.9063,21.125 C575.9688,21.0313 575.9844,20.9219 575.9844,20.6719 L575.9844,19.8281 C575.9844,19.5781 575.9844,19.5 575.9219,19.4063 C575.8281,19.2656 575.6719,19.1719 575.4844,19.1719 C575.3125,19.1719 575.2031,19.2344 575.0625,19.4063 L574.9688,19.375 Z "/><text fill="#000000" font-family="Monospace" font-size="10" lengthAdjust="spacingAndGlyphs" textLength="82" x="585.5" y="25.7969">LMI_EncryptionExtent</text><line style="stroke: #A80036; stroke-width: 1.5;" x1="561.5" x2="669.5" y1="36" y2="36"/><line style="stroke: #A80036; stroke-width: 1.5;" x1="561.5" x2="669.5" y1="44" y2="44"/><rect fill="#FEFECE" filter="url(#f1)" height="44" style="stroke: #A80036; stroke-width: 1.5;" width="111" x="308" y="704.5"/><ellipse cx="321" cy="718.5" fill="#ADD1B2" rx="9" ry="9" style="stroke: #A80036; stroke-width: 1.0;"/><path d="M322.4688,715.875 C321.9219,715.6094 321.5625,715.5313 321.0469,715.5313 C319.5156,715.5313 318.3281,716.75 318.3281,718.3438 L318.3281,719.0156 C318.3281,720.5313 319.5625,721.6406 321.2656,721.6406 C321.9844,721.6406 322.6719,721.4531 323.1094,721.1406 C323.4531,720.9063 323.6406,720.6406 323.6406,720.4063 C323.6406,720.1406 323.4063,719.9063 323.1406,719.9063 C323.0156,719.9063 322.8906,719.9531 322.7813,720.0625 C322.5156,720.3438 322.5156,720.3438 322.4063,720.4063 C322.1563,720.5625 321.75,720.6406 321.2969,720.6406 C320.0938,720.6406 319.3281,719.9844 319.3281,718.9844 L319.3281,718.3438 C319.3281,717.2969 320.0625,716.5313 321.0938,716.5313 C321.4375,716.5313 321.7969,716.625 322.0625,716.7656 C322.3438,716.9375 322.4531,717.0625 322.5,717.2969 C322.5469,717.5469 322.5625,717.6094 322.6406,717.6875 C322.7188,717.7656 322.8594,717.8281 322.9844,717.8281 C323.1563,717.8281 323.2969,717.75 323.4063,717.625 C323.4688,717.5313 323.4844,717.4219 323.4844,717.1719 L323.4844,716.3281 C323.4844,716.0781 323.4844,716 323.4219,715.9063 C323.3281,715.7656 323.1719,715.6719 322.9844,715.6719 C322.8125,715.6719 322.7031,715.7344 322.5625,715.9063 L322.4688,715.875 Z "/><text fill="#000000" font-family="Monospace" font-size="10" lengthAdjust="spacingAndGlyphs" textLength="83" x="333" y="722.2969">CIM_GPTDiskPartition</text><line style="stroke: #A80036; stroke-width: 1.5;" x1="309" x2="418" y1="732.5" y2="732.5"/><line style="stroke: #A80036; stroke-width: 1.5;" x1="309" x2="418" y1="740.5" y2="740.5"/><a xlink:href="LMI_LVStorageExtent.html" xlink:title="LMI_LVStorageExtent.html"><rect fill="#FEFECE" filter="url(#f1)" height="81.2188" style="stroke: #A80036; stroke-width: 1.5;" width="114" x="553.5" y="452"/><ellipse cx="568.3" cy="466" fill="#ADD1B2" rx="9" ry="9" style="stroke: #A80036; stroke-width: 1.0;"/><path d="M569.7688,463.375 C569.2219,463.1094 568.8625,463.0313 568.3469,463.0313 C566.8156,463.0313 565.6281,464.25 565.6281,465.8438 L565.6281,466.5156 C565.6281,468.0313 566.8625,469.1406 568.5656,469.1406 C569.2844,469.1406 569.9719,468.9531 570.4094,468.6406 C570.7531,468.4063 570.9406,468.1406 570.9406,467.9063 C570.9406,467.6406 570.7063,467.4063 570.4406,467.4063 C570.3156,467.4063 570.1906,467.4531 570.0813,467.5625 C569.8156,467.8438 569.8156,467.8438 569.7063,467.9063 C569.4563,468.0625 569.05,468.1406 568.5969,468.1406 C567.3938,468.1406 566.6281,467.4844 566.6281,466.4844 L566.6281,465.8438 C566.6281,464.7969 567.3625,464.0313 568.3938,464.0313 C568.7375,464.0313 569.0969,464.125 569.3625,464.2656 C569.6438,464.4375 569.7531,464.5625 569.8,464.7969 C569.8469,465.0469 569.8625,465.1094 569.9406,465.1875 C570.0188,465.2656 570.1594,465.3281 570.2844,465.3281 C570.4563,465.3281 570.5969,465.25 570.7063,465.125 C570.7688,465.0313 570.7844,464.9219 570.7844,464.6719 L570.7844,463.8281 C570.7844,463.5781 570.7844,463.5 570.7219,463.4063 C570.6281,463.2656 570.4719,463.1719 570.2844,463.1719 C570.1125,463.1719 570.0031,463.2344 569.8625,463.4063 L569.7688,463.375 Z "/><text fill="#000000" font-family="Monospace" font-size="10" lengthAdjust="spacingAndGlyphs" textLength="82" x="580.7" y="469.7969">LMI_LVStorageExtent</text><line style="stroke: #A80036; stroke-width: 1.5;" x1="554.5" x2="666.5" y1="480" y2="480"/><text fill="#000000" font-family="Monospace" font-size="10" lengthAdjust="spacingAndGlyphs" textLength="77" x="559.5" y="494">string ElementName</text><text fill="#000000" font-family="Monospace" font-size="10" lengthAdjust="spacingAndGlyphs" textLength="102" x="559.5" y="506.4063">boolean ThinlyProvisioned</text><text fill="#000000" font-family="Monospace" font-size="10" lengthAdjust="spacingAndGlyphs" textLength="43" x="559.5" y="518.8125">string UUID</text><line style="stroke: #A80036; stroke-width: 1.5;" x1="554.5" x2="666.5" y1="525.2188" y2="525.2188"/></a><a xlink:href="LMI_GenericDiskPartition.html" xlink:title="LMI_GenericDiskPartition.html"><rect fill="#FEFECE" filter="url(#f1)" height="267.3125" style="stroke: #A80036; stroke-width: 1.5;" width="135" x="454" y="593"/><ellipse cx="471.95" cy="607" fill="#ADD1B2" rx="9" ry="9" style="stroke: #A80036; stroke-width: 1.0;"/><path d="M473.4188,604.375 C472.8719,604.1094 472.5125,604.0313 471.9969,604.0313 C470.4656,604.0313 469.2781,605.25 469.2781,606.8438 L469.2781,607.5156 C469.2781,609.0313 470.5125,610.1406 472.2156,610.1406 C472.9344,610.1406 473.6219,609.9531 474.0594,609.6406 C474.4031,609.4063 474.5906,609.1406 474.5906,608.9063 C474.5906,608.6406 474.3563,608.4063 474.0906,608.4063 C473.9656,608.4063 473.8406,608.4531 473.7313,608.5625 C473.4656,608.8438 473.4656,608.8438 473.3563,608.9063 C473.1063,609.0625 472.7,609.1406 472.2469,609.1406 C471.0438,609.1406 470.2781,608.4844 470.2781,607.4844 L470.2781,606.8438 C470.2781,605.7969 471.0125,605.0313 472.0438,605.0313 C472.3875,605.0313 472.7469,605.125 473.0125,605.2656 C473.2938,605.4375 473.4031,605.5625 473.45,605.7969 C473.4969,606.0469 473.5125,606.1094 473.5906,606.1875 C473.6688,606.2656 473.8094,606.3281 473.9344,606.3281 C474.1063,606.3281 474.2469,606.25 474.3563,606.125 C474.4188,606.0313 474.4344,605.9219 474.4344,605.6719 L474.4344,604.8281 C474.4344,604.5781 474.4344,604.5 474.3719,604.4063 C474.2781,604.2656 474.1219,604.1719 473.9344,604.1719 C473.7625,604.1719 473.6531,604.2344 473.5125,604.4063 L473.4188,604.375 Z "/><text fill="#000000" font-family="Monospace" font-size="10" lengthAdjust="spacingAndGlyphs" textLength="96" x="485.05" y="610.7969">LMI_GenericDiskPartition</text><line style="stroke: #A80036; stroke-width: 1.5;" x1="455" x2="588" y1="621" y2="621"/><text fill="#000000" font-family="Monospace" font-size="10" lengthAdjust="spacingAndGlyphs" textLength="62" x="460" y="635">uint64 BlockSize</text><text fill="#000000" font-family="Monospace" font-size="10" lengthAdjust="spacingAndGlyphs" textLength="99" x="460" y="647.4063">uint64 ConsumableBlocks</text><text fill="#000000" font-family="Monospace" font-size="10" lengthAdjust="spacingAndGlyphs" textLength="93" x="460" y="659.8125">uint16 DataRedundancy</text><text fill="#000000" font-family="Monospace" font-size="10" lengthAdjust="spacingAndGlyphs" textLength="82" x="460" y="672.2188">string DeviceBusType</text><text fill="#000000" font-family="Monospace" font-size="10" lengthAdjust="spacingAndGlyphs" textLength="77" x="460" y="684.625">string ElementName</text><text fill="#000000" font-family="Monospace" font-size="10" lengthAdjust="spacingAndGlyphs" textLength="100" x="460" y="697.0313">string[] ExtentDiscriminator</text><text fill="#000000" font-family="Monospace" font-size="10" lengthAdjust="spacingAndGlyphs" textLength="76" x="460" y="709.4375">uint16[] ExtentStatus</text><text fill="#000000" font-family="Monospace" font-size="10" lengthAdjust="spacingAndGlyphs" textLength="98" x="460" y="721.8438">uint64 ExtentStripeLength</text><text fill="#000000" font-family="Monospace" font-size="10" lengthAdjust="spacingAndGlyphs" textLength="63" x="460" y="734.25">string InstanceID</text><text fill="#000000" font-family="Monospace" font-size="10" lengthAdjust="spacingAndGlyphs" textLength="46" x="460" y="746.6563">string Name</text><text fill="#000000" font-family="Monospace" font-size="10" lengthAdjust="spacingAndGlyphs" textLength="76" x="460" y="759.0625">uint16 NameFormat</text><text fill="#000000" font-family="Monospace" font-size="10" lengthAdjust="spacingAndGlyphs" textLength="95" x="460" y="771.4688">uint16 NameNamespace</text><text fill="#000000" font-family="Monospace" font-size="10" lengthAdjust="spacingAndGlyphs" textLength="54" x="460" y="783.875">string[] Names</text><text fill="#000000" font-family="Monospace" font-size="10" lengthAdjust="spacingAndGlyphs" textLength="123" x="460" y="796.2813">boolean NoSinglePointOfFailure</text><text fill="#000000" font-family="Monospace" font-size="10" lengthAdjust="spacingAndGlyphs" textLength="89" x="460" y="808.6875">uint64 NumberOfBlocks</text><text fill="#000000" font-family="Monospace" font-size="10" lengthAdjust="spacingAndGlyphs" textLength="98" x="460" y="821.0938">uint16[] OperationalStatus</text><text fill="#000000" font-family="Monospace" font-size="10" lengthAdjust="spacingAndGlyphs" textLength="108" x="460" y="833.5">uint16 PackageRedundancy</text><text fill="#000000" font-family="Monospace" font-size="10" lengthAdjust="spacingAndGlyphs" textLength="73" x="460" y="845.9063">boolean Primordial</text><line style="stroke: #A80036; stroke-width: 1.5;" x1="455" x2="588" y1="852.3125" y2="852.3125"/></a><path d="M73.5,768.807 C73.5,806.599 73.5,864.811 73.5,919.658 " fill="none" style="stroke: #A80036; stroke-width: 1.0;"/><polygon fill="none" points="66.5001,768.612,73.5,748.612,80.5001,768.612,66.5001,768.612" style="stroke: #A80036; stroke-width: 1.0;"/><path d="M226.871,524.372 C197.318,541.493 163.089,564.998 138.5,593 C108.914,626.693 89.403,676.239 80.0183,704.219 " fill="none" style="stroke: #A80036; stroke-width: 1.0;"/><polygon fill="none" points="223.657,518.15,244.539,514.554,230.457,530.388,223.657,518.15" style="stroke: #A80036; stroke-width: 1.0;"/><path d="M452.5,412.225 C452.5,426.664 452.5,440.219 452.5,451.896 " fill="none" style="stroke: #A80036; stroke-width: 1.0;"/><polygon fill="none" points="445.5,412.082,452.5,392.082,459.5,412.082,445.5,412.082" style="stroke: #A80036; stroke-width: 1.0;"/><path d="M389.492,70.98 C393.729,83.08 398.642,97.12 403.821,111.92 " fill="none" style="stroke: #A80036; stroke-width: 1.0;"/><polygon fill="none" points="382.883,73.28,382.883,52.09,396.097,68.66,382.883,73.28" style="stroke: #A80036; stroke-width: 1.0;"/><path d="M360.58,71.03 C343.142,117.81 314.944,193.47 301.339,229.969 " fill="none" style="stroke: #A80036; stroke-width: 1.0;"/><polygon fill="none" points="354.093,68.39,367.637,52.09,367.212,73.28,354.093,68.39" style="stroke: #A80036; stroke-width: 1.0;"/><path d="M275.59,533.973 C259.747,583.644 233.479,665.998 221.206,704.477 " fill="none" style="stroke: #A80036; stroke-width: 1.0;"/><polygon fill="none" points="268.924,531.837,281.671,514.91,282.262,536.092,268.924,531.837" style="stroke: #A80036; stroke-width: 1.0;"/><path d="M615.5,72.3 C615.5,119.17 615.5,193.79 615.5,229.969 " fill="none" style="stroke: #A80036; stroke-width: 1.0;"/><polygon fill="none" points="608.5,72.09,615.5,52.09,622.5,72.09,608.5,72.09" style="stroke: #A80036; stroke-width: 1.0;"/><path d="M301.584,533.973 C317.642,583.644 344.265,665.998 356.704,704.477 " fill="none" style="stroke: #A80036; stroke-width: 1.0;"/><polygon fill="none" points="294.913,536.094,295.421,514.91,308.234,531.787,294.913,536.094" style="stroke: #A80036; stroke-width: 1.0;"/><path d="M531,382.209 C533.174,385.516 535.343,388.785 537.5,392 C550.988,412.105 566.792,433.847 580.239,451.865 " fill="none" style="stroke: #A80036; stroke-width: 1.0;"/><polygon fill="none" points="525.122,386.01,520.123,365.419,536.872,378.399,525.122,386.01" style="stroke: #A80036; stroke-width: 1.0;"/><path d="M292.632,294.424 C291.557,345.68 289.768,430.994 288.943,470.382 " fill="none" style="stroke: #A80036; stroke-width: 1.0;"/><polygon fill="none" points="285.639,294.014,293.056,274.165,299.635,294.308,285.639,294.014" style="stroke: #A80036; stroke-width: 1.0;"/><path d="M346.174,524.672 C375.38,542.246 410.137,566.064 436.5,593 C442.522,599.153 448.348,605.797 453.937,612.719 " fill="none" style="stroke: #A80036; stroke-width: 1.0;"/><polygon fill="none" points="342.585,530.682,328.831,514.564,349.635,518.587,342.585,530.682" style="stroke: #A80036; stroke-width: 1.0;"/></g></svg>