<?xml version="1.0" encoding="UTF-8" standalone="yes"?><svg xmlns="http://www.w3.org/2000/svg" xmlns:xlink="http://www.w3.org/1999/xlink" height="326pt" style="width:546px;height:326px;" version="1.1" viewBox="0 0 546 326" width="546pt"><defs><filter height="300%" id="f1" width="300%" x="-1" y="-1"><feGaussianBlur result="blurOut" stdDeviation="2.0"/><feColorMatrix in="blurOut" result="blurOut2" type="matrix" values="0 0 0 0 0 0 0 0 0 0 0 0 0 0 0 0 0 0 .4 0"/><feOffset dx="4.0" dy="4.0" in="blurOut2" result="blurOut3"/><feBlend in="SourceGraphic" in2="blurOut3" mode="normal"/></filter></defs><g><a xlink:href="LMI_LVAllocatedFromStoragePool.html" xlink:title="LMI_LVAllocatedFromStoragePool.html"><rect fill="#FEFECE" filter="url(#f1)" height="44" style="stroke: #A80036; stroke-width: 1.5;" width="159" x="6" y="192.5"/><ellipse cx="19" cy="206.5" fill="#ADD1B2" rx="9" ry="9" style="stroke: #A80036; stroke-width: 1.0;"/><path d="M20.4688,203.875 C19.9219,203.6094 19.5625,203.5313 19.0469,203.5313 C17.5156,203.5313 16.3281,204.75 16.3281,206.3438 L16.3281,207.0156 C16.3281,208.5313 17.5625,209.6406 19.2656,209.6406 C19.9844,209.6406 20.6719,209.4531 21.1094,209.1406 C21.4531,208.9063 21.6406,208.6406 21.6406,208.4063 C21.6406,208.1406 21.4063,207.9063 21.1406,207.9063 C21.0156,207.9063 20.8906,207.9531 20.7813,208.0625 C20.5156,208.3438 20.5156,208.3438 20.4063,208.4063 C20.1563,208.5625 19.75,208.6406 19.2969,208.6406 C18.0938,208.6406 17.3281,207.9844 17.3281,206.9844 L17.3281,206.3438 C17.3281,205.2969 18.0625,204.5313 19.0938,204.5313 C19.4375,204.5313 19.7969,204.625 20.0625,204.7656 C20.3438,204.9375 20.4531,205.0625 20.5,205.2969 C20.5469,205.5469 20.5625,205.6094 20.6406,205.6875 C20.7188,205.7656 20.8594,205.8281 20.9844,205.8281 C21.1563,205.8281 21.2969,205.75 21.4063,205.625 C21.4688,205.5313 21.4844,205.4219 21.4844,205.1719 L21.4844,204.3281 C21.4844,204.0781 21.4844,204 21.4219,203.9063 C21.3281,203.7656 21.1719,203.6719 20.9844,203.6719 C20.8125,203.6719 20.7031,203.7344 20.5625,203.9063 L20.4688,203.875 Z "/><text fill="#000000" font-family="Monospace" font-size="10" lengthAdjust="spacingAndGlyphs" textLength="131" x="31" y="210.2969">LMI_LVAllocatedFromStoragePool</text><line style="stroke: #A80036; stroke-width: 1.5;" x1="7" x2="164" y1="220.5" y2="220.5"/><line style="stroke: #A80036; stroke-width: 1.5;" x1="7" x2="164" y1="228.5" y2="228.5"/></a><rect fill="#FEFECE" filter="url(#f1)" height="44" style="stroke: #A80036; stroke-width: 1.5;" width="150" x="107.5" y="8"/><ellipse cx="120.5" cy="22" fill="#ADD1B2" rx="9" ry="9" style="stroke: #A80036; stroke-width: 1.0;"/><path d="M121.9688,19.375 C121.4219,19.1094 121.0625,19.0313 120.5469,19.0313 C119.0156,19.0313 117.8281,20.25 117.8281,21.8438 L117.8281,22.5156 C117.8281,24.0313 119.0625,25.1406 120.7656,25.1406 C121.4844,25.1406 122.1719,24.9531 122.6094,24.6406 C122.9531,24.4063 123.1406,24.1406 123.1406,23.9063 C123.1406,23.6406 122.9063,23.4063 122.6406,23.4063 C122.5156,23.4063 122.3906,23.4531 122.2813,23.5625 C122.0156,23.8438 122.0156,23.8438 121.9063,23.9063 C121.6563,24.0625 121.25,24.1406 120.7969,24.1406 C119.5938,24.1406 118.8281,23.4844 118.8281,22.4844 L118.8281,21.8438 C118.8281,20.7969 119.5625,20.0313 120.5938,20.0313 C120.9375,20.0313 121.2969,20.125 121.5625,20.2656 C121.8438,20.4375 121.9531,20.5625 122,20.7969 C122.0469,21.0469 122.0625,21.1094 122.1406,21.1875 C122.2188,21.2656 122.3594,21.3281 122.4844,21.3281 C122.6563,21.3281 122.7969,21.25 122.9063,21.125 C122.9688,21.0313 122.9844,20.9219 122.9844,20.6719 L122.9844,19.8281 C122.9844,19.5781 122.9844,19.5 122.9219,19.4063 C122.8281,19.2656 122.6719,19.1719 122.4844,19.1719 C122.3125,19.1719 122.2031,19.2344 122.0625,19.4063 L121.9688,19.375 Z "/><text fill="#000000" font-family="Monospace" font-size="10" lengthAdjust="spacingAndGlyphs" textLength="122" x="132.5" y="25.7969">CIM_AllocatedFromStoragePool</text><line style="stroke: #A80036; stroke-width: 1.5;" x1="108.5" x2="256.5" y1="36" y2="36"/><line style="stroke: #A80036; stroke-width: 1.5;" x1="108.5" x2="256.5" y1="44" y2="44"/><a xlink:href="LMI_VGStoragePool.html" xlink:title="LMI_VGStoragePool.html"><rect fill="#FEFECE" filter="url(#f1)" height="205.2813" style="stroke: #A80036; stroke-width: 1.5;" width="141" x="396" y="112"/><ellipse cx="425.2" cy="126" fill="#ADD1B2" rx="9" ry="9" style="stroke: #A80036; stroke-width: 1.0;"/><path d="M426.6688,123.375 C426.1219,123.1094 425.7625,123.0313 425.2469,123.0313 C423.7156,123.0313 422.5281,124.25 422.5281,125.8438 L422.5281,126.5156 C422.5281,128.0313 423.7625,129.1406 425.4656,129.1406 C426.1844,129.1406 426.8719,128.9531 427.3094,128.6406 C427.6531,128.4063 427.8406,128.1406 427.8406,127.9063 C427.8406,127.6406 427.6063,127.4063 427.3406,127.4063 C427.2156,127.4063 427.0906,127.4531 426.9813,127.5625 C426.7156,127.8438 426.7156,127.8438 426.6063,127.9063 C426.3563,128.0625 425.95,128.1406 425.4969,128.1406 C424.2938,128.1406 423.5281,127.4844 423.5281,126.4844 L423.5281,125.8438 C423.5281,124.7969 424.2625,124.0313 425.2938,124.0313 C425.6375,124.0313 425.9969,124.125 426.2625,124.2656 C426.5438,124.4375 426.6531,124.5625 426.7,124.7969 C426.7469,125.0469 426.7625,125.1094 426.8406,125.1875 C426.9188,125.2656 427.0594,125.3281 427.1844,125.3281 C427.3563,125.3281 427.4969,125.25 427.6063,125.125 C427.6688,125.0313 427.6844,124.9219 427.6844,124.6719 L427.6844,123.8281 C427.6844,123.5781 427.6844,123.5 427.6219,123.4063 C427.5281,123.2656 427.3719,123.1719 427.1844,123.1719 C427.0125,123.1719 426.9031,123.2344 426.7625,123.4063 L426.6688,123.375 Z "/><text fill="#000000" font-family="Monospace" font-size="10" lengthAdjust="spacingAndGlyphs" textLength="77" x="440.8" y="129.7969">LMI_VGStoragePool</text><line style="stroke: #A80036; stroke-width: 1.5;" x1="397" x2="536" y1="140" y2="140"/><text fill="#000000" font-family="Monospace" font-size="10" lengthAdjust="spacingAndGlyphs" textLength="77" x="402" y="154">string ElementName</text><text fill="#000000" font-family="Monospace" font-size="10" lengthAdjust="spacingAndGlyphs" textLength="65" x="402" y="166.4063">uint64 ExtentSize</text><text fill="#000000" font-family="Monospace" font-size="10" lengthAdjust="spacingAndGlyphs" textLength="63" x="402" y="178.8125">string InstanceID</text><text fill="#000000" font-family="Monospace" font-size="10" lengthAdjust="spacingAndGlyphs" textLength="46" x="402" y="191.2188">string Name</text><text fill="#000000" font-family="Monospace" font-size="10" lengthAdjust="spacingAndGlyphs" textLength="48" x="402" y="203.625">string PoolID</text><text fill="#000000" font-family="Monospace" font-size="10" lengthAdjust="spacingAndGlyphs" textLength="73" x="402" y="216.0313">boolean Primordial</text><text fill="#000000" font-family="Monospace" font-size="10" lengthAdjust="spacingAndGlyphs" textLength="95" x="402" y="228.4375">uint64 RemainingExtents</text><text fill="#000000" font-family="Monospace" font-size="10" lengthAdjust="spacingAndGlyphs" textLength="129" x="402" y="240.8438">uint64 RemainingManagedSpace</text><text fill="#000000" font-family="Monospace" font-size="10" lengthAdjust="spacingAndGlyphs" textLength="72" x="402" y="253.25">uint64 TotalExtents</text><text fill="#000000" font-family="Monospace" font-size="10" lengthAdjust="spacingAndGlyphs" textLength="106" x="402" y="265.6563">uint64 TotalManagedSpace</text><text fill="#000000" font-family="Monospace" font-size="10" lengthAdjust="spacingAndGlyphs" textLength="43" x="402" y="278.0625">string UUID</text><line style="stroke: #A80036; stroke-width: 1.5;" x1="397" x2="536" y1="284.4688" y2="284.4688"/><text fill="#000000" font-family="Monospace" font-size="10" lengthAdjust="spacingAndGlyphs" textLength="101" x="402" y="298.4688">GetSupportedSizeRange()</text><text fill="#000000" font-family="Monospace" font-size="10" lengthAdjust="spacingAndGlyphs" textLength="79" x="402" y="310.875">GetSupportedSizes()</text></a><rect fill="#FEFECE" filter="url(#f1)" height="44" style="stroke: #A80036; stroke-width: 1.5;" width="95" x="419" y="8"/><ellipse cx="432" cy="22" fill="#ADD1B2" rx="9" ry="9" style="stroke: #A80036; stroke-width: 1.0;"/><path d="M433.4688,19.375 C432.9219,19.1094 432.5625,19.0313 432.0469,19.0313 C430.5156,19.0313 429.3281,20.25 429.3281,21.8438 L429.3281,22.5156 C429.3281,24.0313 430.5625,25.1406 432.2656,25.1406 C432.9844,25.1406 433.6719,24.9531 434.1094,24.6406 C434.4531,24.4063 434.6406,24.1406 434.6406,23.9063 C434.6406,23.6406 434.4063,23.4063 434.1406,23.4063 C434.0156,23.4063 433.8906,23.4531 433.7813,23.5625 C433.5156,23.8438 433.5156,23.8438 433.4063,23.9063 C433.1563,24.0625 432.75,24.1406 432.2969,24.1406 C431.0938,24.1406 430.3281,23.4844 430.3281,22.4844 L430.3281,21.8438 C430.3281,20.7969 431.0625,20.0313 432.0938,20.0313 C432.4375,20.0313 432.7969,20.125 433.0625,20.2656 C433.3438,20.4375 433.4531,20.5625 433.5,20.7969 C433.5469,21.0469 433.5625,21.1094 433.6406,21.1875 C433.7188,21.2656 433.8594,21.3281 433.9844,21.3281 C434.1563,21.3281 434.2969,21.25 434.4063,21.125 C434.4688,21.0313 434.4844,20.9219 434.4844,20.6719 L434.4844,19.8281 C434.4844,19.5781 434.4844,19.5 434.4219,19.4063 C434.3281,19.2656 434.1719,19.1719 433.9844,19.1719 C433.8125,19.1719 433.7031,19.2344 433.5625,19.4063 L433.4688,19.375 Z "/><text fill="#000000" font-family="Monospace" font-size="10" lengthAdjust="spacingAndGlyphs" textLength="67" x="444" y="25.7969">CIM_StoragePool</text><line style="stroke: #A80036; stroke-width: 1.5;" x1="420" x2="513" y1="36" y2="36"/><line style="stroke: #A80036; stroke-width: 1.5;" x1="420" x2="513" y1="44" y2="44"/><a xlink:href="LMI_VGAllocatedFromStoragePool.html" xlink:title="LMI_VGAllocatedFromStoragePool.html"><rect fill="#FEFECE" filter="url(#f1)" height="44" style="stroke: #A80036; stroke-width: 1.5;" width="160" x="200.5" y="192.5"/><ellipse cx="213.5" cy="206.5" fill="#ADD1B2" rx="9" ry="9" style="stroke: #A80036; stroke-width: 1.0;"/><path d="M214.9688,203.875 C214.4219,203.6094 214.0625,203.5313 213.5469,203.5313 C212.0156,203.5313 210.8281,204.75 210.8281,206.3438 L210.8281,207.0156 C210.8281,208.5313 212.0625,209.6406 213.7656,209.6406 C214.4844,209.6406 215.1719,209.4531 215.6094,209.1406 C215.9531,208.9063 216.1406,208.6406 216.1406,208.4063 C216.1406,208.1406 215.9063,207.9063 215.6406,207.9063 C215.5156,207.9063 215.3906,207.9531 215.2813,208.0625 C215.0156,208.3438 215.0156,208.3438 214.9063,208.4063 C214.6563,208.5625 214.25,208.6406 213.7969,208.6406 C212.5938,208.6406 211.8281,207.9844 211.8281,206.9844 L211.8281,206.3438 C211.8281,205.2969 212.5625,204.5313 213.5938,204.5313 C213.9375,204.5313 214.2969,204.625 214.5625,204.7656 C214.8438,204.9375 214.9531,205.0625 215,205.2969 C215.0469,205.5469 215.0625,205.6094 215.1406,205.6875 C215.2188,205.7656 215.3594,205.8281 215.4844,205.8281 C215.6563,205.8281 215.7969,205.75 215.9063,205.625 C215.9688,205.5313 215.9844,205.4219 215.9844,205.1719 L215.9844,204.3281 C215.9844,204.0781 215.9844,204 215.9219,203.9063 C215.8281,203.7656 215.6719,203.6719 215.4844,203.6719 C215.3125,203.6719 215.2031,203.7344 215.0625,203.9063 L214.9688,203.875 Z "/><text fill="#000000" font-family="Monospace" font-size="10" lengthAdjust="spacingAndGlyphs" textLength="132" x="225.5" y="210.2969">LMI_VGAllocatedFromStoragePool</text><line style="stroke: #A80036; stroke-width: 1.5;" x1="201.5" x2="359.5" y1="220.5" y2="220.5"/><line style="stroke: #A80036; stroke-width: 1.5;" x1="201.5" x2="359.5" y1="228.5" y2="228.5"/></a><path d="M161.763,70.015 C141.884,107.417 112.621,162.473 96.7449,192.343 " fill="none" style="stroke: #A80036; stroke-width: 1.0;"/><polygon fill="none" points="155.615,66.667,171.183,52.292,167.977,73.238,155.615,66.667" style="stroke: #A80036; stroke-width: 1.0;"/><path d="M466.5,72.327 C466.5,84.289 466.5,97.906 466.5,111.85 " fill="none" style="stroke: #A80036; stroke-width: 1.0;"/><polygon fill="none" points="459.5,72.292,466.5,52.292,473.5,72.292,459.5,72.292" style="stroke: #A80036; stroke-width: 1.0;"/><path d="M203.451,70.015 C223.535,107.417 253.099,162.473 269.139,192.343 " fill="none" style="stroke: #A80036; stroke-width: 1.0;"/><polygon fill="none" points="197.228,73.224,193.934,52.292,209.563,66.601,197.228,73.224" style="stroke: #A80036; stroke-width: 1.0;"/></g></svg>