<?xml version="1.0" encoding="UTF-8" standalone="yes"?><svg xmlns="http://www.w3.org/2000/svg" xmlns:xlink="http://www.w3.org/1999/xlink" height="573pt" style="width:803px;height:573px;" version="1.1" viewBox="0 0 803 573" width="803pt"><defs><filter height="300%" id="f1" width="300%" x="-1" y="-1"><feGaussianBlur result="blurOut" stdDeviation="2"/><feColorMatrix in="blurOut" result="blurOut2" type="matrix" values="0 0 0 0 0 0 0 0 0 0 0 0 0 0 0 0 0 0 .4 0"/><feOffset dx="4" dy="4" in="blurOut2" result="blurOut3"/><feBlend in="SourceGraphic" in2="blurOut3" mode="normal"/></filter></defs><g><ellipse cx="540.25" cy="18" fill="#000000" filter="url(#f1)" rx="10" ry="10" style="stroke: none; stroke-width: 1.0;"/><rect fill="#FEFECE" filter="url(#f1)" height="64.2344" rx="12.5" ry="12.5" style="stroke: #A80036; stroke-width: 1.5;" width="226" x="427.25" y="90"/><line style="stroke: #A80036; stroke-width: 1.5;" x1="427.25" x2="653.25" y1="116.2969" y2="116.2969"/><text fill="#000000" font-size="14" lengthAdjust="spacingAndGlyphs" textLength="56" x="512.25" y="109">Queued</text><text fill="#000000" font-size="12" lengthAdjust="spacingAndGlyphs" textLength="206" x="432.25" y="133.2969">OperationalStatus = ["Dormant"]</text><text fill="#000000" font-size="12" lengthAdjust="spacingAndGlyphs" textLength="107" x="432.25" y="147.2656">JobState = "New"</text><rect fill="#FEFECE" filter="url(#f1)" height="64.2344" rx="12.5" ry="12.5" style="stroke: #A80036; stroke-width: 1.5;" width="188" x="344.25" y="232"/><line style="stroke: #A80036; stroke-width: 1.5;" x1="344.25" x2="532.25" y1="258.2969" y2="258.2969"/><text fill="#000000" font-size="14" lengthAdjust="spacingAndGlyphs" textLength="58" x="409.25" y="251">Running</text><text fill="#000000" font-size="12" lengthAdjust="spacingAndGlyphs" textLength="168" x="349.25" y="275.2969">OperationalStatus = ["OK"]</text><text fill="#000000" font-size="12" lengthAdjust="spacingAndGlyphs" textLength="132" x="349.25" y="289.2656">JobState = "Running"</text><rect fill="#FEFECE" filter="url(#f1)" height="64.2344" rx="12.5" ry="12.5" style="stroke: #A80036; stroke-width: 1.5;" width="225" x="543" y="326"/><line style="stroke: #A80036; stroke-width: 1.5;" x1="543" x2="768" y1="352.2969" y2="352.2969"/><text fill="#000000" font-size="14" lengthAdjust="spacingAndGlyphs" textLength="68" x="621.5" y="345">Cancelled</text><text fill="#000000" font-size="12" lengthAdjust="spacingAndGlyphs" textLength="205" x="548" y="369.2969">OperationalStatus = ["Stopped"]</text><text fill="#000000" font-size="12" lengthAdjust="spacingAndGlyphs" textLength="152" x="548" y="383.2656">JobState = "Terminated"</text><rect fill="#FEFECE" filter="url(#f1)" height="64.2344" rx="12.5" ry="12.5" style="stroke: #A80036; stroke-width: 1.5;" width="273" x="6" y="420"/><line style="stroke: #A80036; stroke-width: 1.5;" x1="6" x2="279" y1="446.2969" y2="446.2969"/><text fill="#000000" font-size="14" lengthAdjust="spacingAndGlyphs" textLength="58" x="113.5" y="439">Finished</text><text fill="#000000" font-size="12" lengthAdjust="spacingAndGlyphs" textLength="253" x="11" y="463.2969">OperationalStatus = ["Completed", "OK"]</text><text fill="#000000" font-size="12" lengthAdjust="spacingAndGlyphs" textLength="148" x="11" y="477.2656">JobState = "Completed"</text><rect fill="#FEFECE" filter="url(#f1)" height="64.2344" rx="12.5" ry="12.5" style="stroke: #A80036; stroke-width: 1.5;" width="288" x="314.25" y="420"/><line style="stroke: #A80036; stroke-width: 1.5;" x1="314.25" x2="602.25" y1="446.2969" y2="446.2969"/><text fill="#000000" font-size="14" lengthAdjust="spacingAndGlyphs" textLength="40" x="438.25" y="439">Failed</text><text fill="#000000" font-size="12" lengthAdjust="spacingAndGlyphs" textLength="268" x="319.25" y="463.2969">OperationalStatus = ["Completed", "Error"]</text><text fill="#000000" font-size="12" lengthAdjust="spacingAndGlyphs" textLength="142" x="319.25" y="477.2656">JobState = "Exception"</text><ellipse cx="458.25" cy="556" fill="none" filter="url(#f1)" rx="10" ry="10" style="stroke: #000000; stroke-width: 1.0;"/><ellipse cx="458.75" cy="556.5" fill="#000000" rx="6" ry="6" style="stroke: none; stroke-width: 1.0;"/><path d="M540.25,28.052 C540.25,40.727 540.25,64.494 540.25,84.82 " fill="none" style="stroke: #A80036; stroke-width: 1.0;"/><polygon fill="#A80036" points="540.25,89.905,544.25,80.905,540.25,84.905,536.25,80.905,540.25,89.905" style="stroke: #A80036; stroke-width: 1.0;"/><path d="M504.677,154.102 C495.424,163.191 485.912,173.515 478.25,184 C468.633,197.159 460.122,212.967 453.449,226.974 " fill="none" style="stroke: #A80036; stroke-width: 1.0;"/><polygon fill="#A80036" points="451.258,231.648,458.7006,225.1976,453.3808,227.121,451.4574,221.8012,451.258,231.648" style="stroke: #A80036; stroke-width: 1.0;"/><text fill="#000000" font-size="13" lengthAdjust="spacingAndGlyphs" textLength="96" x="479.25" y="198">(automatically)</text><path d="M562.904,154.271 C569.217,163.61 575.825,174.023 581.25,184 C606.012,229.545 628.511,285.103 642.037,320.759 " fill="none" style="stroke: #A80036; stroke-width: 1.0;"/><polygon fill="#A80036" points="643.966,325.871,644.5305,316.0383,642.2005,321.1931,637.0458,318.8631,643.966,325.871" style="stroke: #A80036; stroke-width: 1.0;"/><text fill="#000000" font-size="13" lengthAdjust="spacingAndGlyphs" textLength="211" x="591.25" y="198">RequestStateChange(Terminate)</text><path d="M371.367,296.045 C353.171,305.133 333.683,315.472 316.25,326 C270.051,353.901 220.323,390.332 185.909,416.659 " fill="none" style="stroke: #A80036; stroke-width: 1.0;"/><polygon fill="#A80036" points="181.789,419.818,191.3647,417.5144,185.7564,416.775,186.4958,411.1667,181.789,419.818" style="stroke: #A80036; stroke-width: 1.0;"/><text fill="#000000" font-size="13" lengthAdjust="spacingAndGlyphs" textLength="96" x="317.25" y="363">(automatically)</text><path d="M429.524,296.243 C423.748,321.788 418.531,358.671 426.25,390 C428.335,398.462 431.826,407.05 435.754,415.005 " fill="none" style="stroke: #A80036; stroke-width: 1.0;"/><polygon fill="#A80036" points="438.247,419.871,437.703,410.0372,435.967,415.4211,430.5831,413.6851,438.247,419.871" style="stroke: #A80036; stroke-width: 1.0;"/><text fill="#000000" font-size="13" lengthAdjust="spacingAndGlyphs" textLength="96" x="427.25" y="363">(automatically)</text><path d="M238.347,484.0188 C312.421,507.9285 408.055,538.7979 443.87,550.3584 " fill="none" style="stroke: #A80036; stroke-width: 1.0;"/><polygon fill="#A80036" points="448.711,551.9209,441.3746,545.3499,443.9527,550.3852,438.9175,552.9632,448.711,551.9209" style="stroke: #A80036; stroke-width: 1.0;"/><path d="M458.25,484.1576 C458.25,502.7771 458.25,525.5771 458.25,540.1936 " fill="none" style="stroke: #A80036; stroke-width: 1.0;"/><polygon fill="#A80036" points="458.25,545.5527,462.25,536.5527,458.25,540.5527,454.25,536.5527,458.25,545.5527" style="stroke: #A80036; stroke-width: 1.0;"/><path d="M653.555,390.244 C650.509,417.892 642.128,457.806 619.25,484 C579.547,529.4574 505.233,547.0389 473.378,552.6965 " fill="none" style="stroke: #A80036; stroke-width: 1.0;"/><polygon fill="#A80036" points="468.291,553.5618,477.8344,555.9957,473.2202,552.7232,476.4927,548.1091,468.291,553.5618" style="stroke: #A80036; stroke-width: 1.0;"/></g></svg>