<?xml version="1.0" encoding="UTF-8" standalone="yes"?><svg xmlns="http://www.w3.org/2000/svg" xmlns:xlink="http://www.w3.org/1999/xlink" height="322pt" style="width:667px;height:322px;" version="1.1" viewBox="0 0 667 322" width="667pt"><defs><filter height="300%" id="f1" width="300%" x="-1" y="-1"><feGaussianBlur result="blurOut" stdDeviation="2"/><feColorMatrix in="blurOut" result="blurOut2" type="matrix" values="0 0 0 0 0 0 0 0 0 0 0 0 0 0 0 0 0 0 .4 0"/><feOffset dx="4" dy="4" in="blurOut2" result="blurOut3"/><feBlend in="SourceGraphic" in2="blurOut3" mode="normal"/></filter></defs><g><rect fill="#FEFECE" filter="url(#f1)" height="60.8906" style="stroke: #A80036; stroke-width: 1.5;" width="391" x="136.75" y="136.5"/><text fill="#000000" font-size="12" lengthAdjust="spacingAndGlyphs" textLength="168" x="248.25" y="150.5">LMI_SoftwareInstallationJob</text><line style="stroke: #A80036; stroke-width: 1.5;" x1="137.75" x2="526.75" y1="154.4688" y2="154.4688"/><text fill="#000000" font-size="10" lengthAdjust="spacingAndGlyphs" textLength="231" x="142.75" y="168.4688">InstanceID = LMI:LMI_SoftwareInstallationJob:2</text><text fill="#000000" font-size="10" lengthAdjust="spacingAndGlyphs" textLength="379" x="142.75" y="180.1094">Description = "Install from software identity sblim-sfcb-0:1.4.5-3.fc20.x86_64"</text><text fill="#000000" font-size="10" lengthAdjust="spacingAndGlyphs" textLength="95" x="142.75" y="191.75">JobState = Running</text><rect fill="#FEFECE" filter="url(#f1)" height="37.6094" style="stroke: #A80036; stroke-width: 1.5;" width="179" x="114.75" y="276"/><text fill="#000000" font-size="12" lengthAdjust="spacingAndGlyphs" textLength="129" x="139.75" y="290">PG_ComputerSystem</text><line style="stroke: #A80036; stroke-width: 1.5;" x1="115.75" x2="292.75" y1="293.9688" y2="293.9688"/><text fill="#000000" font-size="10" lengthAdjust="spacingAndGlyphs" textLength="167" x="120.75" y="307.9688">Name = "hostname.example.org"</text><rect fill="#FEFECE" filter="url(#f1)" height="37.6094" style="stroke: #A80036; stroke-width: 1.5;" width="262" x="329" y="276"/><text fill="#000000" font-size="12" lengthAdjust="spacingAndGlyphs" textLength="186" x="367" y="290">LMI_SystemSoftwareCollection</text><line style="stroke: #A80036; stroke-width: 1.5;" x1="330" x2="590" y1="293.9688" y2="293.9688"/><text fill="#000000" font-size="10" lengthAdjust="spacingAndGlyphs" textLength="250" x="335" y="307.9688">InstanceID = "LMI:LMI_SystemSoftwareCollection"</text><rect fill="#FEFECE" filter="url(#f1)" height="49.25" style="stroke: #A80036; stroke-width: 1.5;" width="342" x="6" y="8.5"/><text fill="#000000" font-size="12" lengthAdjust="spacingAndGlyphs" textLength="166" x="94" y="22.5">LMI_SoftwareMethodResult</text><line style="stroke: #A80036; stroke-width: 1.5;" x1="7" x2="347" y1="26.4688" y2="26.4688"/><text fill="#000000" font-size="10" lengthAdjust="spacingAndGlyphs" textLength="330" x="12" y="40.4688">PreCallIndication = "&lt;embedded instance of CIM_InstMethodCall&gt;"</text><text fill="#000000" font-size="10" lengthAdjust="spacingAndGlyphs" textLength="126" x="12" y="52.1094">PostCallIndication = None</text><rect fill="#FEFECE" filter="url(#f1)" height="33.9688" style="stroke: #A80036; stroke-width: 1.5;" width="208" x="383" y="16"/><text fill="#000000" font-size="12" lengthAdjust="spacingAndGlyphs" textLength="194" x="390" y="30">LMI_SoftwareInstallationService</text><line style="stroke: #A80036; stroke-width: 1.5;" x1="384" x2="590" y1="33.9688" y2="33.9688"/><path d="M172.255,57.521 C170.544,72.726 171.051,92.183 181,106 C189.074,117.214 199.587,126.333 211.309,133.748 " fill="none" style="stroke: #A80036; stroke-width: 1.0;"/><text fill="#000000" font-size="13" lengthAdjust="spacingAndGlyphs" textLength="260" x="182" y="102">LMI_AssociatedSoftwareJobMethodResult</text><path d="M481.51,50.061 C475.412,65.928 464.236,90.071 448,106 C437.022,116.771 423.717,126.046 410.089,133.863 " fill="none" style="stroke: #A80036; stroke-width: 1.0;"/><text fill="#000000" font-size="13" lengthAdjust="spacingAndGlyphs" textLength="202" x="464" y="102">LMI_OwningSoftwareJobElement</text><path d="M237.218,197.637 C224.483,205.543 213.056,215.4951 205,228 C196.946,240.502 196.801,257.2891 198.615,270.8042 " fill="none" style="stroke: #A80036; stroke-width: 1.0;"/><text fill="#000000" font-size="13" lengthAdjust="spacingAndGlyphs" textLength="209" x="206" y="242">LMI_AffectedSoftwareJobElement</text><path d="M384.468,197.746 C397.309,206.478 410.393,216.743 421,228 C432.868,240.5957 442.742,257.4237 449.585,270.9348 " fill="none" style="stroke: #A80036; stroke-width: 1.0;"/><text fill="#000000" font-size="13" lengthAdjust="spacingAndGlyphs" textLength="209" x="436" y="242">LMI_AffectedSoftwareJobElement</text></g></svg>