<?xml version="1.0" encoding="UTF-8" standalone="yes"?><svg xmlns="http://www.w3.org/2000/svg" xmlns:xlink="http://www.w3.org/1999/xlink" height="710pt" style="width:957px;height:710px;" version="1.1" viewBox="0 0 957 710" width="957pt"><defs><filter height="300%" id="f1" width="300%" x="-1" y="-1"><feGaussianBlur result="blurOut" stdDeviation="2"/><feColorMatrix in="blurOut" result="blurOut2" type="matrix" values="0 0 0 0 0 0 0 0 0 0 0 0 0 0 0 0 0 0 .4 0"/><feOffset dx="4" dy="4" in="blurOut2" result="blurOut3"/><feBlend in="SourceGraphic" in2="blurOut3" mode="normal"/></filter></defs><g><rect fill="#FEFECE" filter="url(#f1)" height="58.5625" style="stroke: #A80036; stroke-width: 1.5;" width="486" x="235" y="130.5"/><text fill="#000000" font-family="Courier" font-size="10" lengthAdjust="spacingAndGlyphs" textLength="162" x="397" y="142.5">LMI_SoftwareInstallationJob</text><line style="stroke: #A80036; stroke-width: 1.5;" x1="236" x2="720" y1="146.1406" y2="146.1406"/><text fill="#000000" font-family="Courier" font-size="10" lengthAdjust="spacingAndGlyphs" textLength="276" x="241" y="160.1406">InstanceID = LMI:LMI_SoftwareInstallationJob:2</text><text fill="#000000" font-family="Courier" font-size="10" lengthAdjust="spacingAndGlyphs" textLength="474" x="241" y="171.7813">Description = "Install from software identity sblim-sfcb-0:1.4.5-3.fc20.x86_64"</text><text fill="#000000" font-family="Courier" font-size="10" lengthAdjust="spacingAndGlyphs" textLength="120" x="241" y="183.4219">JobState = Completed</text><rect fill="#FEFECE" filter="url(#f1)" height="35.2813" style="stroke: #A80036; stroke-width: 1.5;" width="186" x="282" y="264.5"/><text fill="#000000" font-family="Courier" font-size="10" lengthAdjust="spacingAndGlyphs" textLength="102" x="324" y="276.5">PG_ComputerSystem</text><line style="stroke: #A80036; stroke-width: 1.5;" x1="283" x2="467" y1="280.1406" y2="280.1406"/><text fill="#000000" font-family="Courier" font-size="10" lengthAdjust="spacingAndGlyphs" textLength="174" x="288" y="294.1406">Name = "hostname.example.org"</text><rect fill="#FEFECE" filter="url(#f1)" height="35.2813" style="stroke: #A80036; stroke-width: 1.5;" width="294" x="441" y="374.5"/><text fill="#000000" font-family="Courier" font-size="10" lengthAdjust="spacingAndGlyphs" textLength="168" x="504" y="386.5">LMI_SystemSoftwareCollection</text><line style="stroke: #A80036; stroke-width: 1.5;" x1="442" x2="734" y1="390.1406" y2="390.1406"/><text fill="#000000" font-family="Courier" font-size="10" lengthAdjust="spacingAndGlyphs" textLength="282" x="447" y="404.1406">InstanceID = "LMI:LMI_SystemSoftwareCollection"</text><rect fill="#FEFECE" filter="url(#f1)" height="46.9219" style="stroke: #A80036; stroke-width: 1.5;" width="396" x="114" y="8.5"/><text fill="#000000" font-family="Courier" font-size="10" lengthAdjust="spacingAndGlyphs" textLength="144" x="240" y="20.5">LMI_SoftwareMethodResult</text><line style="stroke: #A80036; stroke-width: 1.5;" x1="115" x2="509" y1="24.1406" y2="24.1406"/><text fill="#000000" font-family="Courier" font-size="10" lengthAdjust="spacingAndGlyphs" textLength="378" x="120" y="38.1406">PreCallIndication = "&lt;embedded instance of CIM_InstMethodCall&gt;"</text><text fill="#000000" font-family="Courier" font-size="10" lengthAdjust="spacingAndGlyphs" textLength="384" x="120" y="49.7813">PostCallIndication = "&lt;embedded instance of CIM_InstMethodCall&gt;"</text><rect fill="#FEFECE" filter="url(#f1)" height="35.2813" style="stroke: #A80036; stroke-width: 1.5;" width="288" x="6" y="570.5"/><text fill="#000000" font-family="Courier" font-size="10" lengthAdjust="spacingAndGlyphs" textLength="54" x="123" y="582.5">identity1</text><line style="stroke: #A80036; stroke-width: 1.5;" x1="7" x2="293" y1="586.1406" y2="586.1406"/><text fill="#000000" font-family="Courier" font-size="10" lengthAdjust="spacingAndGlyphs" textLength="276" x="12" y="600.1406">ElementName = sblim-sfcb-0:1.4.5-3.fc20.x86_64</text><polygon fill="#FBFB77" filter="url(#f1)" points="46.75,668.5,46.75,701.7813,253.75,701.7813,253.75,678.5,243.75,668.5,46.75,668.5" style="stroke: #A80036; stroke-width: 1.0;"/><polygon fill="#FBFB77" points="46.75,668.5,46.75,701.7813,253.75,701.7813,253.75,678.5,243.75,668.5,154,668.5,150,605.5477,146,668.5,46.75,668.5" style="stroke: #A80036; stroke-width: 1.0;"/><line style="stroke: #A80036; stroke-width: 1.0;" x1="243.75" x2="243.75" y1="668.5" y2="678.5"/><line style="stroke: #A80036; stroke-width: 1.0;" x1="253.75" x2="243.75" y1="678.5" y2="678.5"/><text fill="#000000" font-family="Courier" font-size="10" lengthAdjust="spacingAndGlyphs" textLength="186" x="52.75" y="683.5">Installed identity representing</text><text fill="#000000" font-family="Courier" font-size="10" lengthAdjust="spacingAndGlyphs" textLength="108" x="52.75" y="695.1406">requested package.</text><rect fill="#FEFECE" filter="url(#f1)" height="35.2813" style="stroke: #A80036; stroke-width: 1.5;" width="318" x="292" y="472.5"/><text fill="#000000" font-family="Courier" font-size="10" lengthAdjust="spacingAndGlyphs" textLength="54" x="424" y="484.5">identity2</text><line style="stroke: #A80036; stroke-width: 1.5;" x1="293" x2="609" y1="488.1406" y2="488.1406"/><text fill="#000000" font-family="Courier" font-size="10" lengthAdjust="spacingAndGlyphs" textLength="306" x="298" y="502.1406">ElementName = sblim-sfcCommon-0:1.0.1-2.fc20.x86_64</text><polygon fill="#FBFB77" filter="url(#f1)" points="344.75,571.5,344.75,604.7813,557.75,604.7813,557.75,581.5,547.75,571.5,344.75,571.5" style="stroke: #A80036; stroke-width: 1.0;"/><polygon fill="#FBFB77" points="344.75,571.5,344.75,604.7813,557.75,604.7813,557.75,581.5,547.75,571.5,455,571.5,451,507.722,447,571.5,344.75,571.5" style="stroke: #A80036; stroke-width: 1.0;"/><line style="stroke: #A80036; stroke-width: 1.0;" x1="547.75" x2="547.75" y1="571.5" y2="581.5"/><line style="stroke: #A80036; stroke-width: 1.0;" x1="557.75" x2="547.75" y1="581.5" y2="581.5"/><text fill="#000000" font-family="Courier" font-size="10" lengthAdjust="spacingAndGlyphs" textLength="186" x="350.75" y="586.5">Installed identity representing</text><text fill="#000000" font-family="Courier" font-size="10" lengthAdjust="spacingAndGlyphs" textLength="192" x="350.75" y="598.1406">dependency of installed package.</text><rect fill="#FEFECE" filter="url(#f1)" height="31.6406" style="stroke: #A80036; stroke-width: 1.5;" width="134" x="36" y="474"/><text fill="#000000" font-family="Courier" font-size="10" lengthAdjust="spacingAndGlyphs" textLength="120" x="43" y="486">LMI_SoftwareIdentity</text><line style="stroke: #A80036; stroke-width: 1.5;" x1="37" x2="169" y1="489.6406" y2="489.6406"/><rect fill="#FEFECE" filter="url(#f1)" height="31.6406" style="stroke: #A80036; stroke-width: 1.5;" width="200" x="545" y="16"/><text fill="#000000" font-family="Courier" font-size="10" lengthAdjust="spacingAndGlyphs" textLength="186" x="552" y="28">LMI_SoftwareInstallationService</text><line style="stroke: #A80036; stroke-width: 1.5;" x1="546" x2="744" y1="31.6406" y2="31.6406"/><path d="M119.446,524.591 C127.022,540.066 135.677,557.744 141.836,570.324 " fill="none" style="stroke: #A80036; stroke-width: 1.0;"/><polygon fill="none" points="113.059,527.465,110.551,506.424,125.633,521.309,113.059,527.465" style="stroke: #A80036; stroke-width: 1.0;"/><path d="M190.687,490 C224.368,490 258.049,490 291.729,490 " fill="none" style="stroke: #A80036; stroke-width: 1.0;"/><polygon fill="none" points="190.289,497,170.289,490,190.289,483,190.289,497" style="stroke: #A80036; stroke-width: 1.0;"/><path d="M331.125,55.644 C343.406,69.405 360.161,86.806 377,100 C389.748,109.988 404.355,119.479 418.426,127.813 " fill="none" style="stroke: #A80036; stroke-width: 1.0;"/><text fill="#000000" font-family="Courier" font-size="10" lengthAdjust="spacingAndGlyphs" textLength="222" x="378" y="97">LMI_AssociatedSoftwareJobMethodResult</text><path d="M639.383,48.088 C633.185,62.964 621.935,85.515 606,100 C593.857,111.038 579.293,120.342 564.408,128.062 " fill="none" style="stroke: #A80036; stroke-width: 1.0;"/><text fill="#000000" font-family="Courier" font-size="10" lengthAdjust="spacingAndGlyphs" textLength="168" x="618" y="97">LMI_OwningSoftwareJobElement</text><path d="M402.473,189.572 C390.299,197.557 379.311,207.563 372,220 C365.135,231.677 365.869,246.89 368.327,259.203 " fill="none" style="stroke: #A80036; stroke-width: 1.0;"/><text fill="#000000" font-family="Courier" font-size="10" lengthAdjust="spacingAndGlyphs" textLength="180" x="373" y="231">LMI_AffectedSoftwareJobElement</text><path d="M529.82,189.539 C541.012,197.97 551.67,208.168 559,220 C588.126,267.016 590.386,334.592 589.338,369.023 " fill="none" style="stroke: #A80036; stroke-width: 1.0;"/><text fill="#000000" font-family="Courier" font-size="10" lengthAdjust="spacingAndGlyphs" textLength="180" x="586" y="286">LMI_AffectedSoftwareJobElement</text><path d="M299.854,189.513 C256.834,207.066 223,235.375 223,281 C223,281 223,281 223,491 C223,522.211 198.25,549.623 177.572,567.079 " fill="none" style="stroke: #A80036; stroke-width: 1.0;"/><text fill="#000000" font-family="Courier" font-size="10" lengthAdjust="spacingAndGlyphs" textLength="180" x="224" y="396">LMI_AffectedSoftwareJobElement</text><path d="M670.855,189.537 C711.961,204.9 750.591,228.334 776,264 C785.284,277.031 777.646,284.085 776,300 C770.862,349.681 787.428,373.816 753,410 C727.144,437.175 640.948,458.06 567.227,471.512 " fill="none" style="stroke: #A80036; stroke-width: 1.0;"/><text fill="#000000" font-family="Courier" font-size="10" lengthAdjust="spacingAndGlyphs" textLength="180" x="776" y="341">LMI_AffectedSoftwareJobElement</text></g></svg>