<?xml version="1.0" encoding="UTF-8" standalone="yes"?><svg xmlns="http://www.w3.org/2000/svg" xmlns:xlink="http://www.w3.org/1999/xlink" height="773pt" style="width:1020px;height:773px;" version="1.1" viewBox="0 0 1020 773" width="1020pt"><defs><filter height="300%" id="f1" width="300%" x="-1" y="-1"><feGaussianBlur result="blurOut" stdDeviation="2.0"/><feColorMatrix in="blurOut" result="blurOut2" type="matrix" values="0 0 0 0 0 0 0 0 0 0 0 0 0 0 0 0 0 0 .4 0"/><feOffset dx="4.0" dy="4.0" in="blurOut2" result="blurOut3"/><feBlend in="SourceGraphic" in2="blurOut3" mode="normal"/></filter></defs><g><rect fill="#FEFECE" filter="url(#f1)" height="44" style="stroke: #A80036; stroke-width: 1.5;" width="136" x="240" y="8"/><ellipse cx="253" cy="22" fill="#ADD1B2" rx="9" ry="9" style="stroke: #A80036; stroke-width: 1.0;"/><path d="M254.4688,19.375 C253.9219,19.1094 253.5625,19.0313 253.0469,19.0313 C251.5156,19.0313 250.3281,20.25 250.3281,21.8438 L250.3281,22.5156 C250.3281,24.0313 251.5625,25.1406 253.2656,25.1406 C253.9844,25.1406 254.6719,24.9531 255.1094,24.6406 C255.4531,24.4063 255.6406,24.1406 255.6406,23.9063 C255.6406,23.6406 255.4063,23.4063 255.1406,23.4063 C255.0156,23.4063 254.8906,23.4531 254.7813,23.5625 C254.5156,23.8438 254.5156,23.8438 254.4063,23.9063 C254.1563,24.0625 253.75,24.1406 253.2969,24.1406 C252.0938,24.1406 251.3281,23.4844 251.3281,22.4844 L251.3281,21.8438 C251.3281,20.7969 252.0625,20.0313 253.0938,20.0313 C253.4375,20.0313 253.7969,20.125 254.0625,20.2656 C254.3438,20.4375 254.4531,20.5625 254.5,20.7969 C254.5469,21.0469 254.5625,21.1094 254.6406,21.1875 C254.7188,21.2656 254.8594,21.3281 254.9844,21.3281 C255.1563,21.3281 255.2969,21.25 255.4063,21.125 C255.4688,21.0313 255.4844,20.9219 255.4844,20.6719 L255.4844,19.8281 C255.4844,19.5781 255.4844,19.5 255.4219,19.4063 C255.3281,19.2656 255.1719,19.1719 254.9844,19.1719 C254.8125,19.1719 254.7031,19.2344 254.5625,19.4063 L254.4688,19.375 Z "/><text fill="#000000" font-family="Courier" font-size="10" lengthAdjust="spacingAndGlyphs" textLength="108" x="265" y="26">CIM_ComputerSystem</text><line style="stroke: #A80036; stroke-width: 1.5;" x1="241" x2="375" y1="36" y2="36"/><line style="stroke: #A80036; stroke-width: 1.5;" x1="241" x2="375" y1="44" y2="44"/><rect fill="#FEFECE" filter="url(#f1)" height="44" style="stroke: #A80036; stroke-width: 1.5;" width="136" x="597" y="464"/><ellipse cx="610" cy="478" fill="#ADD1B2" rx="9" ry="9" style="stroke: #A80036; stroke-width: 1.0;"/><path d="M611.4688,475.375 C610.9219,475.1094 610.5625,475.0313 610.0469,475.0313 C608.5156,475.0313 607.3281,476.25 607.3281,477.8438 L607.3281,478.5156 C607.3281,480.0313 608.5625,481.1406 610.2656,481.1406 C610.9844,481.1406 611.6719,480.9531 612.1094,480.6406 C612.4531,480.4063 612.6406,480.1406 612.6406,479.9063 C612.6406,479.6406 612.4063,479.4063 612.1406,479.4063 C612.0156,479.4063 611.8906,479.4531 611.7813,479.5625 C611.5156,479.8438 611.5156,479.8438 611.4063,479.9063 C611.1563,480.0625 610.75,480.1406 610.2969,480.1406 C609.0938,480.1406 608.3281,479.4844 608.3281,478.4844 L608.3281,477.8438 C608.3281,476.7969 609.0625,476.0313 610.0938,476.0313 C610.4375,476.0313 610.7969,476.125 611.0625,476.2656 C611.3438,476.4375 611.4531,476.5625 611.5,476.7969 C611.5469,477.0469 611.5625,477.1094 611.6406,477.1875 C611.7188,477.2656 611.8594,477.3281 611.9844,477.3281 C612.1563,477.3281 612.2969,477.25 612.4063,477.125 C612.4688,477.0313 612.4844,476.9219 612.4844,476.6719 L612.4844,475.8281 C612.4844,475.5781 612.4844,475.5 612.4219,475.4063 C612.3281,475.2656 612.1719,475.1719 611.9844,475.1719 C611.8125,475.1719 611.7031,475.2344 611.5625,475.4063 L611.4688,475.375 Z "/><text fill="#000000" font-family="Courier" font-size="10" lengthAdjust="spacingAndGlyphs" textLength="108" x="622" y="482">CIM_ManagedElement</text><line style="stroke: #A80036; stroke-width: 1.5;" x1="598" x2="732" y1="492" y2="492"/><line style="stroke: #A80036; stroke-width: 1.5;" x1="598" x2="732" y1="500" y2="500"/><rect fill="#FEFECE" filter="url(#f1)" height="44" style="stroke: #A80036; stroke-width: 1.5;" width="136" x="597" y="580"/><ellipse cx="610" cy="594" fill="#1E90FF" rx="9" ry="9" style="stroke: #A80036; stroke-width: 1.0;"/><path d="M611.4688,591.375 C610.9219,591.1094 610.5625,591.0313 610.0469,591.0313 C608.5156,591.0313 607.3281,592.25 607.3281,593.8438 L607.3281,594.5156 C607.3281,596.0313 608.5625,597.1406 610.2656,597.1406 C610.9844,597.1406 611.6719,596.9531 612.1094,596.6406 C612.4531,596.4063 612.6406,596.1406 612.6406,595.9063 C612.6406,595.6406 612.4063,595.4063 612.1406,595.4063 C612.0156,595.4063 611.8906,595.4531 611.7813,595.5625 C611.5156,595.8438 611.5156,595.8438 611.4063,595.9063 C611.1563,596.0625 610.75,596.1406 610.2969,596.1406 C609.0938,596.1406 608.3281,595.4844 608.3281,594.4844 L608.3281,593.8438 C608.3281,592.7969 609.0625,592.0313 610.0938,592.0313 C610.4375,592.0313 610.7969,592.125 611.0625,592.2656 C611.3438,592.4375 611.4531,592.5625 611.5,592.7969 C611.5469,593.0469 611.5625,593.1094 611.6406,593.1875 C611.7188,593.2656 611.8594,593.3281 611.9844,593.3281 C612.1563,593.3281 612.2969,593.25 612.4063,593.125 C612.4688,593.0313 612.4844,592.9219 612.4844,592.6719 L612.4844,591.8281 C612.4844,591.5781 612.4844,591.5 612.4219,591.4063 C612.3281,591.2656 612.1719,591.1719 611.9844,591.1719 C611.8125,591.1719 611.7031,591.2344 611.5625,591.4063 L611.4688,591.375 Z "/><text fill="#000000" font-family="Courier" font-size="10" lengthAdjust="spacingAndGlyphs" textLength="108" x="622" y="598">LMI_SELinuxElement</text><line style="stroke: #A80036; stroke-width: 1.5;" x1="598" x2="732" y1="608" y2="608"/><line style="stroke: #A80036; stroke-width: 1.5;" x1="598" x2="732" y1="616" y2="616"/><rect fill="#FEFECE" filter="url(#f1)" height="68" style="stroke: #A80036; stroke-width: 1.5;" width="138" x="508" y="690"/><ellipse cx="521.9" cy="704" fill="#1E90FF" rx="9" ry="9" style="stroke: #A80036; stroke-width: 1.0;"/><path d="M523.3688,701.375 C522.8219,701.1094 522.4625,701.0313 521.9469,701.0313 C520.4156,701.0313 519.2281,702.25 519.2281,703.8438 L519.2281,704.5156 C519.2281,706.0313 520.4625,707.1406 522.1656,707.1406 C522.8844,707.1406 523.5719,706.9531 524.0094,706.6406 C524.3531,706.4063 524.5406,706.1406 524.5406,705.9063 C524.5406,705.6406 524.3063,705.4063 524.0406,705.4063 C523.9156,705.4063 523.7906,705.4531 523.6813,705.5625 C523.4156,705.8438 523.4156,705.8438 523.3063,705.9063 C523.0563,706.0625 522.65,706.1406 522.1969,706.1406 C520.9938,706.1406 520.2281,705.4844 520.2281,704.4844 L520.2281,703.8438 C520.2281,702.7969 520.9625,702.0313 521.9938,702.0313 C522.3375,702.0313 522.6969,702.125 522.9625,702.2656 C523.2438,702.4375 523.3531,702.5625 523.4,702.7969 C523.4469,703.0469 523.4625,703.1094 523.5406,703.1875 C523.6188,703.2656 523.7594,703.3281 523.8844,703.3281 C524.0563,703.3281 524.1969,703.25 524.3063,703.125 C524.3688,703.0313 524.3844,702.9219 524.3844,702.6719 L524.3844,701.8281 C524.3844,701.5781 524.3844,701.5 524.3219,701.4063 C524.2281,701.2656 524.0719,701.1719 523.8844,701.1719 C523.7125,701.1719 523.6031,701.2344 523.4625,701.4063 L523.3688,701.375 Z "/><text fill="#000000" font-family="Courier" font-size="10" lengthAdjust="spacingAndGlyphs" textLength="108" x="534.1" y="708">LMI_SELinuxBoolean</text><line style="stroke: #A80036; stroke-width: 1.5;" x1="509" x2="645" y1="718" y2="718"/><text fill="#000000" font-family="Courier" font-size="10" lengthAdjust="spacingAndGlyphs" textLength="84" x="514" y="732">State: boolean</text><text fill="#000000" font-family="Courier" font-size="10" lengthAdjust="spacingAndGlyphs" textLength="126" x="514" y="744">DefaultState: boolean</text><line style="stroke: #A80036; stroke-width: 1.5;" x1="509" x2="645" y1="750" y2="750"/><rect fill="#FEFECE" filter="url(#f1)" height="80" style="stroke: #A80036; stroke-width: 1.5;" width="144" x="681" y="684"/><ellipse cx="705.7" cy="698" fill="#1E90FF" rx="9" ry="9" style="stroke: #A80036; stroke-width: 1.0;"/><path d="M707.1688,695.375 C706.6219,695.1094 706.2625,695.0313 705.7469,695.0313 C704.2156,695.0313 703.0281,696.25 703.0281,697.8438 L703.0281,698.5156 C703.0281,700.0313 704.2625,701.1406 705.9656,701.1406 C706.6844,701.1406 707.3719,700.9531 707.8094,700.6406 C708.1531,700.4063 708.3406,700.1406 708.3406,699.9063 C708.3406,699.6406 708.1063,699.4063 707.8406,699.4063 C707.7156,699.4063 707.5906,699.4531 707.4813,699.5625 C707.2156,699.8438 707.2156,699.8438 707.1063,699.9063 C706.8563,700.0625 706.45,700.1406 705.9969,700.1406 C704.7938,700.1406 704.0281,699.4844 704.0281,698.4844 L704.0281,697.8438 C704.0281,696.7969 704.7625,696.0313 705.7938,696.0313 C706.1375,696.0313 706.4969,696.125 706.7625,696.2656 C707.0438,696.4375 707.1531,696.5625 707.2,696.7969 C707.2469,697.0469 707.2625,697.1094 707.3406,697.1875 C707.4188,697.2656 707.5594,697.3281 707.6844,697.3281 C707.8563,697.3281 707.9969,697.25 708.1063,697.125 C708.1688,697.0313 708.1844,696.9219 708.1844,696.6719 L708.1844,695.8281 C708.1844,695.5781 708.1844,695.5 708.1219,695.4063 C708.0281,695.2656 707.8719,695.1719 707.6844,695.1719 C707.5125,695.1719 707.4031,695.2344 707.2625,695.4063 L707.1688,695.375 Z "/><text fill="#000000" font-family="Courier" font-size="10" lengthAdjust="spacingAndGlyphs" textLength="90" x="720.3" y="702">LMI_SELinuxPort</text><line style="stroke: #A80036; stroke-width: 1.5;" x1="682" x2="824" y1="712" y2="712"/><text fill="#000000" font-family="Courier" font-size="10" lengthAdjust="spacingAndGlyphs" textLength="132" x="687" y="726">SELinuxContext: string</text><text fill="#000000" font-family="Courier" font-size="10" lengthAdjust="spacingAndGlyphs" textLength="96" x="687" y="738">Protocol: uint16</text><text fill="#000000" font-family="Courier" font-size="10" lengthAdjust="spacingAndGlyphs" textLength="90" x="687" y="750">Ports: string[]</text><line style="stroke: #A80036; stroke-width: 1.5;" x1="682" x2="824" y1="756" y2="756"/><rect fill="#FEFECE" filter="url(#f1)" height="44" style="stroke: #A80036; stroke-width: 1.5;" width="100" x="411" y="8"/><ellipse cx="424" cy="22" fill="#ADD1B2" rx="9" ry="9" style="stroke: #A80036; stroke-width: 1.0;"/><path d="M425.4688,19.375 C424.9219,19.1094 424.5625,19.0313 424.0469,19.0313 C422.5156,19.0313 421.3281,20.25 421.3281,21.8438 L421.3281,22.5156 C421.3281,24.0313 422.5625,25.1406 424.2656,25.1406 C424.9844,25.1406 425.6719,24.9531 426.1094,24.6406 C426.4531,24.4063 426.6406,24.1406 426.6406,23.9063 C426.6406,23.6406 426.4063,23.4063 426.1406,23.4063 C426.0156,23.4063 425.8906,23.4531 425.7813,23.5625 C425.5156,23.8438 425.5156,23.8438 425.4063,23.9063 C425.1563,24.0625 424.75,24.1406 424.2969,24.1406 C423.0938,24.1406 422.3281,23.4844 422.3281,22.4844 L422.3281,21.8438 C422.3281,20.7969 423.0625,20.0313 424.0938,20.0313 C424.4375,20.0313 424.7969,20.125 425.0625,20.2656 C425.3438,20.4375 425.4531,20.5625 425.5,20.7969 C425.5469,21.0469 425.5625,21.1094 425.6406,21.1875 C425.7188,21.2656 425.8594,21.3281 425.9844,21.3281 C426.1563,21.3281 426.2969,21.25 426.4063,21.125 C426.4688,21.0313 426.4844,20.9219 426.4844,20.6719 L426.4844,19.8281 C426.4844,19.5781 426.4844,19.5 426.4219,19.4063 C426.3281,19.2656 426.1719,19.1719 425.9844,19.1719 C425.8125,19.1719 425.7031,19.2344 425.5625,19.4063 L425.4688,19.375 Z "/><text fill="#000000" font-family="Courier" font-size="10" lengthAdjust="spacingAndGlyphs" textLength="72" x="436" y="26">LMI_UnixFile</text><line style="stroke: #A80036; stroke-width: 1.5;" x1="412" x2="510" y1="36" y2="36"/><line style="stroke: #A80036; stroke-width: 1.5;" x1="412" x2="510" y1="44" y2="44"/><rect fill="#FEFECE" filter="url(#f1)" height="44" style="stroke: #A80036; stroke-width: 1.5;" width="94" x="552" y="112"/><ellipse cx="565" cy="126" fill="#ADD1B2" rx="9" ry="9" style="stroke: #A80036; stroke-width: 1.0;"/><path d="M566.4688,123.375 C565.9219,123.1094 565.5625,123.0313 565.0469,123.0313 C563.5156,123.0313 562.3281,124.25 562.3281,125.8438 L562.3281,126.5156 C562.3281,128.0313 563.5625,129.1406 565.2656,129.1406 C565.9844,129.1406 566.6719,128.9531 567.1094,128.6406 C567.4531,128.4063 567.6406,128.1406 567.6406,127.9063 C567.6406,127.6406 567.4063,127.4063 567.1406,127.4063 C567.0156,127.4063 566.8906,127.4531 566.7813,127.5625 C566.5156,127.8438 566.5156,127.8438 566.4063,127.9063 C566.1563,128.0625 565.75,128.1406 565.2969,128.1406 C564.0938,128.1406 563.3281,127.4844 563.3281,126.4844 L563.3281,125.8438 C563.3281,124.7969 564.0625,124.0313 565.0938,124.0313 C565.4375,124.0313 565.7969,124.125 566.0625,124.2656 C566.3438,124.4375 566.4531,124.5625 566.5,124.7969 C566.5469,125.0469 566.5625,125.1094 566.6406,125.1875 C566.7188,125.2656 566.8594,125.3281 566.9844,125.3281 C567.1563,125.3281 567.2969,125.25 567.4063,125.125 C567.4688,125.0313 567.4844,124.9219 567.4844,124.6719 L567.4844,123.8281 C567.4844,123.5781 567.4844,123.5 567.4219,123.4063 C567.3281,123.2656 567.1719,123.1719 566.9844,123.1719 C566.8125,123.1719 566.7031,123.2344 566.5625,123.4063 L566.4688,123.375 Z "/><text fill="#000000" font-family="Courier" font-size="10" lengthAdjust="spacingAndGlyphs" textLength="66" x="577" y="130">CIM_Service</text><line style="stroke: #A80036; stroke-width: 1.5;" x1="553" x2="645" y1="140" y2="140"/><line style="stroke: #A80036; stroke-width: 1.5;" x1="553" x2="645" y1="148" y2="148"/><rect fill="#FEFECE" filter="url(#f1)" height="176" style="stroke: #A80036; stroke-width: 1.5;" width="606" x="6" y="216"/><ellipse cx="251.25" cy="230" fill="#1E90FF" rx="9" ry="9" style="stroke: #A80036; stroke-width: 1.0;"/><path d="M252.7188,227.375 C252.1719,227.1094 251.8125,227.0313 251.2969,227.0313 C249.7656,227.0313 248.5781,228.25 248.5781,229.8438 L248.5781,230.5156 C248.5781,232.0313 249.8125,233.1406 251.5156,233.1406 C252.2344,233.1406 252.9219,232.9531 253.3594,232.6406 C253.7031,232.4063 253.8906,232.1406 253.8906,231.9063 C253.8906,231.6406 253.6563,231.4063 253.3906,231.4063 C253.2656,231.4063 253.1406,231.4531 253.0313,231.5625 C252.7656,231.8438 252.7656,231.8438 252.6563,231.9063 C252.4063,232.0625 252,232.1406 251.5469,232.1406 C250.3438,232.1406 249.5781,231.4844 249.5781,230.4844 L249.5781,229.8438 C249.5781,228.7969 250.3125,228.0313 251.3438,228.0313 C251.6875,228.0313 252.0469,228.125 252.3125,228.2656 C252.5938,228.4375 252.7031,228.5625 252.75,228.7969 C252.7969,229.0469 252.8125,229.1094 252.8906,229.1875 C252.9688,229.2656 253.1094,229.3281 253.2344,229.3281 C253.4063,229.3281 253.5469,229.25 253.6563,229.125 C253.7188,229.0313 253.7344,228.9219 253.7344,228.6719 L253.7344,227.8281 C253.7344,227.5781 253.7344,227.5 253.6719,227.4063 C253.5781,227.2656 253.4219,227.1719 253.2344,227.1719 C253.0625,227.1719 252.9531,227.2344 252.8125,227.4063 L252.7188,227.375 Z "/><text fill="#000000" font-family="Courier" font-size="10" lengthAdjust="spacingAndGlyphs" textLength="108" x="268.75" y="234">LMI_SELinuxService</text><line style="stroke: #A80036; stroke-width: 1.5;" x1="7" x2="611" y1="244" y2="244"/><text fill="#000000" font-family="Courier" font-size="10" lengthAdjust="spacingAndGlyphs" textLength="120" x="12" y="258">SELinuxState: uint16</text><text fill="#000000" font-family="Courier" font-size="10" lengthAdjust="spacingAndGlyphs" textLength="162" x="12" y="270">SELinuxDefaultState: uint16</text><text fill="#000000" font-family="Courier" font-size="10" lengthAdjust="spacingAndGlyphs" textLength="108" x="12" y="282">PolicyType: string</text><text fill="#000000" font-family="Courier" font-size="10" lengthAdjust="spacingAndGlyphs" textLength="126" x="12" y="294">PolicyVersion: uint32</text><line style="stroke: #A80036; stroke-width: 1.0;" x1="7" x2="611" y1="300" y2="300"/><ellipse cx="17" cy="311.5" fill="#84BE84" rx="3" ry="3" style="stroke: #038048; stroke-width: 1.0;"/><text fill="#000000" font-family="Courier" font-size="10" lengthAdjust="spacingAndGlyphs" textLength="438" x="24" y="314">SetSELinuxState(uint16 NewState, boolean MakeDefault): ref LMI_SELinuxJob</text><line style="stroke: #A80036; stroke-width: 1.0; stroke-dasharray: 1.0,2.0;" x1="7" x2="611" y1="320" y2="320"/><ellipse cx="17" cy="331.5" fill="#84BE84" rx="3" ry="3" style="stroke: #038048; stroke-width: 1.0;"/><text fill="#000000" font-family="Courier" font-size="10" lengthAdjust="spacingAndGlyphs" textLength="468" x="24" y="334">SetPortLabel(ref LMI_SELinuxPort Target, string PortRange): ref LMI_SELinuxJob</text><ellipse cx="17" cy="343.5" fill="#84BE84" rx="3" ry="3" style="stroke: #038048; stroke-width: 1.0;"/><text fill="#000000" font-family="Courier" font-size="10" lengthAdjust="spacingAndGlyphs" textLength="426" x="24" y="346">SetFileLabel(ref LMI_UnixFile Target, string Label): ref LMI_SELinuxJob</text><line style="stroke: #A80036; stroke-width: 1.0; stroke-dasharray: 1.0,2.0;" x1="7" x2="611" y1="352" y2="352"/><ellipse cx="17" cy="363.5" fill="#84BE84" rx="3" ry="3" style="stroke: #038048; stroke-width: 1.0;"/><text fill="#000000" font-family="Courier" font-size="10" lengthAdjust="spacingAndGlyphs" textLength="582" x="24" y="366">SetBoolean(ref LMI_SELinuxBoolean Target, boolean Value, boolean MakeDefault): ref LMI_SELinuxJob</text><line style="stroke: #A80036; stroke-width: 1.0; stroke-dasharray: 1.0,2.0;" x1="7" x2="611" y1="372" y2="372"/><ellipse cx="17" cy="383.5" fill="#84BE84" rx="3" ry="3" style="stroke: #038048; stroke-width: 1.0;"/><text fill="#000000" font-family="Courier" font-size="10" lengthAdjust="spacingAndGlyphs" textLength="570" x="24" y="386">RestoreLabels(ref LMI_UnixFile Target, uint16 Action, boolean Recursively) : ref LMI_SELinuxJob</text><rect fill="#FEFECE" filter="url(#f1)" height="44" style="stroke: #A80036; stroke-width: 1.5;" width="118" x="696" y="112"/><ellipse cx="709" cy="126" fill="#ADD1B2" rx="9" ry="9" style="stroke: #A80036; stroke-width: 1.0;"/><path d="M710.4688,123.375 C709.9219,123.1094 709.5625,123.0313 709.0469,123.0313 C707.5156,123.0313 706.3281,124.25 706.3281,125.8438 L706.3281,126.5156 C706.3281,128.0313 707.5625,129.1406 709.2656,129.1406 C709.9844,129.1406 710.6719,128.9531 711.1094,128.6406 C711.4531,128.4063 711.6406,128.1406 711.6406,127.9063 C711.6406,127.6406 711.4063,127.4063 711.1406,127.4063 C711.0156,127.4063 710.8906,127.4531 710.7813,127.5625 C710.5156,127.8438 710.5156,127.8438 710.4063,127.9063 C710.1563,128.0625 709.75,128.1406 709.2969,128.1406 C708.0938,128.1406 707.3281,127.4844 707.3281,126.4844 L707.3281,125.8438 C707.3281,124.7969 708.0625,124.0313 709.0938,124.0313 C709.4375,124.0313 709.7969,124.125 710.0625,124.2656 C710.3438,124.4375 710.4531,124.5625 710.5,124.7969 C710.5469,125.0469 710.5625,125.1094 710.6406,125.1875 C710.7188,125.2656 710.8594,125.3281 710.9844,125.3281 C711.1563,125.3281 711.2969,125.25 711.4063,125.125 C711.4688,125.0313 711.4844,124.9219 711.4844,124.6719 L711.4844,123.8281 C711.4844,123.5781 711.4844,123.5 711.4219,123.4063 C711.3281,123.2656 711.1719,123.1719 710.9844,123.1719 C710.8125,123.1719 710.7031,123.2344 710.5625,123.4063 L710.4688,123.375 Z "/><text fill="#000000" font-family="Courier" font-size="10" lengthAdjust="spacingAndGlyphs" textLength="90" x="721" y="130">LMI_ConcreteJob</text><line style="stroke: #A80036; stroke-width: 1.5;" x1="697" x2="813" y1="140" y2="140"/><line style="stroke: #A80036; stroke-width: 1.5;" x1="697" x2="813" y1="148" y2="148"/><rect fill="#FEFECE" filter="url(#f1)" height="44" style="stroke: #A80036; stroke-width: 1.5;" width="112" x="699" y="282"/><ellipse cx="712" cy="296" fill="#1E90FF" rx="9" ry="9" style="stroke: #A80036; stroke-width: 1.0;"/><path d="M713.4688,293.375 C712.9219,293.1094 712.5625,293.0313 712.0469,293.0313 C710.5156,293.0313 709.3281,294.25 709.3281,295.8438 L709.3281,296.5156 C709.3281,298.0313 710.5625,299.1406 712.2656,299.1406 C712.9844,299.1406 713.6719,298.9531 714.1094,298.6406 C714.4531,298.4063 714.6406,298.1406 714.6406,297.9063 C714.6406,297.6406 714.4063,297.4063 714.1406,297.4063 C714.0156,297.4063 713.8906,297.4531 713.7813,297.5625 C713.5156,297.8438 713.5156,297.8438 713.4063,297.9063 C713.1563,298.0625 712.75,298.1406 712.2969,298.1406 C711.0938,298.1406 710.3281,297.4844 710.3281,296.4844 L710.3281,295.8438 C710.3281,294.7969 711.0625,294.0313 712.0938,294.0313 C712.4375,294.0313 712.7969,294.125 713.0625,294.2656 C713.3438,294.4375 713.4531,294.5625 713.5,294.7969 C713.5469,295.0469 713.5625,295.1094 713.6406,295.1875 C713.7188,295.2656 713.8594,295.3281 713.9844,295.3281 C714.1563,295.3281 714.2969,295.25 714.4063,295.125 C714.4688,295.0313 714.4844,294.9219 714.4844,294.6719 L714.4844,293.8281 C714.4844,293.5781 714.4844,293.5 714.4219,293.4063 C714.3281,293.2656 714.1719,293.1719 713.9844,293.1719 C713.8125,293.1719 713.7031,293.2344 713.5625,293.4063 L713.4688,293.375 Z "/><text fill="#000000" font-family="Courier" font-size="10" lengthAdjust="spacingAndGlyphs" textLength="84" x="724" y="300">LMI_SELinuxJob</text><line style="stroke: #A80036; stroke-width: 1.5;" x1="700" x2="810" y1="310" y2="310"/><line style="stroke: #A80036; stroke-width: 1.5;" x1="700" x2="810" y1="318" y2="318"/><rect fill="#FEFECE" filter="url(#f1)" height="44" style="stroke: #A80036; stroke-width: 1.5;" width="160" x="846" y="282"/><ellipse cx="859" cy="296" fill="#ADD1B2" rx="9" ry="9" style="stroke: #A80036; stroke-width: 1.0;"/><path d="M860.4688,293.375 C859.9219,293.1094 859.5625,293.0313 859.0469,293.0313 C857.5156,293.0313 856.3281,294.25 856.3281,295.8438 L856.3281,296.5156 C856.3281,298.0313 857.5625,299.1406 859.2656,299.1406 C859.9844,299.1406 860.6719,298.9531 861.1094,298.6406 C861.4531,298.4063 861.6406,298.1406 861.6406,297.9063 C861.6406,297.6406 861.4063,297.4063 861.1406,297.4063 C861.0156,297.4063 860.8906,297.4531 860.7813,297.5625 C860.5156,297.8438 860.5156,297.8438 860.4063,297.9063 C860.1563,298.0625 859.75,298.1406 859.2969,298.1406 C858.0938,298.1406 857.3281,297.4844 857.3281,296.4844 L857.3281,295.8438 C857.3281,294.7969 858.0625,294.0313 859.0938,294.0313 C859.4375,294.0313 859.7969,294.125 860.0625,294.2656 C860.3438,294.4375 860.4531,294.5625 860.5,294.7969 C860.5469,295.0469 860.5625,295.1094 860.6406,295.1875 C860.7188,295.2656 860.8594,295.3281 860.9844,295.3281 C861.1563,295.3281 861.2969,295.25 861.4063,295.125 C861.4688,295.0313 861.4844,294.9219 861.4844,294.6719 L861.4844,293.8281 C861.4844,293.5781 861.4844,293.5 861.4219,293.4063 C861.3281,293.2656 861.1719,293.1719 860.9844,293.1719 C860.8125,293.1719 860.7031,293.2344 860.5625,293.4063 L860.4688,293.375 Z "/><text fill="#000000" font-family="Courier" font-size="10" lengthAdjust="spacingAndGlyphs" textLength="132" x="871" y="300">CIM_AffectedJobElement</text><line style="stroke: #A80036; stroke-width: 1.5;" x1="847" x2="1005" y1="310" y2="310"/><line style="stroke: #A80036; stroke-width: 1.5;" x1="847" x2="1005" y1="318" y2="318"/><rect fill="#FEFECE" filter="url(#f1)" height="44" style="stroke: #A80036; stroke-width: 1.5;" width="202" x="809" y="464"/><ellipse cx="822" cy="478" fill="#1E90FF" rx="9" ry="9" style="stroke: #A80036; stroke-width: 1.0;"/><path d="M823.4688,475.375 C822.9219,475.1094 822.5625,475.0313 822.0469,475.0313 C820.5156,475.0313 819.3281,476.25 819.3281,477.8438 L819.3281,478.5156 C819.3281,480.0313 820.5625,481.1406 822.2656,481.1406 C822.9844,481.1406 823.6719,480.9531 824.1094,480.6406 C824.4531,480.4063 824.6406,480.1406 824.6406,479.9063 C824.6406,479.6406 824.4063,479.4063 824.1406,479.4063 C824.0156,479.4063 823.8906,479.4531 823.7813,479.5625 C823.5156,479.8438 823.5156,479.8438 823.4063,479.9063 C823.1563,480.0625 822.75,480.1406 822.2969,480.1406 C821.0938,480.1406 820.3281,479.4844 820.3281,478.4844 L820.3281,477.8438 C820.3281,476.7969 821.0625,476.0313 822.0938,476.0313 C822.4375,476.0313 822.7969,476.125 823.0625,476.2656 C823.3438,476.4375 823.4531,476.5625 823.5,476.7969 C823.5469,477.0469 823.5625,477.1094 823.6406,477.1875 C823.7188,477.2656 823.8594,477.3281 823.9844,477.3281 C824.1563,477.3281 824.2969,477.25 824.4063,477.125 C824.4688,477.0313 824.4844,476.9219 824.4844,476.6719 L824.4844,475.8281 C824.4844,475.5781 824.4844,475.5 824.4219,475.4063 C824.3281,475.2656 824.1719,475.1719 823.9844,475.1719 C823.8125,475.1719 823.7031,475.2344 823.5625,475.4063 L823.4688,475.375 Z "/><text fill="#000000" font-family="Courier" font-size="10" lengthAdjust="spacingAndGlyphs" textLength="174" x="834" y="482">LMI_AffectedSELinuxJobElement</text><line style="stroke: #A80036; stroke-width: 1.5;" x1="810" x2="1010" y1="492" y2="492"/><line style="stroke: #A80036; stroke-width: 1.5;" x1="810" x2="1010" y1="500" y2="500"/><ellipse cx="770" cy="486" fill="#000000" rx="2" ry="2" style="stroke: none; stroke-width: 1.0;"/><rect fill="#FEFECE" filter="url(#f1)" height="68" style="stroke: #A80036; stroke-width: 1.5;" width="216" x="346" y="452"/><ellipse cx="368" cy="466" fill="#1E90FF" rx="9" ry="9" style="stroke: #A80036; stroke-width: 1.0;"/><path d="M369.4688,463.375 C368.9219,463.1094 368.5625,463.0313 368.0469,463.0313 C366.5156,463.0313 365.3281,464.25 365.3281,465.8438 L365.3281,466.5156 C365.3281,468.0313 366.5625,469.1406 368.2656,469.1406 C368.9844,469.1406 369.6719,468.9531 370.1094,468.6406 C370.4531,468.4063 370.6406,468.1406 370.6406,467.9063 C370.6406,467.6406 370.4063,467.4063 370.1406,467.4063 C370.0156,467.4063 369.8906,467.4531 369.7813,467.5625 C369.5156,467.8438 369.5156,467.8438 369.4063,467.9063 C369.1563,468.0625 368.75,468.1406 368.2969,468.1406 C367.0938,468.1406 366.3281,467.4844 366.3281,466.4844 L366.3281,465.8438 C366.3281,464.7969 367.0625,464.0313 368.0938,464.0313 C368.4375,464.0313 368.7969,464.125 369.0625,464.2656 C369.3438,464.4375 369.4531,464.5625 369.5,464.7969 C369.5469,465.0469 369.5625,465.1094 369.6406,465.1875 C369.7188,465.2656 369.8594,465.3281 369.9844,465.3281 C370.1563,465.3281 370.2969,465.25 370.4063,465.125 C370.4688,465.0313 370.4844,464.9219 370.4844,464.6719 L370.4844,463.8281 C370.4844,463.5781 370.4844,463.5 370.4219,463.4063 C370.3281,463.2656 370.1719,463.1719 369.9844,463.1719 C369.8125,463.1719 369.7031,463.2344 369.5625,463.4063 L369.4688,463.375 Z "/><text fill="#000000" font-family="Courier" font-size="10" lengthAdjust="spacingAndGlyphs" textLength="168" x="382" y="470">LMI_SELinuxServiceHasElement</text><line style="stroke: #A80036; stroke-width: 1.5;" x1="347" x2="561" y1="480" y2="480"/><text fill="#000000" font-family="Courier" font-size="10" lengthAdjust="spacingAndGlyphs" textLength="204" x="352" y="494">Antecedent: ref LMI_SELinuxElement</text><text fill="#000000" font-family="Courier" font-size="10" lengthAdjust="spacingAndGlyphs" textLength="198" x="352" y="506">Dependent: ref LMI_SELinuxService</text><line style="stroke: #A80036; stroke-width: 1.5;" x1="347" x2="561" y1="512" y2="512"/><ellipse cx="309" cy="486" fill="#000000" rx="2" ry="2" style="stroke: none; stroke-width: 1.0;"/><rect fill="#FEFECE" filter="url(#f1)" height="44" style="stroke: #A80036; stroke-width: 1.5;" width="172" x="345" y="112"/><ellipse cx="358" cy="126" fill="#1E90FF" rx="9" ry="9" style="stroke: #A80036; stroke-width: 1.0;"/><path d="M359.4688,123.375 C358.9219,123.1094 358.5625,123.0313 358.0469,123.0313 C356.5156,123.0313 355.3281,124.25 355.3281,125.8438 L355.3281,126.5156 C355.3281,128.0313 356.5625,129.1406 358.2656,129.1406 C358.9844,129.1406 359.6719,128.9531 360.1094,128.6406 C360.4531,128.4063 360.6406,128.1406 360.6406,127.9063 C360.6406,127.6406 360.4063,127.4063 360.1406,127.4063 C360.0156,127.4063 359.8906,127.4531 359.7813,127.5625 C359.5156,127.8438 359.5156,127.8438 359.4063,127.9063 C359.1563,128.0625 358.75,128.1406 358.2969,128.1406 C357.0938,128.1406 356.3281,127.4844 356.3281,126.4844 L356.3281,125.8438 C356.3281,124.7969 357.0625,124.0313 358.0938,124.0313 C358.4375,124.0313 358.7969,124.125 359.0625,124.2656 C359.3438,124.4375 359.4531,124.5625 359.5,124.7969 C359.5469,125.0469 359.5625,125.1094 359.6406,125.1875 C359.7188,125.2656 359.8594,125.3281 359.9844,125.3281 C360.1563,125.3281 360.2969,125.25 360.4063,125.125 C360.4688,125.0313 360.4844,124.9219 360.4844,124.6719 L360.4844,123.8281 C360.4844,123.5781 360.4844,123.5 360.4219,123.4063 C360.3281,123.2656 360.1719,123.1719 359.9844,123.1719 C359.8125,123.1719 359.7031,123.2344 359.5625,123.4063 L359.4688,123.375 Z "/><text fill="#000000" font-family="Courier" font-size="10" lengthAdjust="spacingAndGlyphs" textLength="144" x="370" y="130">LMI_HostedSELinuxService</text><line style="stroke: #A80036; stroke-width: 1.5;" x1="346" x2="516" y1="140" y2="140"/><line style="stroke: #A80036; stroke-width: 1.5;" x1="346" x2="516" y1="148" y2="148"/><ellipse cx="308" cy="134" fill="#000000" rx="2" ry="2" style="stroke: none; stroke-width: 1.0;"/><path d="M665,528.32 C665,545.833 665,565.488 665,579.938 " fill="none" style="stroke: #A80036; stroke-width: 1.0;"/><polygon fill="none" points="658,528.175,665,508.175,672,528.175,658,528.175" style="stroke: #A80036; stroke-width: 1.0;"/><path d="M637.566,640.41 C625.97,656.223 612.576,674.4875 601.337,689.8135 " fill="none" style="stroke: #A80036; stroke-width: 1.0;"/><polygon fill="none" points="631.998,636.166,649.47,624.177,643.287,644.445,631.998,636.166" style="stroke: #A80036; stroke-width: 1.0;"/><path d="M692.375,640.329 C702.457,654.077 713.904,669.6872 724.115,683.6114 " fill="none" style="stroke: #A80036; stroke-width: 1.0;"/><polygon fill="none" points="686.713,644.445,680.53,624.177,698.002,636.166,686.713,644.445" style="stroke: #A80036; stroke-width: 1.0;"/><path d="M545.02,166.271 C520.466,180.496 490.066,198.106 459.346,215.903 " fill="none" style="stroke: #A80036; stroke-width: 1.0;"/><polygon fill="none" points="541.75,160.076,562.565,156.107,548.768,172.19,541.75,160.076" style="stroke: #A80036; stroke-width: 1.0;"/><path d="M755,176.629 C755,210.051 755,255.597 755,281.895 " fill="none" style="stroke: #A80036; stroke-width: 1.0;"/><polygon fill="none" points="748,176.277,755,156.277,762,176.277,748,176.277" style="stroke: #A80036; stroke-width: 1.0;"/><path d="M922.357,345.986 C919.096,382.673 914.445,434.995 911.88,463.855 " fill="none" style="stroke: #A80036; stroke-width: 1.0;"/><polygon fill="none" points="915.39,345.302,924.133,326.001,929.335,346.542,915.39,345.302" style="stroke: #A80036; stroke-width: 1.0;"/><path d="M756.75,326.001 C760.46,370.515 768.859,471.31 769.895,483.736 " fill="none" style="stroke: #A80036; stroke-width: 1.0;"/><path d="M769.514,488.097 C767.568,492.42 760.019,508.59 751,520 C733.321,542.366 709.487,564.324 691.393,579.723 " fill="none" style="stroke: #A80036; stroke-width: 1.0;"/><path d="M772.188,486 C784.39,486 796.592,486 808.794,486 " fill="none" style="stroke: #A80036; stroke-width: 1.0; stroke-dasharray: 7.0,7.0;"/><path d="M309,392.1 C309,433.738 309,476.205 309,483.801 " fill="none" style="stroke: #A80036; stroke-width: 1.0;"/><path d="M309.261,488.002 C310.488,492.517 316.141,511.131 328,520 C407.269,579.283 523.814,595.823 597,600.074 " fill="none" style="stroke: #A80036; stroke-width: 1.0;"/><path d="M311.266,486 C322.788,486 334.311,486 345.834,486 " fill="none" style="stroke: #A80036; stroke-width: 1.0; stroke-dasharray: 7.0,7.0;"/><path d="M308,52.134 C308,79.21 308,123.625 308,131.715 " fill="none" style="stroke: #A80036; stroke-width: 1.0;"/><path d="M308.006,136.073 C308.046,142.696 308.262,178.955 308.482,215.994 " fill="none" style="stroke: #A80036; stroke-width: 1.0;"/><path d="M310.402,134 C321.865,134 333.328,134 344.792,134 " fill="none" style="stroke: #A80036; stroke-width: 1.0; stroke-dasharray: 7.0,7.0;"/></g></svg>