<?xml version="1.0" encoding="UTF-8" standalone="yes"?><svg xmlns="http://www.w3.org/2000/svg" xmlns:xlink="http://www.w3.org/1999/xlink" height="480pt" style="width:1076px;height:480px;" version="1.1" viewBox="0 0 1076 480" width="1076pt"><defs><filter height="300%" id="f1" width="300%" x="-1" y="-1"><feGaussianBlur result="blurOut" stdDeviation="2"/><feColorMatrix in="blurOut" result="blurOut2" type="matrix" values="0 0 0 0 0 0 0 0 0 0 0 0 0 0 0 0 0 0 .4 0"/><feOffset dx="4" dy="4" in="blurOut2" result="blurOut3"/><feBlend in="SourceGraphic" in2="blurOut3" mode="normal"/></filter></defs><g><rect fill="#FEFECE" filter="url(#f1)" height="70.2031" style="stroke: #A80036; stroke-width: 1.5;" width="193" x="437" y="104"/><text fill="#000000" font-family="Monospace" font-size="10" lengthAdjust="spacingAndGlyphs" textLength="179" x="444" y="116">LMI_FileSystemConfigurationService</text><line style="stroke: #A80036; stroke-width: 1.5;" x1="438" x2="629" y1="119.6406" y2="119.6406"/><text fill="#000000" font-family="Monospace" font-size="10" lengthAdjust="spacingAndGlyphs" textLength="109" x="443" y="133.6406">Name = myFSService</text><text fill="#000000" font-family="Monospace" font-size="10" lengthAdjust="spacingAndGlyphs" textLength="149" x="443" y="145.2813">void SNIA_CreateFileSystem()</text><text fill="#000000" font-family="Monospace" font-size="10" lengthAdjust="spacingAndGlyphs" textLength="148" x="443" y="156.9219">void SNIA_ModifyFileSystem()</text><text fill="#000000" font-family="Monospace" font-size="10" lengthAdjust="spacingAndGlyphs" textLength="117" x="443" y="168.5625">void DeleteFileSystem()</text><polygon fill="#FBFB77" filter="url(#f1)" points="449,8.5,449,41.7813,618,41.7813,618,18.5,608,8.5,449,8.5" style="stroke: #A80036; stroke-width: 1.0;"/><polygon fill="#FBFB77" points="449,8.5,449,41.7813,529.25,41.7813,533.25,98.497,537.25,41.7813,618,41.7813,618,18.5,608,8.5,449,8.5" style="stroke: #A80036; stroke-width: 1.0;"/><line style="stroke: #A80036; stroke-width: 1.0;" x1="608" x2="608" y1="8.5" y2="18.5"/><line style="stroke: #A80036; stroke-width: 1.0;" x1="618" x2="608" y1="18.5" y2="18.5"/><text fill="#000000" font-family="Monospace" font-size="10" lengthAdjust="spacingAndGlyphs" textLength="114" x="455" y="23.5">Singleton with methods</text><text fill="#000000" font-family="Monospace" font-size="10" lengthAdjust="spacingAndGlyphs" textLength="148" x="455" y="35.1406">to manipulate with filesystems</text><rect fill="#FEFECE" filter="url(#f1)" height="93.4844" style="stroke: #A80036; stroke-width: 1.5;" width="231" x="418" y="265.5"/><text fill="#000000" font-family="Monospace" font-size="10" lengthAdjust="spacingAndGlyphs" textLength="198" x="434.5" y="277.5">LMI_FileSystemConfigurationCapabilities</text><line style="stroke: #A80036; stroke-width: 1.5;" x1="419" x2="648" y1="281.1406" y2="281.1406"/><text fill="#000000" font-family="Monospace" font-size="10" lengthAdjust="spacingAndGlyphs" textLength="179" x="424" y="295.1406">SupportedAsynchronousMethods = [</text><text fill="#000000" font-family="Monospace" font-size="10" lengthAdjust="spacingAndGlyphs" textLength="91" x="472" y="306.7813">CreateFileSystem,</text><text fill="#000000" font-family="Monospace" font-size="10" lengthAdjust="spacingAndGlyphs" textLength="90" x="472" y="318.4219">ModifyFileSystem,</text><text fill="#000000" font-family="Monospace" font-size="10" lengthAdjust="spacingAndGlyphs" textLength="90" x="472" y="330.0625">DeleteFileSystem]</text><text fill="#000000" font-family="Monospace" font-size="10" lengthAdjust="spacingAndGlyphs" textLength="198" x="424" y="341.7031">SupportedSynchronousMethods = NULL</text><text fill="#000000" font-family="Monospace" font-size="10" lengthAdjust="spacingAndGlyphs" textLength="219" x="424" y="353.3438">SupportedActualFileSystemTypes = [ext,xfs]</text><polygon fill="#FBFB77" filter="url(#f1)" points="398.25,444,398.25,465.6406,668.25,465.6406,668.25,454,658.25,444,398.25,444" style="stroke: #A80036; stroke-width: 1.0;"/><polygon fill="#FBFB77" points="398.25,444,398.25,465.6406,668.25,465.6406,668.25,454,658.25,444,537.25,444,533.25,358.779,529.25,444,398.25,444" style="stroke: #A80036; stroke-width: 1.0;"/><line style="stroke: #A80036; stroke-width: 1.0;" x1="658.25" x2="658.25" y1="444" y2="454"/><line style="stroke: #A80036; stroke-width: 1.0;" x1="668.25" x2="658.25" y1="454" y2="454"/><text fill="#000000" font-family="Monospace" font-size="10" lengthAdjust="spacingAndGlyphs" textLength="249" x="404.25" y="459">Description of what operations the service supports</text><rect fill="#FEFECE" filter="url(#f1)" height="58.5625" style="stroke: #A80036; stroke-width: 1.5;" width="276" x="786.25" y="109.5"/><text fill="#000000" font-family="Monospace" font-size="10" lengthAdjust="spacingAndGlyphs" textLength="149" x="849.75" y="121.5">LMI_ExtFileSystemCapabilities</text><line style="stroke: #A80036; stroke-width: 1.5;" x1="787.25" x2="1061.25" y1="125.1406" y2="125.1406"/><text fill="#000000" font-family="Monospace" font-size="10" lengthAdjust="spacingAndGlyphs" textLength="137" x="792.25" y="139.1406">InstanceID = "Capabilities1"</text><text fill="#000000" font-family="Monospace" font-size="10" lengthAdjust="spacingAndGlyphs" textLength="137" x="792.25" y="150.7813">ActualFileSystemType = ext</text><text fill="#000000" font-family="Monospace" font-size="10" lengthAdjust="spacingAndGlyphs" textLength="264" x="792.25" y="162.4219">SupportedProperties = [..,JournalSize,ReservedBlocks]</text><polygon fill="#FBFB77" filter="url(#f1)" points="784.25,14,784.25,35.6406,1064.25,35.6406,1064.25,24,1054.25,14,784.25,14" style="stroke: #A80036; stroke-width: 1.0;"/><polygon fill="#FBFB77" points="784.25,14,784.25,35.6406,920.25,35.6406,924.25,104.285,928.25,35.6406,1064.25,35.6406,1064.25,24,1054.25,14,784.25,14" style="stroke: #A80036; stroke-width: 1.0;"/><line style="stroke: #A80036; stroke-width: 1.0;" x1="1054.25" x2="1054.25" y1="14" y2="24"/><line style="stroke: #A80036; stroke-width: 1.0;" x1="1064.25" x2="1054.25" y1="24" y2="24"/><text fill="#000000" font-family="Monospace" font-size="10" lengthAdjust="spacingAndGlyphs" textLength="259" x="790.25" y="29">Description what features of Ext the service supports</text><rect fill="#FEFECE" filter="url(#f1)" height="58.5625" style="stroke: #A80036; stroke-width: 1.5;" width="269" x="11" y="109.5"/><text fill="#000000" font-family="Monospace" font-size="10" lengthAdjust="spacingAndGlyphs" textLength="151" x="70" y="121.5">LMI_XFSFileSystemCapabilities</text><line style="stroke: #A80036; stroke-width: 1.5;" x1="12" x2="279" y1="125.1406" y2="125.1406"/><text fill="#000000" font-family="Monospace" font-size="10" lengthAdjust="spacingAndGlyphs" textLength="137" x="17" y="139.1406">InstanceID = "Capabilities2"</text><text fill="#000000" font-family="Monospace" font-size="10" lengthAdjust="spacingAndGlyphs" textLength="136" x="17" y="150.7813">ActualFileSystemType = xfs</text><text fill="#000000" font-family="Monospace" font-size="10" lengthAdjust="spacingAndGlyphs" textLength="257" x="17" y="162.4219">SupportedProperties = [..,JournalSize,JournalVersion]</text><polygon fill="#FBFB77" filter="url(#f1)" points="6,14,6,35.6406,285,35.6406,285,24,275,14,6,14" style="stroke: #A80036; stroke-width: 1.0;"/><polygon fill="#FBFB77" points="6,14,6,35.6406,141.25,35.6406,145.25,104.285,149.25,35.6406,285,35.6406,285,24,275,14,6,14" style="stroke: #A80036; stroke-width: 1.0;"/><line style="stroke: #A80036; stroke-width: 1.0;" x1="275" x2="275" y1="14" y2="24"/><line style="stroke: #A80036; stroke-width: 1.0;" x1="285" x2="275" y1="24" y2="24"/><text fill="#000000" font-family="Monospace" font-size="10" lengthAdjust="spacingAndGlyphs" textLength="258" x="12" y="29">Description what features of ext the service supports</text><rect fill="#FEFECE" filter="url(#f1)" height="128.4063" style="stroke: #A80036; stroke-width: 1.5;" width="151" x="849" y="248"/><text fill="#000000" font-family="Monospace" font-size="10" lengthAdjust="spacingAndGlyphs" textLength="129" x="860" y="260">LMI_ExtFileSystemSetting</text><line style="stroke: #A80036; stroke-width: 1.5;" x1="850" x2="999" y1="263.6406" y2="263.6406"/><text fill="#000000" font-family="Monospace" font-size="10" lengthAdjust="spacingAndGlyphs" textLength="117" x="855" y="277.6406">InstanceID = "Setting1"</text><text fill="#000000" font-family="Monospace" font-size="10" lengthAdjust="spacingAndGlyphs" textLength="137" x="855" y="289.2813">ActualFileSystemType = ext</text><text fill="#000000" font-family="Monospace" font-size="10" lengthAdjust="spacingAndGlyphs" textLength="95" x="855" y="300.9219">JournalSize = NULL</text><text fill="#000000" font-family="Monospace" font-size="10" lengthAdjust="spacingAndGlyphs" textLength="100" x="855" y="312.5625">BlockSizeMin = 1024</text><text fill="#000000" font-family="Monospace" font-size="10" lengthAdjust="spacingAndGlyphs" textLength="104" x="855" y="324.2031">BlockSizeMax = 4096</text><text fill="#000000" font-family="Monospace" font-size="10" lengthAdjust="spacingAndGlyphs" textLength="87" x="855" y="335.8438">BlockSize = NULL</text><text fill="#000000" font-family="Monospace" font-size="10" lengthAdjust="spacingAndGlyphs" textLength="123" x="855" y="347.4844">ReservedBlocksMin = 0%</text><text fill="#000000" font-family="Monospace" font-size="10" lengthAdjust="spacingAndGlyphs" textLength="139" x="855" y="359.125">ReservedBlocksMax = 100%</text><text fill="#000000" font-family="Monospace" font-size="10" lengthAdjust="spacingAndGlyphs" textLength="106" x="855" y="370.7656">ReservedBlocks = 5%</text><polygon fill="#FBFB77" filter="url(#f1)" points="819.25,438.5,819.25,471.7813,1029.25,471.7813,1029.25,448.5,1019.25,438.5,819.25,438.5" style="stroke: #A80036; stroke-width: 1.0;"/><polygon fill="#FBFB77" points="819.25,438.5,819.25,471.7813,1029.25,471.7813,1029.25,448.5,1019.25,438.5,928.25,438.5,924.25,376.0767,920.25,438.5,819.25,438.5" style="stroke: #A80036; stroke-width: 1.0;"/><line style="stroke: #A80036; stroke-width: 1.0;" x1="1019.25" x2="1019.25" y1="438.5" y2="448.5"/><line style="stroke: #A80036; stroke-width: 1.0;" x1="1029.25" x2="1019.25" y1="448.5" y2="448.5"/><text fill="#000000" font-family="Monospace" font-size="10" lengthAdjust="spacingAndGlyphs" textLength="152" x="825.25" y="453.5">Definition of min/max values of</text><text fill="#000000" font-family="Monospace" font-size="10" lengthAdjust="spacingAndGlyphs" textLength="189" x="825.25" y="465.1406">properties that ext filesystem supports</text><rect fill="#FEFECE" filter="url(#f1)" height="105.125" style="stroke: #A80036; stroke-width: 1.5;" width="148" x="71.25" y="259.5"/><text fill="#000000" font-family="Monospace" font-size="10" lengthAdjust="spacingAndGlyphs" textLength="131" x="79.75" y="271.5">LMI_XFSFileSystemSetting</text><line style="stroke: #A80036; stroke-width: 1.5;" x1="72.25" x2="218.25" y1="275.1406" y2="275.1406"/><text fill="#000000" font-family="Monospace" font-size="10" lengthAdjust="spacingAndGlyphs" textLength="117" x="77.25" y="289.1406">InstanceID = "Setting2"</text><text fill="#000000" font-family="Monospace" font-size="10" lengthAdjust="spacingAndGlyphs" textLength="136" x="77.25" y="300.7813">ActualFileSystemType = xfs</text><text fill="#000000" font-family="Monospace" font-size="10" lengthAdjust="spacingAndGlyphs" textLength="95" x="77.25" y="312.4219">JournalSize = NULL</text><text fill="#000000" font-family="Monospace" font-size="10" lengthAdjust="spacingAndGlyphs" textLength="94" x="77.25" y="324.0625">BlockSizeMin = 512</text><text fill="#000000" font-family="Monospace" font-size="10" lengthAdjust="spacingAndGlyphs" textLength="110" x="77.25" y="335.7031">BlockSizeMax = 65536</text><text fill="#000000" font-family="Monospace" font-size="10" lengthAdjust="spacingAndGlyphs" textLength="83" x="77.25" y="347.3438">BlockSize = 4096</text><text fill="#000000" font-family="Monospace" font-size="10" lengthAdjust="spacingAndGlyphs" textLength="94" x="77.25" y="358.9844">JournalVersions = 2</text><polygon fill="#FBFB77" filter="url(#f1)" points="39,438.5,39,471.7813,252,471.7813,252,448.5,242,438.5,39,438.5" style="stroke: #A80036; stroke-width: 1.0;"/><polygon fill="#FBFB77" points="39,438.5,39,471.7813,252,471.7813,252,448.5,242,438.5,149.25,438.5,145.25,364.703,141.25,438.5,39,438.5" style="stroke: #A80036; stroke-width: 1.0;"/><line style="stroke: #A80036; stroke-width: 1.0;" x1="242" x2="242" y1="438.5" y2="448.5"/><line style="stroke: #A80036; stroke-width: 1.0;" x1="252" x2="242" y1="448.5" y2="448.5"/><text fill="#000000" font-family="Monospace" font-size="10" lengthAdjust="spacingAndGlyphs" textLength="152" x="45" y="453.5">Definition of min/max values of</text><text fill="#000000" font-family="Monospace" font-size="10" lengthAdjust="spacingAndGlyphs" textLength="192" x="45" y="465.1406">properties that XFS filesystem supports</text><path d="M629.651,139 C675.234,139 730.588,139 780.954,139 " fill="none" style="stroke: #A80036; stroke-width: 1.0;"/><text fill="#000000" font-family="Monospace" font-size="10" lengthAdjust="spacingAndGlyphs" textLength="119" x="647.75" y="133">LMI_ElementCapabilities</text><path d="M279.593,139 C329.556,139 385.367,139 431.89,139 " fill="none" style="stroke: #A80036; stroke-width: 1.0;"/><text fill="#000000" font-family="Monospace" font-size="10" lengthAdjust="spacingAndGlyphs" textLength="119" x="298" y="133">LMI_ElementCapabilities</text><path d="M533.25,174.193 C533.25,198.784 533.25,232.359 533.25,260.093 " fill="none" style="stroke: #A80036; stroke-width: 1.0;"/><text fill="#000000" font-family="Monospace" font-size="10" lengthAdjust="spacingAndGlyphs" textLength="119" x="534.25" y="215">LMI_ElementCapabilities</text><path d="M924.25,168.622 C924.25,188.855 924.25,216.867 924.25,242.694 " fill="none" style="stroke: #A80036; stroke-width: 1.0;"/><text fill="#000000" font-family="Monospace" font-size="10" lengthAdjust="spacingAndGlyphs" textLength="150" x="925.25" y="215">LMI_SettingsDefineCapabilities</text><path d="M145.25,168.622 C145.25,191.893 145.25,225.454 145.25,254.147 " fill="none" style="stroke: #A80036; stroke-width: 1.0;"/><text fill="#000000" font-family="Monospace" font-size="10" lengthAdjust="spacingAndGlyphs" textLength="150" x="146.25" y="215">LMI_SettingsDefineCapabilities</text></g></svg>