<?xml version="1.0" encoding="UTF-8" standalone="yes"?><svg xmlns="http://www.w3.org/2000/svg" xmlns:xlink="http://www.w3.org/1999/xlink" height="242pt" style="width:401px;height:242px;" version="1.1" viewBox="0 0 401 242" width="401pt"><defs><filter height="300%" id="f1" width="300%" x="-1" y="-1"><feGaussianBlur result="blurOut" stdDeviation="2"/><feColorMatrix in="blurOut" result="blurOut2" type="matrix" values="0 0 0 0 0 0 0 0 0 0 0 0 0 0 0 0 0 0 .4 0"/><feOffset dx="4" dy="4" in="blurOut2" result="blurOut3"/><feBlend in="SourceGraphic" in2="blurOut3" mode="normal"/></filter></defs><g><rect fill="#FEFECE" filter="url(#f1)" height="70.2031" style="stroke: #A80036; stroke-width: 1.5;" width="154" x="6" y="8"/><text fill="#000000" font-family="Monospace" font-size="10" lengthAdjust="spacingAndGlyphs" textLength="95" x="35.5" y="20">extLocalFileSystem</text><line style="stroke: #A80036; stroke-width: 1.5;" x1="7" x2="159" y1="23.6406" y2="23.6406"/><text fill="#000000" font-family="Monospace" font-size="10" lengthAdjust="spacingAndGlyphs" textLength="101" x="12" y="37.6406">Name = "/dev/sda1"</text><text fill="#000000" font-family="Monospace" font-size="10" lengthAdjust="spacingAndGlyphs" textLength="83" x="12" y="49.2813">BlockSize = 4096</text><text fill="#000000" font-family="Monospace" font-size="10" lengthAdjust="spacingAndGlyphs" textLength="141" x="12" y="60.9219">AvailableSpace = 920223744</text><text fill="#000000" font-family="Monospace" font-size="10" lengthAdjust="spacingAndGlyphs" textLength="142" x="12" y="72.5625">FileSystemSize = 103208550</text><polygon fill="#FBFB77" filter="url(#f1)" points="230,32,230,53.6406,356,53.6406,356,42,346,32,230,32" style="stroke: #A80036; stroke-width: 1.0;"/><polygon fill="#FBFB77" points="230,32,230,39,160.109,43,230,47,230,53.6406,356,53.6406,356,42,346,32,230,32" style="stroke: #A80036; stroke-width: 1.0;"/><line style="stroke: #A80036; stroke-width: 1.0;" x1="346" x2="346" y1="32" y2="42"/><line style="stroke: #A80036; stroke-width: 1.0;" x1="356" x2="346" y1="42" y2="42"/><text fill="#000000" font-family="Monospace" font-size="10" lengthAdjust="spacingAndGlyphs" textLength="105" x="236" y="47">State of a file system</text><rect fill="#FEFECE" filter="url(#f1)" height="81.8438" style="stroke: #A80036; stroke-width: 1.5;" width="149" x="8.75" y="152"/><text fill="#000000" font-family="Monospace" font-size="10" lengthAdjust="spacingAndGlyphs" textLength="105" x="30.75" y="164">extFileSystemSetting</text><line style="stroke: #A80036; stroke-width: 1.5;" x1="9.75" x2="156.75" y1="167.6406" y2="167.6406"/><text fill="#000000" font-family="Monospace" font-size="10" lengthAdjust="spacingAndGlyphs" textLength="137" x="14.75" y="181.6406">ActualFileSystemType = ext</text><text fill="#000000" font-family="Monospace" font-size="10" lengthAdjust="spacingAndGlyphs" textLength="115" x="14.75" y="193.2813">JournalSize = 16777216</text><text fill="#000000" font-family="Monospace" font-size="10" lengthAdjust="spacingAndGlyphs" textLength="104" x="14.75" y="204.9219">BlockSizeMin = NULL</text><text fill="#000000" font-family="Monospace" font-size="10" lengthAdjust="spacingAndGlyphs" textLength="108" x="14.75" y="216.5625">BlockSizeMax = NULL</text><text fill="#000000" font-family="Monospace" font-size="10" lengthAdjust="spacingAndGlyphs" textLength="83" x="14.75" y="228.2031">BlockSize = 4096</text><polygon fill="#FBFB77" filter="url(#f1)" points="227.75,182,227.75,203.6406,392.75,203.6406,392.75,192,382.75,182,227.75,182" style="stroke: #A80036; stroke-width: 1.0;"/><polygon fill="#FBFB77" points="227.75,182,227.75,189,157.484,193,227.75,197,227.75,203.6406,392.75,203.6406,392.75,192,382.75,182,227.75,182" style="stroke: #A80036; stroke-width: 1.0;"/><line style="stroke: #A80036; stroke-width: 1.0;" x1="382.75" x2="382.75" y1="182" y2="192"/><line style="stroke: #A80036; stroke-width: 1.0;" x1="392.75" x2="382.75" y1="192" y2="192"/><text fill="#000000" font-family="Monospace" font-size="10" lengthAdjust="spacingAndGlyphs" textLength="144" x="233.75" y="197">Configuration of a file system</text><path d="M83,78.326 C83,98.643 83,124.625 83,146.6192 " fill="none" style="stroke: #A80036; stroke-width: 1.0;"/><text fill="#000000" font-family="Monospace" font-size="10" lengthAdjust="spacingAndGlyphs" textLength="125" x="84" y="119">CIM_ElementSettingData</text></g></svg>