<?xml version="1.0" encoding="UTF-8" standalone="yes"?><svg xmlns="http://www.w3.org/2000/svg" xmlns:xlink="http://www.w3.org/1999/xlink" height="492pt" style="width:869px;height:492px;" version="1.1" viewBox="0 0 869 492" width="869pt"><defs><filter height="300%" id="f1" width="300%" x="-1" y="-1"><feGaussianBlur result="blurOut" stdDeviation="2.0"/><feColorMatrix in="blurOut" result="blurOut2" type="matrix" values="0 0 0 0 0 0 0 0 0 0 0 0 0 0 0 0 0 0 .4 0"/><feOffset dx="4.0" dy="4.0" in="blurOut2" result="blurOut3"/><feBlend in="SourceGraphic" in2="blurOut3" mode="normal"/></filter></defs><g><rect fill="#FEFECE" filter="url(#f1)" height="74.0313" style="stroke: #A80036; stroke-width: 1.5;" width="154" x="353.5" y="104"/><text fill="#000000" font-family="Monospace" font-size="10" lengthAdjust="spacingAndGlyphs" textLength="140" x="360.5" y="116">LMI_FileSystemConfigurationService</text><line style="stroke: #A80036; stroke-width: 1.5;" x1="354.5" x2="506.5" y1="120.4063" y2="120.4063"/><text fill="#000000" font-family="Monospace" font-size="10" lengthAdjust="spacingAndGlyphs" textLength="81" x="359.5" y="134.4063">Name = myFSService</text><text fill="#000000" font-family="Monospace" font-size="10" lengthAdjust="spacingAndGlyphs" textLength="114" x="359.5" y="146.8125">void SNIA_CreateFileSystem()</text><text fill="#000000" font-family="Monospace" font-size="10" lengthAdjust="spacingAndGlyphs" textLength="113" x="359.5" y="159.2188">void SNIA_ModifyFileSystem()</text><text fill="#000000" font-family="Monospace" font-size="10" lengthAdjust="spacingAndGlyphs" textLength="90" x="359.5" y="171.625">void DeleteFileSystem()</text><polygon fill="#FBFB77" filter="url(#f1)" points="364,8,364,42.8125,497,42.8125,497,18,487,8,364,8" style="stroke: #A80036; stroke-width: 1.0;"/><polygon fill="#FBFB77" points="364,8,364,42.8125,426.5,42.8125,430.5,103.937,434.5,42.8125,497,42.8125,497,18,487,8,364,8" style="stroke: #A80036; stroke-width: 1.0;"/><line style="stroke: #A80036; stroke-width: 1.0;" x1="487" x2="487" y1="8" y2="18"/><line style="stroke: #A80036; stroke-width: 1.0;" x1="497" x2="487" y1="18" y2="18"/><text fill="#000000" font-family="Monospace" font-size="10" lengthAdjust="spacingAndGlyphs" textLength="88" x="370" y="23">Singleton with methods</text><text fill="#000000" font-family="Monospace" font-size="10" lengthAdjust="spacingAndGlyphs" textLength="112" x="370" y="35.4063">to manipulate with filesystems</text><rect fill="#FEFECE" filter="url(#f1)" height="98.8438" style="stroke: #A80036; stroke-width: 1.5;" width="175" x="343" y="270.5"/><text fill="#000000" font-family="Monospace" font-size="10" lengthAdjust="spacingAndGlyphs" textLength="157" x="352" y="282.5">LMI_FileSystemConfigurationCapabilities</text><line style="stroke: #A80036; stroke-width: 1.5;" x1="344" x2="517" y1="286.9063" y2="286.9063"/><text fill="#000000" font-family="Monospace" font-size="10" lengthAdjust="spacingAndGlyphs" textLength="138" x="349" y="300.9063">SupportedAsynchronousMethods = [</text><text fill="#000000" font-family="Monospace" font-size="10" lengthAdjust="spacingAndGlyphs" textLength="69" x="381" y="313.3125">CreateFileSystem,</text><text fill="#000000" font-family="Monospace" font-size="10" lengthAdjust="spacingAndGlyphs" textLength="68" x="381" y="325.7188">ModifyFileSystem,</text><text fill="#000000" font-family="Monospace" font-size="10" lengthAdjust="spacingAndGlyphs" textLength="68" x="381" y="338.125">DeleteFileSystem]</text><text fill="#000000" font-family="Monospace" font-size="10" lengthAdjust="spacingAndGlyphs" textLength="154" x="349" y="350.5313">SupportedSynchronousMethods = NULL</text><text fill="#000000" font-family="Monospace" font-size="10" lengthAdjust="spacingAndGlyphs" textLength="163" x="349" y="362.9375">SupportedActualFileSystemTypes = [ext,xfs]</text><polygon fill="#FBFB77" filter="url(#f1)" points="323.5,455.5,323.5,477.9063,537.5,477.9063,537.5,465.5,527.5,455.5,323.5,455.5" style="stroke: #A80036; stroke-width: 1.0;"/><polygon fill="#FBFB77" points="323.5,455.5,323.5,477.9063,537.5,477.9063,537.5,465.5,527.5,455.5,434.5,455.5,430.5,369.518,426.5,455.5,323.5,455.5" style="stroke: #A80036; stroke-width: 1.0;"/><line style="stroke: #A80036; stroke-width: 1.0;" x1="527.5" x2="527.5" y1="455.5" y2="465.5"/><line style="stroke: #A80036; stroke-width: 1.0;" x1="537.5" x2="527.5" y1="465.5" y2="465.5"/><text fill="#000000" font-family="Monospace" font-size="10" lengthAdjust="spacingAndGlyphs" textLength="193" x="329.5" y="470.5">Description of what operations the service supports</text><rect fill="#FEFECE" filter="url(#f1)" height="61.625" style="stroke: #A80036; stroke-width: 1.5;" width="218" x="639.5" y="110"/><text fill="#000000" font-family="Monospace" font-size="10" lengthAdjust="spacingAndGlyphs" textLength="116" x="690.5" y="122">LMI_ExtFileSystemCapabilities</text><line style="stroke: #A80036; stroke-width: 1.5;" x1="640.5" x2="856.5" y1="126.4063" y2="126.4063"/><text fill="#000000" font-family="Monospace" font-size="10" lengthAdjust="spacingAndGlyphs" textLength="105" x="645.5" y="140.4063">InstanceID = "Capabilities1"</text><text fill="#000000" font-family="Monospace" font-size="10" lengthAdjust="spacingAndGlyphs" textLength="103" x="645.5" y="152.8125">ActualFileSystemType = ext</text><text fill="#000000" font-family="Monospace" font-size="10" lengthAdjust="spacingAndGlyphs" textLength="206" x="645.5" y="165.2188">SupportedProperties = [..,JournalSize,ReservedBlocks]</text><polygon fill="#FBFB77" filter="url(#f1)" points="640,14.5,640,36.9063,857,36.9063,857,24.5,847,14.5,640,14.5" style="stroke: #A80036; stroke-width: 1.0;"/><polygon fill="#FBFB77" points="640,14.5,640,36.9063,744.5,36.9063,748.5,109.859,752.5,36.9063,857,36.9063,857,24.5,847,14.5,640,14.5" style="stroke: #A80036; stroke-width: 1.0;"/><line style="stroke: #A80036; stroke-width: 1.0;" x1="847" x2="847" y1="14.5" y2="24.5"/><line style="stroke: #A80036; stroke-width: 1.0;" x1="857" x2="847" y1="24.5" y2="24.5"/><text fill="#000000" font-family="Monospace" font-size="10" lengthAdjust="spacingAndGlyphs" textLength="196" x="646" y="29.5">Description what features of Ext the service supports</text><rect fill="#FEFECE" filter="url(#f1)" height="61.625" style="stroke: #A80036; stroke-width: 1.5;" width="215" x="7" y="110"/><text fill="#000000" font-family="Monospace" font-size="10" lengthAdjust="spacingAndGlyphs" textLength="120" x="54.5" y="122">LMI_XFSFileSystemCapabilities</text><line style="stroke: #A80036; stroke-width: 1.5;" x1="8" x2="221" y1="126.4063" y2="126.4063"/><text fill="#000000" font-family="Monospace" font-size="10" lengthAdjust="spacingAndGlyphs" textLength="105" x="13" y="140.4063">InstanceID = "Capabilities2"</text><text fill="#000000" font-family="Monospace" font-size="10" lengthAdjust="spacingAndGlyphs" textLength="102" x="13" y="152.8125">ActualFileSystemType = xfs</text><text fill="#000000" font-family="Monospace" font-size="10" lengthAdjust="spacingAndGlyphs" textLength="203" x="13" y="165.2188">SupportedProperties = [..,JournalSize,JournalVersion]</text><polygon fill="#FBFB77" filter="url(#f1)" points="6,14.5,6,36.9063,223,36.9063,223,24.5,213,14.5,6,14.5" style="stroke: #A80036; stroke-width: 1.0;"/><polygon fill="#FBFB77" points="6,14.5,6,36.9063,110.5,36.9063,114.5,109.859,118.5,36.9063,223,36.9063,223,24.5,213,14.5,6,14.5" style="stroke: #A80036; stroke-width: 1.0;"/><line style="stroke: #A80036; stroke-width: 1.0;" x1="213" x2="213" y1="14.5" y2="24.5"/><line style="stroke: #A80036; stroke-width: 1.0;" x1="223" x2="213" y1="24.5" y2="24.5"/><text fill="#000000" font-family="Monospace" font-size="10" lengthAdjust="spacingAndGlyphs" textLength="196" x="12" y="29.5">Description what features of ext the service supports</text><rect fill="#FEFECE" filter="url(#f1)" height="136.0625" style="stroke: #A80036; stroke-width: 1.5;" width="120" x="688.5" y="252"/><text fill="#000000" font-family="Monospace" font-size="10" lengthAdjust="spacingAndGlyphs" textLength="97" x="700" y="264">LMI_ExtFileSystemSetting</text><line style="stroke: #A80036; stroke-width: 1.5;" x1="689.5" x2="807.5" y1="268.4063" y2="268.4063"/><text fill="#000000" font-family="Monospace" font-size="10" lengthAdjust="spacingAndGlyphs" textLength="86" x="694.5" y="282.4063">InstanceID = "Setting1"</text><text fill="#000000" font-family="Monospace" font-size="10" lengthAdjust="spacingAndGlyphs" textLength="103" x="694.5" y="294.8125">ActualFileSystemType = ext</text><text fill="#000000" font-family="Monospace" font-size="10" lengthAdjust="spacingAndGlyphs" textLength="76" x="694.5" y="307.2188">JournalSize = NULL</text><text fill="#000000" font-family="Monospace" font-size="10" lengthAdjust="spacingAndGlyphs" textLength="79" x="694.5" y="319.625">BlockSizeMin = 1024</text><text fill="#000000" font-family="Monospace" font-size="10" lengthAdjust="spacingAndGlyphs" textLength="81" x="694.5" y="332.0313">BlockSizeMax = 4096</text><text fill="#000000" font-family="Monospace" font-size="10" lengthAdjust="spacingAndGlyphs" textLength="67" x="694.5" y="344.4375">BlockSize = NULL</text><text fill="#000000" font-family="Monospace" font-size="10" lengthAdjust="spacingAndGlyphs" textLength="96" x="694.5" y="356.8438">ReservedBlocksMin = 0%</text><text fill="#000000" font-family="Monospace" font-size="10" lengthAdjust="spacingAndGlyphs" textLength="108" x="694.5" y="369.25">ReservedBlocksMax = 100%</text><text fill="#000000" font-family="Monospace" font-size="10" lengthAdjust="spacingAndGlyphs" textLength="82" x="694.5" y="381.6563">ReservedBlocks = 5%</text><polygon fill="#FBFB77" filter="url(#f1)" points="667,449,667,483.8125,830,483.8125,830,459,820,449,667,449" style="stroke: #A80036; stroke-width: 1.0;"/><polygon fill="#FBFB77" points="667,449,667,483.8125,830,483.8125,830,459,820,449,752.5,449,748.5,388.1736,744.5,449,667,449" style="stroke: #A80036; stroke-width: 1.0;"/><line style="stroke: #A80036; stroke-width: 1.0;" x1="820" x2="820" y1="449" y2="459"/><line style="stroke: #A80036; stroke-width: 1.0;" x1="830" x2="820" y1="459" y2="459"/><text fill="#000000" font-family="Monospace" font-size="10" lengthAdjust="spacingAndGlyphs" textLength="115" x="673" y="464">Definition of min/max values of</text><text fill="#000000" font-family="Monospace" font-size="10" lengthAdjust="spacingAndGlyphs" textLength="142" x="673" y="476.4063">properties that ext filesystem supports</text><rect fill="#FEFECE" filter="url(#f1)" height="111.25" style="stroke: #A80036; stroke-width: 1.5;" width="115" x="57" y="264.5"/><text fill="#000000" font-family="Monospace" font-size="10" lengthAdjust="spacingAndGlyphs" textLength="101" x="64" y="276.5">LMI_XFSFileSystemSetting</text><line style="stroke: #A80036; stroke-width: 1.5;" x1="58" x2="171" y1="280.9063" y2="280.9063"/><text fill="#000000" font-family="Monospace" font-size="10" lengthAdjust="spacingAndGlyphs" textLength="86" x="63" y="294.9063">InstanceID = "Setting2"</text><text fill="#000000" font-family="Monospace" font-size="10" lengthAdjust="spacingAndGlyphs" textLength="102" x="63" y="307.3125">ActualFileSystemType = xfs</text><text fill="#000000" font-family="Monospace" font-size="10" lengthAdjust="spacingAndGlyphs" textLength="76" x="63" y="319.7188">JournalSize = NULL</text><text fill="#000000" font-family="Monospace" font-size="10" lengthAdjust="spacingAndGlyphs" textLength="74" x="63" y="332.125">BlockSizeMin = 512</text><text fill="#000000" font-family="Monospace" font-size="10" lengthAdjust="spacingAndGlyphs" textLength="86" x="63" y="344.5313">BlockSizeMax = 65536</text><text fill="#000000" font-family="Monospace" font-size="10" lengthAdjust="spacingAndGlyphs" textLength="65" x="63" y="356.9375">BlockSize = 4096</text><text fill="#000000" font-family="Monospace" font-size="10" lengthAdjust="spacingAndGlyphs" textLength="76" x="63" y="369.3438">JournalVersions = 2</text><polygon fill="#FBFB77" filter="url(#f1)" points="31,449,31,483.8125,198,483.8125,198,459,188,449,31,449" style="stroke: #A80036; stroke-width: 1.0;"/><polygon fill="#FBFB77" points="31,449,31,483.8125,198,483.8125,198,459,188,449,118.5,449,114.5,375.629,110.5,449,31,449" style="stroke: #A80036; stroke-width: 1.0;"/><line style="stroke: #A80036; stroke-width: 1.0;" x1="188" x2="188" y1="449" y2="459"/><line style="stroke: #A80036; stroke-width: 1.0;" x1="198" x2="188" y1="459" y2="459"/><text fill="#000000" font-family="Monospace" font-size="10" lengthAdjust="spacingAndGlyphs" textLength="115" x="37" y="464">Definition of min/max values of</text><text fill="#000000" font-family="Monospace" font-size="10" lengthAdjust="spacingAndGlyphs" textLength="146" x="37" y="476.4063">properties that XFS filesystem supports</text><path d="M507.885,141 C547.412,141 596.171,141 639.439,141 " fill="none" style="stroke: #A80036; stroke-width: 1.0;"/><text fill="#000000" font-family="Monospace" font-size="10" lengthAdjust="spacingAndGlyphs" textLength="95" x="526" y="135">LMI_ElementCapabilities</text><path d="M222.365,141 C265.276,141 313.691,141 353.021,141 " fill="none" style="stroke: #A80036; stroke-width: 1.0;"/><text fill="#000000" font-family="Monospace" font-size="10" lengthAdjust="spacingAndGlyphs" textLength="95" x="240.25" y="135">LMI_ElementCapabilities</text><path d="M430.5,178.246 C430.5,204.846 430.5,241.257 430.5,270.382 " fill="none" style="stroke: #A80036; stroke-width: 1.0;"/><text fill="#000000" font-family="Monospace" font-size="10" lengthAdjust="spacingAndGlyphs" textLength="95" x="431.5" y="219">LMI_ElementCapabilities</text><path d="M748.5,172.026 C748.5,193.823 748.5,224.186 748.5,251.66 " fill="none" style="stroke: #A80036; stroke-width: 1.0;"/><text fill="#000000" font-family="Monospace" font-size="10" lengthAdjust="spacingAndGlyphs" textLength="119" x="749.5" y="219">LMI_SettingsDefineCapabilities</text><path d="M114.5,172.026 C114.5,197.275 114.5,234.019 114.5,264.45 " fill="none" style="stroke: #A80036; stroke-width: 1.0;"/><text fill="#000000" font-family="Monospace" font-size="10" lengthAdjust="spacingAndGlyphs" textLength="119" x="115.5" y="219">LMI_SettingsDefineCapabilities</text></g></svg>