<?xml version="1.0" encoding="UTF-8" standalone="yes"?><svg xmlns="http://www.w3.org/2000/svg" xmlns:xlink="http://www.w3.org/1999/xlink" height="251pt" style="width:334px;height:251px;" version="1.1" viewBox="0 0 334 251" width="334pt"><defs><filter height="300%" id="f1" width="300%" x="-1" y="-1"><feGaussianBlur result="blurOut" stdDeviation="2.0"/><feColorMatrix in="blurOut" result="blurOut2" type="matrix" values="0 0 0 0 0 0 0 0 0 0 0 0 0 0 0 0 0 0 .4 0"/><feOffset dx="4.0" dy="4.0" in="blurOut2" result="blurOut3"/><feBlend in="SourceGraphic" in2="blurOut3" mode="normal"/></filter></defs><g><rect fill="#FEFECE" filter="url(#f1)" height="74.0313" style="stroke: #A80036; stroke-width: 1.5;" width="125" x="6" y="8"/><text fill="#000000" font-family="Monospace" font-size="10" lengthAdjust="spacingAndGlyphs" textLength="73" x="32" y="20">extLocalFileSystem</text><line style="stroke: #A80036; stroke-width: 1.5;" x1="7" x2="130" y1="24.4063" y2="24.4063"/><text fill="#000000" font-family="Monospace" font-size="10" lengthAdjust="spacingAndGlyphs" textLength="75" x="12" y="38.4063">Name = "/dev/sda1"</text><text fill="#000000" font-family="Monospace" font-size="10" lengthAdjust="spacingAndGlyphs" textLength="65" x="12" y="50.8125">BlockSize = 4096</text><text fill="#000000" font-family="Monospace" font-size="10" lengthAdjust="spacingAndGlyphs" textLength="113" x="12" y="63.2188">AvailableSpace = 920223744</text><text fill="#000000" font-family="Monospace" font-size="10" lengthAdjust="spacingAndGlyphs" textLength="111" x="12" y="75.625">FileSystemSize = 103208550</text><polygon fill="#FBFB77" filter="url(#f1)" points="201,34,201,56.4063,298,56.4063,298,44,288,34,201,34" style="stroke: #A80036; stroke-width: 1.0;"/><polygon fill="#FBFB77" points="201,34,201,41,131.072,45,201,49,201,56.4063,298,56.4063,298,44,288,34,201,34" style="stroke: #A80036; stroke-width: 1.0;"/><line style="stroke: #A80036; stroke-width: 1.0;" x1="288" x2="288" y1="34" y2="44"/><line style="stroke: #A80036; stroke-width: 1.0;" x1="298" x2="288" y1="44" y2="44"/><text fill="#000000" font-family="Monospace" font-size="10" lengthAdjust="spacingAndGlyphs" textLength="76" x="207" y="49">State of a file system</text><rect fill="#FEFECE" filter="url(#f1)" height="86.4375" style="stroke: #A80036; stroke-width: 1.5;" width="115" x="11" y="156"/><text fill="#000000" font-family="Monospace" font-size="10" lengthAdjust="spacingAndGlyphs" textLength="78" x="29.5" y="168">extFileSystemSetting</text><line style="stroke: #A80036; stroke-width: 1.5;" x1="12" x2="125" y1="172.4063" y2="172.4063"/><text fill="#000000" font-family="Monospace" font-size="10" lengthAdjust="spacingAndGlyphs" textLength="103" x="17" y="186.4063">ActualFileSystemType = ext</text><text fill="#000000" font-family="Monospace" font-size="10" lengthAdjust="spacingAndGlyphs" textLength="94" x="17" y="198.8125">JournalSize = 16777216</text><text fill="#000000" font-family="Monospace" font-size="10" lengthAdjust="spacingAndGlyphs" textLength="81" x="17" y="211.2188">BlockSizeMin = NULL</text><text fill="#000000" font-family="Monospace" font-size="10" lengthAdjust="spacingAndGlyphs" textLength="83" x="17" y="223.625">BlockSizeMax = NULL</text><text fill="#000000" font-family="Monospace" font-size="10" lengthAdjust="spacingAndGlyphs" textLength="65" x="17" y="236.0313">BlockSize = 4096</text><polygon fill="#FBFB77" filter="url(#f1)" points="195.5,188,195.5,210.4063,325.5,210.4063,325.5,198,315.5,188,195.5,188" style="stroke: #A80036; stroke-width: 1.0;"/><polygon fill="#FBFB77" points="195.5,188,195.5,195,126.25,199,195.5,203,195.5,210.4063,325.5,210.4063,325.5,198,315.5,188,195.5,188" style="stroke: #A80036; stroke-width: 1.0;"/><line style="stroke: #A80036; stroke-width: 1.0;" x1="315.5" x2="315.5" y1="188" y2="198"/><line style="stroke: #A80036; stroke-width: 1.0;" x1="325.5" x2="315.5" y1="198" y2="198"/><text fill="#000000" font-family="Monospace" font-size="10" lengthAdjust="spacingAndGlyphs" textLength="109" x="201.5" y="203">Configuration of a file system</text><path d="M68.5,82.022 C68.5,104.145 68.5,132.586 68.5,155.7668 " fill="none" style="stroke: #A80036; stroke-width: 1.0;"/><text fill="#000000" font-family="Monospace" font-size="10" lengthAdjust="spacingAndGlyphs" textLength="95" x="69.5" y="123">CIM_ElementSettingData</text></g></svg>