<?xml version="1.0" encoding="UTF-8" standalone="yes"?><svg xmlns="http://www.w3.org/2000/svg" xmlns:xlink="http://www.w3.org/1999/xlink" height="410pt" style="width:475px;height:410px;" version="1.1" viewBox="0 0 475 410" width="475pt"><defs><filter height="300%" id="f1" width="300%" x="-1" y="-1"><feGaussianBlur result="blurOut" stdDeviation="2.0"/><feColorMatrix in="blurOut" result="blurOut2" type="matrix" values="0 0 0 0 0 0 0 0 0 0 0 0 0 0 0 0 0 0 .4 0"/><feOffset dx="4.0" dy="4.0" in="blurOut2" result="blurOut3"/><feBlend in="SourceGraphic" in2="blurOut3" mode="normal"/></filter></defs><g><rect fill="#FEFECE" filter="url(#f1)" height="49.2188" style="stroke: #A80036; stroke-width: 1.5;" width="190" x="164.5" y="131"/><text fill="#000000" font-family="Monospace" font-size="10" lengthAdjust="spacingAndGlyphs" textLength="63" x="228" y="143">LMI_StorageJob</text><line style="stroke: #A80036; stroke-width: 1.5;" x1="165.5" x2="353.5" y1="147.4063" y2="147.4063"/><text fill="#000000" font-family="Monospace" font-size="10" lengthAdjust="spacingAndGlyphs" textLength="178" x="170.5" y="161.4063">Name = "CREATE VG ON /dev/sda1+/dev/sdb1"</text><text fill="#000000" font-family="Monospace" font-size="10" lengthAdjust="spacingAndGlyphs" textLength="90" x="170.5" y="173.8125">JobState = "Completed"</text><rect fill="#FEFECE" filter="url(#f1)" height="36.8125" style="stroke: #A80036; stroke-width: 1.5;" width="91" x="124" y="365"/><text fill="#000000" font-family="Monospace" font-size="10" lengthAdjust="spacingAndGlyphs" textLength="77" x="131" y="377">LMI_StorageExtent1</text><line style="stroke: #A80036; stroke-width: 1.5;" x1="125" x2="214" y1="381.4063" y2="381.4063"/><text fill="#000000" font-family="Monospace" font-size="10" lengthAdjust="spacingAndGlyphs" textLength="71" x="130" y="395.4063">Name="/dev/sda1"</text><rect fill="#FEFECE" filter="url(#f1)" height="36.8125" style="stroke: #A80036; stroke-width: 1.5;" width="91" x="305" y="365"/><text fill="#000000" font-family="Monospace" font-size="10" lengthAdjust="spacingAndGlyphs" textLength="77" x="312" y="377">LMI_StorageExtent2</text><line style="stroke: #A80036; stroke-width: 1.5;" x1="306" x2="395" y1="381.4063" y2="381.4063"/><text fill="#000000" font-family="Monospace" font-size="10" lengthAdjust="spacingAndGlyphs" textLength="73" x="311" y="395.4063">"name="/dev/sdb1"</text><rect fill="#FEFECE" filter="url(#f1)" height="49.2188" style="stroke: #A80036; stroke-width: 1.5;" width="267" x="6" y="8"/><text fill="#000000" font-family="Monospace" font-size="10" lengthAdjust="spacingAndGlyphs" textLength="102" x="88.5" y="20">LMI_StorageMethodResult</text><line style="stroke: #A80036; stroke-width: 1.5;" x1="7" x2="272" y1="24.4063" y2="24.4063"/><text fill="#000000" font-family="Monospace" font-size="10" lengthAdjust="spacingAndGlyphs" textLength="254" x="12" y="38.4063">PreCallIndication = "&lt;embedded instance of CIM_InstMethodCall&gt;"</text><text fill="#000000" font-family="Monospace" font-size="10" lengthAdjust="spacingAndGlyphs" textLength="255" x="12" y="50.8125">PostCallIndication ="&lt;embedded instance of CIM_InstMethodCall&gt;"</text><rect fill="#FEFECE" filter="url(#f1)" height="36.8125" style="stroke: #A80036; stroke-width: 1.5;" width="91" x="214" y="254"/><text fill="#000000" font-family="Monospace" font-size="10" lengthAdjust="spacingAndGlyphs" textLength="77" x="221" y="266">LMI_VGStoragePool</text><line style="stroke: #A80036; stroke-width: 1.5;" x1="215" x2="304" y1="270.4063" y2="270.4063"/><text fill="#000000" font-family="Monospace" font-size="10" lengthAdjust="spacingAndGlyphs" textLength="62" x="220" y="284.4063">Name="myPool"</text><rect fill="#FEFECE" filter="url(#f1)" height="32.4063" style="stroke: #A80036; stroke-width: 1.5;" width="143" x="308" y="16.5"/><text fill="#000000" font-family="Monospace" font-size="10" lengthAdjust="spacingAndGlyphs" textLength="129" x="315" y="28.5">LMI_StorageConfigurationService</text><line style="stroke: #A80036; stroke-width: 1.5;" x1="309" x2="450" y1="32.9063" y2="32.9063"/><path d="M149.369,57.186 C155.936,71.034 165.548,88.241 177.5,101 C188.191,112.413 201.788,122.533 214.822,130.814 " fill="none" style="stroke: #A80036; stroke-width: 1.0;"/><text fill="#000000" font-family="Monospace" font-size="10" lengthAdjust="spacingAndGlyphs" textLength="157" x="178.5" y="98">LMI_AssociatedStorageJobMethodResult</text><path d="M373.176,48.759 C366.581,63.37 355.162,85.434 340.5,101 C329.754,112.409 316.125,122.589 303.127,130.928 " fill="none" style="stroke: #A80036; stroke-width: 1.0;"/><text fill="#000000" font-family="Monospace" font-size="10" lengthAdjust="spacingAndGlyphs" textLength="123" x="351.5" y="98">LMI_OwningStorageJobElement</text><path d="M259.5,180.049 C259.5,201.997 259.5,234.227 259.5,253.984 " fill="none" style="stroke: #A80036; stroke-width: 1.0;"/><text fill="#000000" font-family="Monospace" font-size="10" lengthAdjust="spacingAndGlyphs" textLength="124" x="260.5" y="221">LMI_AffectedStorageJobElement</text><path d="M213.903,285.434 C195.886,292.626 177.007,303.8362 166.5,321 C158.519,334.0377 160.391,351.6995 163.598,364.7513 " fill="none" style="stroke: #A80036; stroke-width: 1.0;"/><text fill="#000000" font-family="Monospace" font-size="10" lengthAdjust="spacingAndGlyphs" textLength="139" x="167.5" y="332">LMI_VGAssociatedComponentExtent</text><path d="M281.224,291.051 C291.053,299.546 302.464,310.226 311.5,321 C323.036,334.7558 333.774,352.1735 341.05,364.9583 " fill="none" style="stroke: #A80036; stroke-width: 1.0;"/><text fill="#000000" font-family="Monospace" font-size="10" lengthAdjust="spacingAndGlyphs" textLength="139" x="321.5" y="332">LMI_VGAssociatedComponentExtent</text></g></svg>