<?xml version="1.0" encoding="UTF-8" standalone="yes"?><svg xmlns="http://www.w3.org/2000/svg" xmlns:xlink="http://www.w3.org/1999/xlink" height="495pt" style="width:726px;height:495px;" version="1.1" viewBox="0 0 726 495" width="726pt"><defs><filter height="300%" id="f1" width="300%" x="-1" y="-1"><feGaussianBlur result="blurOut" stdDeviation="2"/><feColorMatrix in="blurOut" result="blurOut2" type="matrix" values="0 0 0 0 0 0 0 0 0 0 0 0 0 0 0 0 0 0 .4 0"/><feOffset dx="4" dy="4" in="blurOut2" result="blurOut3"/><feBlend in="SourceGraphic" in2="blurOut3" mode="normal"/></filter></defs><g><ellipse cx="230.25" cy="18" fill="#000000" filter="url(#f1)" rx="10" ry="10" style="stroke: none; stroke-width: 1.0;"/><rect fill="#FEFECE" filter="url(#f1)" height="54.9219" rx="12.5" ry="12.5" style="stroke: #A80036; stroke-width: 1.5;" width="184" x="138.25" y="90.5"/><line style="stroke: #A80036; stroke-width: 1.5;" x1="138.25" x2="322.25" y1="112.1406" y2="112.1406"/><text fill="#000000" font-family="Monospace" font-size="10" lengthAdjust="spacingAndGlyphs" textLength="38" x="211.25" y="105.5">Queued</text><text fill="#000000" font-family="Monospace" font-size="10" lengthAdjust="spacingAndGlyphs" textLength="164" x="143.25" y="127.1406">OperationalStatus = ["Dormant"]</text><text fill="#000000" font-family="Monospace" font-size="10" lengthAdjust="spacingAndGlyphs" textLength="88" x="143.25" y="138.7813">JobState = "New"</text><rect fill="#FEFECE" filter="url(#f1)" height="54.9219" rx="12.5" ry="12.5" style="stroke: #A80036; stroke-width: 1.5;" width="155" x="248" y="220.5"/><line style="stroke: #A80036; stroke-width: 1.5;" x1="248" x2="403" y1="242.1406" y2="242.1406"/><text fill="#000000" font-family="Monospace" font-size="10" lengthAdjust="spacingAndGlyphs" textLength="54" x="298.5" y="235.5">Suspended</text><text fill="#000000" font-family="Monospace" font-size="10" lengthAdjust="spacingAndGlyphs" textLength="135" x="253" y="257.1406">OperationalStatus = ["OK"]</text><text fill="#000000" font-family="Monospace" font-size="10" lengthAdjust="spacingAndGlyphs" textLength="120" x="253" y="268.7813">JobState = "Suspended"</text><rect fill="#FEFECE" filter="url(#f1)" height="54.9219" rx="12.5" ry="12.5" style="stroke: #A80036; stroke-width: 1.5;" width="155" x="438" y="220.5"/><line style="stroke: #A80036; stroke-width: 1.5;" x1="438" x2="593" y1="242.1406" y2="242.1406"/><text fill="#000000" font-family="Monospace" font-size="10" lengthAdjust="spacingAndGlyphs" textLength="39" x="496" y="235.5">Running</text><text fill="#000000" font-family="Monospace" font-size="10" lengthAdjust="spacingAndGlyphs" textLength="135" x="443" y="257.1406">OperationalStatus = ["OK"]</text><text fill="#000000" font-family="Monospace" font-size="10" lengthAdjust="spacingAndGlyphs" textLength="105" x="443" y="268.7813">JobState = "Running"</text><rect fill="#FEFECE" filter="url(#f1)" height="54.9219" rx="12.5" ry="12.5" style="stroke: #A80036; stroke-width: 1.5;" width="181" x="6" y="350.5"/><line style="stroke: #A80036; stroke-width: 1.5;" x1="6" x2="187" y1="372.1406" y2="372.1406"/><text fill="#000000" font-family="Monospace" font-size="10" lengthAdjust="spacingAndGlyphs" textLength="47" x="73" y="365.5">Cancelled</text><text fill="#000000" font-family="Monospace" font-size="10" lengthAdjust="spacingAndGlyphs" textLength="161" x="11" y="387.1406">OperationalStatus = ["Stopped"]</text><text fill="#000000" font-family="Monospace" font-size="10" lengthAdjust="spacingAndGlyphs" textLength="121" x="11" y="398.7813">JobState = "Terminated"</text><rect fill="#FEFECE" filter="url(#f1)" height="54.9219" rx="12.5" ry="12.5" style="stroke: #A80036; stroke-width: 1.5;" width="225" x="222" y="350.5"/><line style="stroke: #A80036; stroke-width: 1.5;" x1="222" x2="447" y1="372.1406" y2="372.1406"/><text fill="#000000" font-family="Monospace" font-size="10" lengthAdjust="spacingAndGlyphs" textLength="39" x="315" y="365.5">Finished</text><text fill="#000000" font-family="Monospace" font-size="10" lengthAdjust="spacingAndGlyphs" textLength="205" x="227" y="387.1406">OperationalStatus = ["Completed", "OK"]</text><text fill="#000000" font-family="Monospace" font-size="10" lengthAdjust="spacingAndGlyphs" textLength="120" x="227" y="398.7813">JobState = "Completed"</text><rect fill="#FEFECE" filter="url(#f1)" height="54.9219" rx="12.5" ry="12.5" style="stroke: #A80036; stroke-width: 1.5;" width="235" x="482" y="350.5"/><line style="stroke: #A80036; stroke-width: 1.5;" x1="482" x2="717" y1="372.1406" y2="372.1406"/><text fill="#000000" font-family="Monospace" font-size="10" lengthAdjust="spacingAndGlyphs" textLength="28" x="585.5" y="365.5">Failed</text><text fill="#000000" font-family="Monospace" font-size="10" lengthAdjust="spacingAndGlyphs" textLength="215" x="487" y="387.1406">OperationalStatus = ["Completed", "Error"]</text><text fill="#000000" font-family="Monospace" font-size="10" lengthAdjust="spacingAndGlyphs" textLength="114" x="487" y="398.7813">JobState = "Exception"</text><ellipse cx="334.25" cy="478" fill="none" filter="url(#f1)" rx="10" ry="10" style="stroke: #000000; stroke-width: 1.0;"/><ellipse cx="334.75" cy="478.5" fill="#000000" rx="6" ry="6" style="stroke: none; stroke-width: 1.0;"/><path d="M230.25,28.044 C230.25,40.919 230.25,65.182 230.25,85.12 " fill="none" style="stroke: #A80036; stroke-width: 1.0;"/><polygon fill="#A80036" points="230.25,90.351,234.25,81.351,230.25,85.351,226.25,81.351,230.25,90.351" style="stroke: #A80036; stroke-width: 1.0;"/><path d="M150.502,145.564 C128.936,157.127 114.832,172.149 128.25,190 C131.993,194.98 190.547,211.557 242.85,225.559 " fill="none" style="stroke: #A80036; stroke-width: 1.0;"/><polygon fill="#A80036" points="247.889,226.906,240.2272,220.7176,243.0586,225.6148,238.1613,228.4462,247.889,226.906" style="stroke: #A80036; stroke-width: 1.0;"/><text fill="#000000" font-family="Monospace" font-size="10" lengthAdjust="spacingAndGlyphs" textLength="155" x="129.25" y="187">RequestStateChange(Suspend)</text><path d="M314.839,220.444 C308.741,206.536 300.27,189.613 290.25,176 C283.245,166.483 274.547,157.197 265.968,148.977 " fill="none" style="stroke: #A80036; stroke-width: 1.0;"/><polygon fill="#A80036" points="262.304,145.521,266.1091,154.6051,265.9423,148.9507,271.5967,148.7839,262.304,145.521" style="stroke: #A80036; stroke-width: 1.0;"/><text fill="#000000" font-family="Monospace" font-size="10" lengthAdjust="spacingAndGlyphs" textLength="138" x="300.25" y="187">RequestStateChange(Start)</text><path d="M322.457,131.333 C363.084,139.652 410.139,153.41 448.25,176 C465.575,186.269 481.252,202.302 493.078,216.536 " fill="none" style="stroke: #A80036; stroke-width: 1.0;"/><polygon fill="#A80036" points="496.309,220.496,493.7181,210.994,493.1479,216.6221,487.5198,216.0518,496.309,220.496" style="stroke: #A80036; stroke-width: 1.0;"/><text fill="#000000" font-family="Monospace" font-size="10" lengthAdjust="spacingAndGlyphs" textLength="73" x="467.25" y="187">(automatically)</text><path d="M148.827,145.548 C115.467,161.266 81.0222,185.111 65.25,220 C46.706,261.021 64.055,313.01 79.2901,345.649 " fill="none" style="stroke: #A80036; stroke-width: 1.0;"/><polygon fill="#A80036" points="81.518,350.321,81.2559,340.4756,79.3664,345.8076,74.0345,343.9181,81.518,350.321" style="stroke: #A80036; stroke-width: 1.0;"/><text fill="#000000" font-family="Monospace" font-size="10" lengthAdjust="spacingAndGlyphs" textLength="162" x="66.25" y="252">RequestStateChange(Terminate)</text><path d="M277.801,275.522 C240.16,296.561 187.592,325.944 148.704,347.681 " fill="none" style="stroke: #A80036; stroke-width: 1.0;"/><polygon fill="#A80036" points="144.032,350.292,153.8396,349.3914,148.3962,347.852,149.9356,342.4087,144.032,350.292" style="stroke: #A80036; stroke-width: 1.0;"/><text fill="#000000" font-family="Monospace" font-size="10" lengthAdjust="spacingAndGlyphs" textLength="162" x="219.25" y="317">RequestStateChange(Terminate)</text><path d="M477.747,275.522 C448.237,296.39 407.121,325.467 376.461,347.149 " fill="none" style="stroke: #A80036; stroke-width: 1.0;"/><polygon fill="#A80036" points="372.016,350.292,381.6735,348.36,376.0979,347.4045,377.0535,341.8289,372.016,350.292" style="stroke: #A80036; stroke-width: 1.0;"/><text fill="#000000" font-family="Monospace" font-size="10" lengthAdjust="spacingAndGlyphs" textLength="73" x="431.25" y="317">(automatically)</text><path d="M532.655,275.522 C546.08,295.979 564.682,324.325 578.814,345.86 " fill="none" style="stroke: #A80036; stroke-width: 1.0;"/><polygon fill="#A80036" points="581.578,350.072,579.9824,340.3533,578.8339,345.8923,573.2949,344.7438,581.578,350.072" style="stroke: #A80036; stroke-width: 1.0;"/><text fill="#000000" font-family="Monospace" font-size="10" lengthAdjust="spacingAndGlyphs" textLength="73" x="560.25" y="317">(automatically)</text><path d="M334.25,405.5202 C334.25,423.897 334.25,447.6596 334.25,462.62 " fill="none" style="stroke: #A80036; stroke-width: 1.0;"/><polygon fill="#A80036" points="334.25,467.7073,338.25,458.7073,334.25,462.7073,330.25,458.7073,334.25,467.7073" style="stroke: #A80036; stroke-width: 1.0;"/><path d="M527.537,405.5202 C465.846,428.3345 381.708,459.4494 348.533,471.7181 " fill="none" style="stroke: #A80036; stroke-width: 1.0;"/><polygon fill="#A80036" points="343.657,473.5211,353.4857,474.1511,348.3466,471.7869,350.7109,466.6478,343.657,473.5211" style="stroke: #A80036; stroke-width: 1.0;"/><path d="M160.656,405.5202 C215.314,428.0262 289.589,458.6102 320.19,471.2106 " fill="none" style="stroke: #A80036; stroke-width: 1.0;"/><polygon fill="#A80036" points="325.05,473.2118,318.2516,466.0857,320.4268,471.3076,315.2049,473.4828,325.05,473.2118" style="stroke: #A80036; stroke-width: 1.0;"/></g></svg>