<?xml version="1.0" encoding="UTF-8" standalone="yes"?><svg xmlns="http://www.w3.org/2000/svg" xmlns:xlink="http://www.w3.org/1999/xlink" height="496pt" style="width:572px;height:496px;" version="1.1" viewBox="0 0 572 496" width="572pt"><defs><filter height="300%" id="f1" width="300%" x="-1" y="-1"><feGaussianBlur result="blurOut" stdDeviation="2.0"/><feColorMatrix in="blurOut" result="blurOut2" type="matrix" values="0 0 0 0 0 0 0 0 0 0 0 0 0 0 0 0 0 0 .4 0"/><feOffset dx="4.0" dy="4.0" in="blurOut2" result="blurOut3"/><feBlend in="SourceGraphic" in2="blurOut3" mode="normal"/></filter></defs><g><ellipse cx="178.5" cy="18" fill="#000000" filter="url(#f1)" rx="10" ry="10" style="stroke: none; stroke-width: 1.0;"/><rect fill="#FEFECE" filter="url(#f1)" height="57.2188" rx="12.5" ry="12.5" style="stroke: #A80036; stroke-width: 1.5;" width="140" x="108.5" y="89"/><line style="stroke: #A80036; stroke-width: 1.5;" x1="108.5" x2="248.5" y1="111.4063" y2="111.4063"/><text fill="#000000" font-family="Monospace" font-size="10" lengthAdjust="spacingAndGlyphs" textLength="31" x="163" y="104">Queued</text><text fill="#000000" font-family="Monospace" font-size="10" lengthAdjust="spacingAndGlyphs" textLength="120" x="113.5" y="126.4063">OperationalStatus = ["Dormant"]</text><text fill="#000000" font-family="Monospace" font-size="10" lengthAdjust="spacingAndGlyphs" textLength="65" x="113.5" y="138.8125">JobState = "New"</text><rect fill="#FEFECE" filter="url(#f1)" height="57.2188" rx="12.5" ry="12.5" style="stroke: #A80036; stroke-width: 1.5;" width="118" x="198.5" y="220"/><line style="stroke: #A80036; stroke-width: 1.5;" x1="198.5" x2="316.5" y1="242.4063" y2="242.4063"/><text fill="#000000" font-family="Monospace" font-size="10" lengthAdjust="spacingAndGlyphs" textLength="44" x="235.5" y="235">Suspended</text><text fill="#000000" font-family="Monospace" font-size="10" lengthAdjust="spacingAndGlyphs" textLength="98" x="203.5" y="257.4063">OperationalStatus = ["OK"]</text><text fill="#000000" font-family="Monospace" font-size="10" lengthAdjust="spacingAndGlyphs" textLength="92" x="203.5" y="269.8125">JobState = "Suspended"</text><rect fill="#FEFECE" filter="url(#f1)" height="57.2188" rx="12.5" ry="12.5" style="stroke: #A80036; stroke-width: 1.5;" width="118" x="351.5" y="220"/><line style="stroke: #A80036; stroke-width: 1.5;" x1="351.5" x2="469.5" y1="242.4063" y2="242.4063"/><text fill="#000000" font-family="Monospace" font-size="10" lengthAdjust="spacingAndGlyphs" textLength="33" x="394" y="235">Running</text><text fill="#000000" font-family="Monospace" font-size="10" lengthAdjust="spacingAndGlyphs" textLength="98" x="356.5" y="257.4063">OperationalStatus = ["OK"]</text><text fill="#000000" font-family="Monospace" font-size="10" lengthAdjust="spacingAndGlyphs" textLength="81" x="356.5" y="269.8125">JobState = "Running"</text><rect fill="#FEFECE" filter="url(#f1)" height="57.2188" rx="12.5" ry="12.5" style="stroke: #A80036; stroke-width: 1.5;" width="139" x="6" y="351"/><line style="stroke: #A80036; stroke-width: 1.5;" x1="6" x2="145" y1="373.4063" y2="373.4063"/><text fill="#000000" font-family="Monospace" font-size="10" lengthAdjust="spacingAndGlyphs" textLength="39" x="56" y="366">Cancelled</text><text fill="#000000" font-family="Monospace" font-size="10" lengthAdjust="spacingAndGlyphs" textLength="119" x="11" y="388.4063">OperationalStatus = ["Stopped"]</text><text fill="#000000" font-family="Monospace" font-size="10" lengthAdjust="spacingAndGlyphs" textLength="92" x="11" y="400.8125">JobState = "Terminated"</text><rect fill="#FEFECE" filter="url(#f1)" height="57.2188" rx="12.5" ry="12.5" style="stroke: #A80036; stroke-width: 1.5;" width="170" x="180.5" y="351"/><line style="stroke: #A80036; stroke-width: 1.5;" x1="180.5" x2="350.5" y1="373.4063" y2="373.4063"/><text fill="#000000" font-family="Monospace" font-size="10" lengthAdjust="spacingAndGlyphs" textLength="33" x="249" y="366">Finished</text><text fill="#000000" font-family="Monospace" font-size="10" lengthAdjust="spacingAndGlyphs" textLength="150" x="185.5" y="388.4063">OperationalStatus = ["Completed", "OK"]</text><text fill="#000000" font-family="Monospace" font-size="10" lengthAdjust="spacingAndGlyphs" textLength="90" x="185.5" y="400.8125">JobState = "Completed"</text><rect fill="#FEFECE" filter="url(#f1)" height="57.2188" rx="12.5" ry="12.5" style="stroke: #A80036; stroke-width: 1.5;" width="178" x="385.5" y="351"/><line style="stroke: #A80036; stroke-width: 1.5;" x1="385.5" x2="563.5" y1="373.4063" y2="373.4063"/><text fill="#000000" font-family="Monospace" font-size="10" lengthAdjust="spacingAndGlyphs" textLength="24" x="462.5" y="366">Failed</text><text fill="#000000" font-family="Monospace" font-size="10" lengthAdjust="spacingAndGlyphs" textLength="158" x="390.5" y="388.4063">OperationalStatus = ["Completed", "Error"]</text><text fill="#000000" font-family="Monospace" font-size="10" lengthAdjust="spacingAndGlyphs" textLength="85" x="390.5" y="400.8125">JobState = "Exception"</text><ellipse cx="265.5" cy="479" fill="none" filter="url(#f1)" rx="10" ry="10" style="stroke: #000000; stroke-width: 1.0;"/><ellipse cx="266" cy="479.5" fill="#000000" rx="6" ry="6" style="stroke: none; stroke-width: 1.0;"/><path d="M178.5,28.349 C178.5,40.983 178.5,64.164 178.5,83.584 " fill="none" style="stroke: #A80036; stroke-width: 1.0;"/><polygon fill="#A80036" points="178.5,88.949,182.5,79.949,178.5,83.949,174.5,79.949,178.5,88.949" style="stroke: #A80036; stroke-width: 1.0;"/><path d="M113.239,146.033 C94.3366,158.059 81.621,173.247 93.5,190 C96.6572,194.453 148.66,212.248 193.271,226.877 " fill="none" style="stroke: #A80036; stroke-width: 1.0;"/><polygon fill="#A80036" points="198.115,228.463,190.8065,221.8611,193.3632,226.9072,188.3171,229.4639,198.115,228.463" style="stroke: #A80036; stroke-width: 1.0;"/><text fill="#000000" font-family="Monospace" font-size="10" lengthAdjust="spacingAndGlyphs" textLength="122" x="94.5" y="187">RequestStateChange(Suspend)</text><path d="M244.92,219.725 C238.454,206.225 230.131,189.944 221.5,176 C216.241,167.504 210.06,158.691 204.049,150.593 " fill="none" style="stroke: #A80036; stroke-width: 1.0;"/><polygon fill="#A80036" points="200.735,146.174,202.935,155.774,203.735,150.174,209.335,150.974,200.735,146.174" style="stroke: #A80036; stroke-width: 1.0;"/><text fill="#000000" font-family="Monospace" font-size="10" lengthAdjust="spacingAndGlyphs" textLength="105" x="230.5" y="187">RequestStateChange(Start)</text><path d="M248.617,134.496 C279.622,143.596 315.533,157.046 344.5,176 C360.642,186.562 375.514,201.927 387.039,215.709 " fill="none" style="stroke: #A80036; stroke-width: 1.0;"/><polygon fill="#A80036" points="390.506,219.928,387.8842,210.4345,387.3323,216.0644,381.7024,215.5125,390.506,219.928" style="stroke: #A80036; stroke-width: 1.0;"/><text fill="#000000" font-family="Monospace" font-size="10" lengthAdjust="spacingAndGlyphs" textLength="56" x="362.5" y="187">(automatically)</text><path d="M118.195,146.182 C90.4898,162.905 61.5669,187.365 51.5,220 C38.4567,262.284 50.8726,313.183 62.1548,345.686 " fill="none" style="stroke: #A80036; stroke-width: 1.0;"/><polygon fill="#A80036" points="63.9518,350.741,64.7044,340.9209,62.2762,346.0301,57.167,343.6019,63.9518,350.741" style="stroke: #A80036; stroke-width: 1.0;"/><text fill="#000000" font-family="Monospace" font-size="10" lengthAdjust="spacingAndGlyphs" textLength="127" x="52.5" y="252.5">RequestStateChange(Terminate)</text><path d="M218.456,277.174 C189.188,297.919 149.136,326.308 118.871,347.759 " fill="none" style="stroke: #A80036; stroke-width: 1.0;"/><polygon fill="#A80036" points="114.479,350.872,124.1345,348.9301,118.558,347.9803,119.5078,342.4037,114.479,350.872" style="stroke: #A80036; stroke-width: 1.0;"/><text fill="#000000" font-family="Monospace" font-size="10" lengthAdjust="spacingAndGlyphs" textLength="127" x="173.5" y="318">RequestStateChange(Terminate)</text><path d="M379.394,277.174 C356.171,297.834 324.427,326.075 300.351,347.495 " fill="none" style="stroke: #A80036; stroke-width: 1.0;"/><polygon fill="#A80036" points="296.555,350.872,305.9375,347.8772,300.2902,347.5481,300.6193,341.9009,296.555,350.872" style="stroke: #A80036; stroke-width: 1.0;"/><text fill="#000000" font-family="Monospace" font-size="10" lengthAdjust="spacingAndGlyphs" textLength="56" x="343.5" y="318">(automatically)</text><path d="M424.23,277.174 C434.269,297.409 447.916,324.916 458.457,346.164 " fill="none" style="stroke: #A80036; stroke-width: 1.0;"/><polygon fill="#A80036" points="460.793,350.872,460.376,341.032,458.5707,346.393,453.2096,344.5877,460.793,350.872" style="stroke: #A80036; stroke-width: 1.0;"/><text fill="#000000" font-family="Monospace" font-size="10" lengthAdjust="spacingAndGlyphs" textLength="56" x="444.5" y="318">(automatically)</text><path d="M265.5,408.1788 C265.5,426.0714 265.5,448.6535 265.5,463.2091 " fill="none" style="stroke: #A80036; stroke-width: 1.0;"/><polygon fill="#A80036" points="265.5,468.5516,269.5,459.5516,265.5,463.5516,261.5,459.5516,265.5,468.5516" style="stroke: #A80036; stroke-width: 1.0;"/><path d="M415.447,408.0486 C368.401,429.9959 306.093,459.0632 279.019,471.6935 " fill="none" style="stroke: #A80036; stroke-width: 1.0;"/><polygon fill="#A80036" points="274.385,473.8551,284.2322,473.6743,278.916,471.7409,280.8494,466.4247,274.385,473.8551" style="stroke: #A80036; stroke-width: 1.0;"/><path d="M129.185,408.0486 C171.365,429.6936 227.04,458.264 252.175,471.1624 " fill="none" style="stroke: #A80036; stroke-width: 1.0;"/><polygon fill="#A80036" points="256.782,473.5264,250.6011,465.8585,252.3336,471.2435,246.9485,472.976,256.782,473.5264" style="stroke: #A80036; stroke-width: 1.0;"/></g></svg>