<?xml version="1.0" encoding="UTF-8" standalone="yes"?><svg xmlns="http://www.w3.org/2000/svg" xmlns:xlink="http://www.w3.org/1999/xlink" height="296pt" style="width:600px;height:296px;" version="1.1" viewBox="0 0 600 296" width="600pt"><defs><filter height="300%" id="f1" width="300%" x="-1" y="-1"><feGaussianBlur result="blurOut" stdDeviation="2"/><feColorMatrix in="blurOut" result="blurOut2" type="matrix" values="0 0 0 0 0 0 0 0 0 0 0 0 0 0 0 0 0 0 .4 0"/><feOffset dx="4" dy="4" in="blurOut2" result="blurOut3"/><feBlend in="SourceGraphic" in2="blurOut3" mode="normal"/></filter></defs><g><rect fill="#FEFECE" filter="url(#f1)" height="46.9219" style="stroke: #A80036; stroke-width: 1.5;" width="249" x="199.75" y="130.5"/><text fill="#000000" font-family="Monospace" font-size="10" lengthAdjust="spacingAndGlyphs" textLength="77" x="285.75" y="142.5">LMI_StorageJob</text><line style="stroke: #A80036; stroke-width: 1.5;" x1="200.75" x2="447.75" y1="146.1406" y2="146.1406"/><text fill="#000000" font-family="Monospace" font-size="10" lengthAdjust="spacingAndGlyphs" textLength="237" x="205.75" y="160.1406">Name = "CREATE VG ON /dev/sda1+/dev/sdb1"</text><text fill="#000000" font-family="Monospace" font-size="10" lengthAdjust="spacingAndGlyphs" textLength="95" x="205.75" y="171.7813">JobState = Running</text><rect fill="#FEFECE" filter="url(#f1)" height="35.2813" style="stroke: #A80036; stroke-width: 1.5;" width="115" x="165.75" y="252.5"/><text fill="#000000" font-family="Monospace" font-size="10" lengthAdjust="spacingAndGlyphs" textLength="101" x="172.75" y="264.5">LMI_StorageExtent1</text><line style="stroke: #A80036; stroke-width: 1.5;" x1="166.75" x2="279.75" y1="268.1406" y2="268.1406"/><text fill="#000000" font-family="Monospace" font-size="10" lengthAdjust="spacingAndGlyphs" textLength="95" x="171.75" y="282.1406">Name="/dev/sda1"</text><rect fill="#FEFECE" filter="url(#f1)" height="35.2813" style="stroke: #A80036; stroke-width: 1.5;" width="115" x="368.75" y="252.5"/><text fill="#000000" font-family="Monospace" font-size="10" lengthAdjust="spacingAndGlyphs" textLength="101" x="375.75" y="264.5">LMI_StorageExtent2</text><line style="stroke: #A80036; stroke-width: 1.5;" x1="369.75" x2="482.75" y1="268.1406" y2="268.1406"/><text fill="#000000" font-family="Monospace" font-size="10" lengthAdjust="spacingAndGlyphs" textLength="98" x="374.75" y="282.1406">"name="/dev/sdb1"</text><rect fill="#FEFECE" filter="url(#f1)" height="46.9219" style="stroke: #A80036; stroke-width: 1.5;" width="342" x="6" y="8.5"/><text fill="#000000" font-family="Monospace" font-size="10" lengthAdjust="spacingAndGlyphs" textLength="129" x="112.5" y="20.5">LMI_StorageMethodResult</text><line style="stroke: #A80036; stroke-width: 1.5;" x1="7" x2="347" y1="24.1406" y2="24.1406"/><text fill="#000000" font-family="Monospace" font-size="10" lengthAdjust="spacingAndGlyphs" textLength="330" x="12" y="38.1406">PreCallIndication = "&lt;embedded instance of CIM_InstMethodCall&gt;"</text><text fill="#000000" font-family="Monospace" font-size="10" lengthAdjust="spacingAndGlyphs" textLength="126" x="12" y="49.7813">PostCallIndication = None</text><rect fill="#FEFECE" filter="url(#f1)" height="31.6406" style="stroke: #A80036; stroke-width: 1.5;" width="178" x="383" y="16"/><text fill="#000000" font-family="Monospace" font-size="10" lengthAdjust="spacingAndGlyphs" textLength="164" x="390" y="28">LMI_StorageConfigurationService</text><line style="stroke: #A80036; stroke-width: 1.5;" x1="384" x2="560" y1="31.6406" y2="31.6406"/><path d="M191.566,55.66 C201.289,69.597 215.008,87.18 230,100 C242.281,110.502 256.956,119.943 271.019,127.847 " fill="none" style="stroke: #A80036; stroke-width: 1.0;"/><text fill="#000000" font-family="Monospace" font-size="10" lengthAdjust="spacingAndGlyphs" textLength="196" x="231" y="97">LMI_AssociatedStorageJobMethodResult</text><path d="M466.319,48.019 C460.073,62.841 448.784,85.351 433,100 C420.84,111.286 405.831,120.647 390.881,128.199 " fill="none" style="stroke: #A80036; stroke-width: 1.0;"/><text fill="#000000" font-family="Monospace" font-size="10" lengthAdjust="spacingAndGlyphs" textLength="154" x="445" y="97">LMI_OwningStorageJobElement</text><path d="M253.458,177.584 C240.155,185.126 227.941,195.0407 220,208 C212.874,219.6287 213.667,234.9712 216.219,247.36 " fill="none" style="stroke: #A80036; stroke-width: 1.0;"/><text fill="#000000" font-family="Monospace" font-size="10" lengthAdjust="spacingAndGlyphs" textLength="160" x="221" y="219">LMI_AffectedStorageJobElement</text><path d="M354.528,177.565 C365.431,186.401 377.385,197.0406 387,208 C397.705,220.2025 407.534,235.6168 414.647,247.8972 " fill="none" style="stroke: #A80036; stroke-width: 1.0;"/><text fill="#000000" font-family="Monospace" font-size="10" lengthAdjust="spacingAndGlyphs" textLength="160" x="397" y="219">LMI_AffectedStorageJobElement</text></g></svg>