<?xml version="1.0" encoding="UTF-8" standalone="yes"?><svg xmlns="http://www.w3.org/2000/svg" xmlns:xlink="http://www.w3.org/1999/xlink" height="406pt" style="width:602px;height:406px;" version="1.1" viewBox="0 0 602 406" width="602pt"><defs><filter height="300%" id="f1" width="300%" x="-1" y="-1"><feGaussianBlur result="blurOut" stdDeviation="2"/><feColorMatrix in="blurOut" result="blurOut2" type="matrix" values="0 0 0 0 0 0 0 0 0 0 0 0 0 0 0 0 0 0 .4 0"/><feOffset dx="4" dy="4" in="blurOut2" result="blurOut3"/><feBlend in="SourceGraphic" in2="blurOut3" mode="normal"/></filter></defs><g><rect fill="#FEFECE" filter="url(#f1)" height="46.9219" style="stroke: #A80036; stroke-width: 1.5;" width="249" x="201.75" y="130.5"/><text fill="#000000" font-family="Monospace" font-size="10" lengthAdjust="spacingAndGlyphs" textLength="77" x="287.75" y="142.5">LMI_StorageJob</text><line style="stroke: #A80036; stroke-width: 1.5;" x1="202.75" x2="449.75" y1="146.1406" y2="146.1406"/><text fill="#000000" font-family="Monospace" font-size="10" lengthAdjust="spacingAndGlyphs" textLength="237" x="207.75" y="160.1406">Name = "CREATE VG ON /dev/sda1+/dev/sdb1"</text><text fill="#000000" font-family="Monospace" font-size="10" lengthAdjust="spacingAndGlyphs" textLength="120" x="207.75" y="171.7813">JobState = "Completed"</text><rect fill="#FEFECE" filter="url(#f1)" height="35.2813" style="stroke: #A80036; stroke-width: 1.5;" width="115" x="156.75" y="362.5"/><text fill="#000000" font-family="Monospace" font-size="10" lengthAdjust="spacingAndGlyphs" textLength="101" x="163.75" y="374.5">LMI_StorageExtent1</text><line style="stroke: #A80036; stroke-width: 1.5;" x1="157.75" x2="270.75" y1="378.1406" y2="378.1406"/><text fill="#000000" font-family="Monospace" font-size="10" lengthAdjust="spacingAndGlyphs" textLength="95" x="162.75" y="392.1406">Name="/dev/sda1"</text><rect fill="#FEFECE" filter="url(#f1)" height="35.2813" style="stroke: #A80036; stroke-width: 1.5;" width="115" x="380.75" y="362.5"/><text fill="#000000" font-family="Monospace" font-size="10" lengthAdjust="spacingAndGlyphs" textLength="101" x="387.75" y="374.5">LMI_StorageExtent2</text><line style="stroke: #A80036; stroke-width: 1.5;" x1="381.75" x2="494.75" y1="378.1406" y2="378.1406"/><text fill="#000000" font-family="Monospace" font-size="10" lengthAdjust="spacingAndGlyphs" textLength="98" x="386.75" y="392.1406">"name="/dev/sdb1"</text><rect fill="#FEFECE" filter="url(#f1)" height="46.9219" style="stroke: #A80036; stroke-width: 1.5;" width="344" x="6" y="8.5"/><text fill="#000000" font-family="Monospace" font-size="10" lengthAdjust="spacingAndGlyphs" textLength="129" x="113.5" y="20.5">LMI_StorageMethodResult</text><line style="stroke: #A80036; stroke-width: 1.5;" x1="7" x2="349" y1="24.1406" y2="24.1406"/><text fill="#000000" font-family="Monospace" font-size="10" lengthAdjust="spacingAndGlyphs" textLength="330" x="12" y="38.1406">PreCallIndication = "&lt;embedded instance of CIM_InstMethodCall&gt;"</text><text fill="#000000" font-family="Monospace" font-size="10" lengthAdjust="spacingAndGlyphs" textLength="332" x="12" y="49.7813">PostCallIndication ="&lt;embedded instance of CIM_InstMethodCall&gt;"</text><rect fill="#FEFECE" filter="url(#f1)" height="35.2813" style="stroke: #A80036; stroke-width: 1.5;" width="112" x="270" y="252.5"/><text fill="#000000" font-family="Monospace" font-size="10" lengthAdjust="spacingAndGlyphs" textLength="98" x="277" y="264.5">LMI_VGStoragePool</text><line style="stroke: #A80036; stroke-width: 1.5;" x1="271" x2="381" y1="268.1406" y2="268.1406"/><text fill="#000000" font-family="Monospace" font-size="10" lengthAdjust="spacingAndGlyphs" textLength="85" x="276" y="282.1406">Name="myPool"</text><rect fill="#FEFECE" filter="url(#f1)" height="31.6406" style="stroke: #A80036; stroke-width: 1.5;" width="178" x="385" y="16"/><text fill="#000000" font-family="Monospace" font-size="10" lengthAdjust="spacingAndGlyphs" textLength="164" x="392" y="28">LMI_StorageConfigurationService</text><line style="stroke: #A80036; stroke-width: 1.5;" x1="386" x2="562" y1="31.6406" y2="31.6406"/><path d="M192.92,55.643 C202.857,69.573 216.84,87.155 232,100 C244.328,110.446 259.02,119.869 273.082,127.773 " fill="none" style="stroke: #A80036; stroke-width: 1.0;"/><text fill="#000000" font-family="Monospace" font-size="10" lengthAdjust="spacingAndGlyphs" textLength="196" x="233" y="97">LMI_AssociatedStorageJobMethodResult</text><path d="M468.319,48.019 C462.073,62.841 450.784,85.351 435,100 C422.84,111.286 407.831,120.647 392.881,128.199 " fill="none" style="stroke: #A80036; stroke-width: 1.0;"/><text fill="#000000" font-family="Monospace" font-size="10" lengthAdjust="spacingAndGlyphs" textLength="154" x="447" y="97">LMI_OwningStorageJobElement</text><path d="M326,177.523 C326,197.775 326,227.329 326,247.319 " fill="none" style="stroke: #A80036; stroke-width: 1.0;"/><text fill="#000000" font-family="Monospace" font-size="10" lengthAdjust="spacingAndGlyphs" textLength="160" x="327" y="219">LMI_AffectedStorageJobElement</text><path d="M269.959,280.026 C247.741,286.65 224.348,298.1253 211,318 C203.396,329.3218 204.191,344.6659 206.864,357.1321 " fill="none" style="stroke: #A80036; stroke-width: 1.0;"/><text fill="#000000" font-family="Monospace" font-size="10" lengthAdjust="spacingAndGlyphs" textLength="181" x="212" y="329">LMI_VGAssociatedComponentExtent</text><path d="M357.995,287.534 C371.619,295.553 387.082,306.0437 399,318 C410.618,329.655 420.553,345.3431 427.488,357.8909 " fill="none" style="stroke: #A80036; stroke-width: 1.0;"/><text fill="#000000" font-family="Monospace" font-size="10" lengthAdjust="spacingAndGlyphs" textLength="181" x="411" y="329">LMI_VGAssociatedComponentExtent</text></g></svg>