<?xml version="1.0" encoding="UTF-8" standalone="yes"?><svg xmlns="http://www.w3.org/2000/svg" xmlns:xlink="http://www.w3.org/1999/xlink" height="299pt" style="width:476px;height:299px;" version="1.1" viewBox="0 0 476 299" width="476pt"><defs><filter height="300%" id="f1" width="300%" x="-1" y="-1"><feGaussianBlur result="blurOut" stdDeviation="2.0"/><feColorMatrix in="blurOut" result="blurOut2" type="matrix" values="0 0 0 0 0 0 0 0 0 0 0 0 0 0 0 0 0 0 .4 0"/><feOffset dx="4.0" dy="4.0" in="blurOut2" result="blurOut3"/><feBlend in="SourceGraphic" in2="blurOut3" mode="normal"/></filter></defs><g><rect fill="#FEFECE" filter="url(#f1)" height="49.2188" style="stroke: #A80036; stroke-width: 1.5;" width="190" x="164" y="131"/><text fill="#000000" font-family="Monospace" font-size="10" lengthAdjust="spacingAndGlyphs" textLength="63" x="227.5" y="143">LMI_StorageJob</text><line style="stroke: #A80036; stroke-width: 1.5;" x1="165" x2="353" y1="147.4063" y2="147.4063"/><text fill="#000000" font-family="Monospace" font-size="10" lengthAdjust="spacingAndGlyphs" textLength="178" x="170" y="161.4063">Name = "CREATE VG ON /dev/sda1+/dev/sdb1"</text><text fill="#000000" font-family="Monospace" font-size="10" lengthAdjust="spacingAndGlyphs" textLength="75" x="170" y="173.8125">JobState = Running</text><rect fill="#FEFECE" filter="url(#f1)" height="36.8125" style="stroke: #A80036; stroke-width: 1.5;" width="91" x="130.5" y="254"/><text fill="#000000" font-family="Monospace" font-size="10" lengthAdjust="spacingAndGlyphs" textLength="77" x="137.5" y="266">LMI_StorageExtent1</text><line style="stroke: #A80036; stroke-width: 1.5;" x1="131.5" x2="220.5" y1="270.4063" y2="270.4063"/><text fill="#000000" font-family="Monospace" font-size="10" lengthAdjust="spacingAndGlyphs" textLength="71" x="136.5" y="284.4063">Name="/dev/sda1"</text><rect fill="#FEFECE" filter="url(#f1)" height="36.8125" style="stroke: #A80036; stroke-width: 1.5;" width="91" x="296.5" y="254"/><text fill="#000000" font-family="Monospace" font-size="10" lengthAdjust="spacingAndGlyphs" textLength="77" x="303.5" y="266">LMI_StorageExtent2</text><line style="stroke: #A80036; stroke-width: 1.5;" x1="297.5" x2="386.5" y1="270.4063" y2="270.4063"/><text fill="#000000" font-family="Monospace" font-size="10" lengthAdjust="spacingAndGlyphs" textLength="73" x="302.5" y="284.4063">"name="/dev/sdb1"</text><rect fill="#FEFECE" filter="url(#f1)" height="49.2188" style="stroke: #A80036; stroke-width: 1.5;" width="266" x="6" y="8"/><text fill="#000000" font-family="Monospace" font-size="10" lengthAdjust="spacingAndGlyphs" textLength="102" x="88" y="20">LMI_StorageMethodResult</text><line style="stroke: #A80036; stroke-width: 1.5;" x1="7" x2="271" y1="24.4063" y2="24.4063"/><text fill="#000000" font-family="Monospace" font-size="10" lengthAdjust="spacingAndGlyphs" textLength="254" x="12" y="38.4063">PreCallIndication = "&lt;embedded instance of CIM_InstMethodCall&gt;"</text><text fill="#000000" font-family="Monospace" font-size="10" lengthAdjust="spacingAndGlyphs" textLength="98" x="12" y="50.8125">PostCallIndication = None</text><rect fill="#FEFECE" filter="url(#f1)" height="32.4063" style="stroke: #A80036; stroke-width: 1.5;" width="143" x="307.5" y="16.5"/><text fill="#000000" font-family="Monospace" font-size="10" lengthAdjust="spacingAndGlyphs" textLength="129" x="314.5" y="28.5">LMI_StorageConfigurationService</text><line style="stroke: #A80036; stroke-width: 1.5;" x1="308.5" x2="449.5" y1="32.9063" y2="32.9063"/><path d="M148.869,57.186 C155.436,71.034 165.048,88.241 177,101 C187.691,112.413 201.288,122.533 214.322,130.814 " fill="none" style="stroke: #A80036; stroke-width: 1.0;"/><text fill="#000000" font-family="Monospace" font-size="10" lengthAdjust="spacingAndGlyphs" textLength="157" x="178" y="98">LMI_AssociatedStorageJobMethodResult</text><path d="M372.676,48.759 C366.081,63.37 354.662,85.434 340,101 C329.254,112.409 315.625,122.589 302.627,130.928 " fill="none" style="stroke: #A80036; stroke-width: 1.0;"/><text fill="#000000" font-family="Monospace" font-size="10" lengthAdjust="spacingAndGlyphs" textLength="123" x="352" y="98">LMI_OwningStorageJobElement</text><path d="M202.634,180.155 C190.793,187.868 179.832,197.7035 173,210 C165.576,223.3624 167.382,240.9861 170.423,253.9411 " fill="none" style="stroke: #A80036; stroke-width: 1.0;"/><text fill="#000000" font-family="Monospace" font-size="10" lengthAdjust="spacingAndGlyphs" textLength="124" x="174" y="221">LMI_AffectedStorageJobElement</text><path d="M279.579,180.236 C287.194,189.347 295.735,199.9672 303,210 C313.381,224.3364 324.071,241.3853 331.628,253.8923 " fill="none" style="stroke: #A80036; stroke-width: 1.0;"/><text fill="#000000" font-family="Monospace" font-size="10" lengthAdjust="spacingAndGlyphs" textLength="124" x="314" y="221">LMI_AffectedStorageJobElement</text></g></svg>