<?xml version="1.0" encoding="UTF-8" standalone="yes"?><svg xmlns="http://www.w3.org/2000/svg" xmlns:xlink="http://www.w3.org/1999/xlink" height="384pt" style="width:845px;height:384px;" version="1.1" viewBox="0 0 845 384" width="845pt"><defs><filter height="300%" id="f1" width="300%" x="-1" y="-1"><feGaussianBlur result="blurOut" stdDeviation="2.0"/><feColorMatrix in="blurOut" result="blurOut2" type="matrix" values="0 0 0 0 0 0 0 0 0 0 0 0 0 0 0 0 0 0 .4 0"/><feOffset dx="4.0" dy="4.0" in="blurOut2" result="blurOut3"/><feBlend in="SourceGraphic" in2="blurOut3" mode="normal"/></filter></defs><g><rect fill="#FEFECE" filter="url(#f1)" height="61.625" style="stroke: #A80036; stroke-width: 1.5;" width="118" x="364.5" y="8"/><text fill="#000000" font-family="Monospace" font-size="10" lengthAdjust="spacingAndGlyphs" textLength="94" x="376.5" y="20">LMI_MountedFileSystem</text><line style="stroke: #A80036; stroke-width: 1.5;" x1="365.5" x2="481.5" y1="24.4063" y2="24.4063"/><text fill="#000000" font-family="Monospace" font-size="10" lengthAdjust="spacingAndGlyphs" textLength="85" x="370.5" y="38.4063">FileSystemType = ext3</text><text fill="#000000" font-family="Monospace" font-size="10" lengthAdjust="spacingAndGlyphs" textLength="106" x="370.5" y="50.8125">FileSystemSpec = /dev/sda1</text><text fill="#000000" font-family="Monospace" font-size="10" lengthAdjust="spacingAndGlyphs" textLength="93" x="370.5" y="63.2188">MountPointPath = /home</text><rect fill="#FEFECE" filter="url(#f1)" height="49.2188" style="stroke: #A80036; stroke-width: 1.5;" width="157" x="113" y="130"/><text fill="#000000" font-family="Monospace" font-size="10" lengthAdjust="spacingAndGlyphs" textLength="143" x="120" y="142">LMI_MountedFileSystemSettingData1</text><line style="stroke: #A80036; stroke-width: 1.5;" x1="114" x2="269" y1="146.4063" y2="146.4063"/><text fill="#000000" font-family="Monospace" font-size="10" lengthAdjust="spacingAndGlyphs" textLength="84" x="119" y="160.4063">IsCurrent = 1 (current)</text><text fill="#000000" font-family="Monospace" font-size="10" lengthAdjust="spacingAndGlyphs" textLength="75" x="119" y="172.8125">IsNext = 2 (not next)</text><rect fill="#FEFECE" filter="url(#f1)" height="49.2188" style="stroke: #A80036; stroke-width: 1.5;" width="157" x="345" y="130"/><text fill="#000000" font-family="Monospace" font-size="10" lengthAdjust="spacingAndGlyphs" textLength="143" x="352" y="142">LMI_MountedFileSystemSettingData2</text><line style="stroke: #A80036; stroke-width: 1.5;" x1="346" x2="501" y1="146.4063" y2="146.4063"/><text fill="#000000" font-family="Monospace" font-size="10" lengthAdjust="spacingAndGlyphs" textLength="98" x="351" y="160.4063">IsCurrent = 2 (not current)</text><text fill="#000000" font-family="Monospace" font-size="10" lengthAdjust="spacingAndGlyphs" textLength="61" x="351" y="172.8125">IsNext = 1 (next)</text><rect fill="#FEFECE" filter="url(#f1)" height="136.0625" style="stroke: #A80036; stroke-width: 1.5;" width="139" x="6" y="239"/><text fill="#000000" font-family="Monospace" font-size="10" lengthAdjust="spacingAndGlyphs" textLength="125" x="13" y="251">LMI_MountedFileSystemSetting1</text><line style="stroke: #A80036; stroke-width: 1.5;" x1="7" x2="144" y1="255.4063" y2="255.4063"/><text fill="#000000" font-family="Monospace" font-size="10" lengthAdjust="spacingAndGlyphs" textLength="67" x="12" y="269.4063">AllowWrite = True</text><text fill="#000000" font-family="Monospace" font-size="10" lengthAdjust="spacingAndGlyphs" textLength="66" x="12" y="281.8125">AllowSUID = True</text><text fill="#000000" font-family="Monospace" font-size="10" lengthAdjust="spacingAndGlyphs" textLength="89" x="12" y="294.2188">InterpretDevices = True</text><text fill="#000000" font-family="Monospace" font-size="10" lengthAdjust="spacingAndGlyphs" textLength="84" x="12" y="306.625">AllowExecution = True</text><text fill="#000000" font-family="Monospace" font-size="10" lengthAdjust="spacingAndGlyphs" textLength="44" x="12" y="319.0313">Auto = True</text><text fill="#000000" font-family="Monospace" font-size="10" lengthAdjust="spacingAndGlyphs" textLength="92" x="12" y="331.4375">AllowUserMount = False</text><text fill="#000000" font-family="Monospace" font-size="10" lengthAdjust="spacingAndGlyphs" textLength="88" x="12" y="343.8438">SynchronousIO = False</text><text fill="#000000" font-family="Monospace" font-size="10" lengthAdjust="spacingAndGlyphs" textLength="53" x="12" y="356.25">Dump = False</text><text fill="#000000" font-family="Monospace" font-size="10" lengthAdjust="spacingAndGlyphs" textLength="101" x="12" y="368.6563">FileSystemCheckOrder = 0</text><rect fill="#FEFECE" filter="url(#f1)" height="111.25" style="stroke: #A80036; stroke-width: 1.5;" width="139" x="238" y="251.5"/><text fill="#000000" font-family="Monospace" font-size="10" lengthAdjust="spacingAndGlyphs" textLength="125" x="245" y="263.5">LMI_MountedFileSystemSetting2</text><line style="stroke: #A80036; stroke-width: 1.5;" x1="239" x2="376" y1="267.9063" y2="267.9063"/><text fill="#000000" font-family="Monospace" font-size="10" lengthAdjust="spacingAndGlyphs" textLength="70" x="244" y="281.9063">AllowWrite = False</text><text fill="#000000" font-family="Monospace" font-size="10" lengthAdjust="spacingAndGlyphs" textLength="84" x="244" y="294.3125">AllowExecution = True</text><text fill="#000000" font-family="Monospace" font-size="10" lengthAdjust="spacingAndGlyphs" textLength="44" x="244" y="306.7188">Auto = True</text><text fill="#000000" font-family="Monospace" font-size="10" lengthAdjust="spacingAndGlyphs" textLength="89" x="244" y="319.125">AllowUserMount = True</text><text fill="#000000" font-family="Monospace" font-size="10" lengthAdjust="spacingAndGlyphs" textLength="88" x="244" y="331.5313">SynchronousIO = False</text><text fill="#000000" font-family="Monospace" font-size="10" lengthAdjust="spacingAndGlyphs" textLength="50" x="244" y="343.9375">Dump = True</text><text fill="#000000" font-family="Monospace" font-size="10" lengthAdjust="spacingAndGlyphs" textLength="101" x="244" y="356.3438">FileSystemCheckOrder = 1</text><rect fill="#FEFECE" filter="url(#f1)" height="86.4375" style="stroke: #A80036; stroke-width: 1.5;" width="229" x="422" y="264"/><text fill="#000000" font-family="Monospace" font-size="10" lengthAdjust="spacingAndGlyphs" textLength="81" x="496" y="276">LMI_LocalFileSystem</text><line style="stroke: #A80036; stroke-width: 1.5;" x1="423" x2="650" y1="280.4063" y2="280.4063"/><text fill="#000000" font-family="Monospace" font-size="10" lengthAdjust="spacingAndGlyphs" textLength="89" x="428" y="294.4063">AvailableSpace = None</text><text fill="#000000" font-family="Monospace" font-size="10" lengthAdjust="spacingAndGlyphs" textLength="66" x="428" y="306.8125">BlockSize = None</text><text fill="#000000" font-family="Monospace" font-size="10" lengthAdjust="spacingAndGlyphs" textLength="87" x="428" y="319.2188">FileSystemSize = None</text><text fill="#000000" font-family="Monospace" font-size="10" lengthAdjust="spacingAndGlyphs" textLength="85" x="428" y="331.625">FileSystemType = ext3</text><text fill="#000000" font-family="Monospace" font-size="10" lengthAdjust="spacingAndGlyphs" textLength="217" x="428" y="344.0313">Name = UUID=330d61f7-9cdc-416b-9995-25ff78d5776c</text><rect fill="#FEFECE" filter="url(#f1)" height="32.4063" style="stroke: #A80036; stroke-width: 1.5;" width="107" x="577" y="138.5"/><text fill="#000000" font-family="Monospace" font-size="10" lengthAdjust="spacingAndGlyphs" textLength="93" x="584" y="150.5">LMI_AttachedFileSystem</text><line style="stroke: #A80036; stroke-width: 1.5;" x1="578" x2="683" y1="154.9063" y2="154.9063"/><rect fill="#FEFECE" filter="url(#f1)" height="36.8125" style="stroke: #A80036; stroke-width: 1.5;" width="84" x="686.5" y="288.5"/><text fill="#000000" font-family="Monospace" font-size="10" lengthAdjust="spacingAndGlyphs" textLength="70" x="693.5" y="300.5">LMI_UnixDirectory</text><line style="stroke: #A80036; stroke-width: 1.5;" x1="687.5" x2="769.5" y1="304.9063" y2="304.9063"/><text fill="#000000" font-family="Monospace" font-size="10" lengthAdjust="spacingAndGlyphs" textLength="56" x="692.5" y="318.9063">Name = /home</text><rect fill="#FEFECE" filter="url(#f1)" height="32.4063" style="stroke: #A80036; stroke-width: 1.5;" width="76" x="760.5" y="138.5"/><text fill="#000000" font-family="Monospace" font-size="10" lengthAdjust="spacingAndGlyphs" textLength="62" x="767.5" y="150.5">LMI_MountPoint</text><line style="stroke: #A80036; stroke-width: 1.5;" x1="761.5" x2="835.5" y1="154.9063" y2="154.9063"/><ellipse cx="75.5" cy="154.5" fill="#000000" rx="2" ry="2" style="stroke: none; stroke-width: 1.0;"/><ellipse cx="307.5" cy="154.5" fill="#000000" rx="2" ry="2" style="stroke: none; stroke-width: 1.0;"/><ellipse cx="539.5" cy="154.5" fill="#000000" rx="2" ry="2" style="stroke: none; stroke-width: 1.0;"/><ellipse cx="723.5" cy="154.5" fill="#000000" rx="2" ry="2" style="stroke: none; stroke-width: 1.0;"/><path d="M364.466,45.594 C295.325,54.427 179.566,76.502 95.5,130 C85.7373,136.213 78.2109,148.671 76.0972,152.413 " fill="none" style="stroke: #A80036; stroke-width: 1.0;"/><path d="M75.5,156.801 C75.5,164.3 75.5,202.924 75.5,238.992 " fill="none" style="stroke: #A80036; stroke-width: 1.0;"/><path d="M77.7656,154.5 C89.4649,154.5 101.1641,154.5 112.863,154.5 " fill="none" style="stroke: #A80036; stroke-width: 1.0; stroke-dasharray: 7.0,7.0;"/><path d="M389.29,70.343 C370.552,87.386 347.202,109.328 327.5,130 C319.516,138.377 310.767,149.348 308.228,152.572 " fill="none" style="stroke: #A80036; stroke-width: 1.0;"/><path d="M307.5,156.801 C307.5,165.162 307.5,212.215 307.5,251.277 " fill="none" style="stroke: #A80036; stroke-width: 1.0;"/><path d="M309.766,154.5 C321.465,154.5 333.164,154.5 344.863,154.5 " fill="none" style="stroke: #A80036; stroke-width: 1.0; stroke-dasharray: 7.0,7.0;"/><path d="M457.71,70.343 C476.448,87.386 499.798,109.328 519.5,130 C527.484,138.377 536.233,149.348 538.772,152.572 " fill="none" style="stroke: #A80036; stroke-width: 1.0;"/><path d="M539.474,156.801 C539.289,166.081 538.154,223.031 537.341,263.812 " fill="none" style="stroke: #A80036; stroke-width: 1.0;"/><path d="M541.633,154.5 C553.32,154.5 565.007,154.5 576.694,154.5 " fill="none" style="stroke: #A80036; stroke-width: 1.0; stroke-dasharray: 7.0,7.0;"/><path d="M482.553,50.122 C541.515,62.213 632.978,86.492 701.5,130 C711.691,136.471 720.347,148.752 722.803,152.432 " fill="none" style="stroke: #A80036; stroke-width: 1.0;"/><path d="M723.543,156.801 C723.921,168.178 726.68,251.208 727.91,288.2468 " fill="none" style="stroke: #A80036; stroke-width: 1.0;"/><path d="M725.551,154.5 C737.139,154.5 748.727,154.5 760.316,154.5 " fill="none" style="stroke: #A80036; stroke-width: 1.0; stroke-dasharray: 7.0,7.0;"/></g></svg>