<?xml version="1.0" encoding="UTF-8" standalone="yes"?><svg xmlns="http://www.w3.org/2000/svg" xmlns:xlink="http://www.w3.org/1999/xlink" height="373pt" style="width:1005px;height:373px;" version="1.1" viewBox="0 0 1005 373" width="1005pt"><defs><filter height="300%" id="f1" width="300%" x="-1" y="-1"><feGaussianBlur result="blurOut" stdDeviation="2"/><feColorMatrix in="blurOut" result="blurOut2" type="matrix" values="0 0 0 0 0 0 0 0 0 0 0 0 0 0 0 0 0 0 .4 0"/><feOffset dx="4" dy="4" in="blurOut2" result="blurOut3"/><feBlend in="SourceGraphic" in2="blurOut3" mode="normal"/></filter></defs><g><rect fill="#FEFECE" filter="url(#f1)" height="58.5625" style="stroke: #A80036; stroke-width: 1.5;" width="151" x="429" y="8.5"/><text fill="#000000" font-family="Monospace" font-size="10" lengthAdjust="spacingAndGlyphs" textLength="120" x="444.5" y="20.5">LMI_MountedFileSystem</text><line style="stroke: #A80036; stroke-width: 1.5;" x1="430" x2="579" y1="24.1406" y2="24.1406"/><text fill="#000000" font-family="Monospace" font-size="10" lengthAdjust="spacingAndGlyphs" textLength="113" x="435" y="38.1406">FileSystemType = ext3</text><text fill="#000000" font-family="Monospace" font-size="10" lengthAdjust="spacingAndGlyphs" textLength="139" x="435" y="49.7813">FileSystemSpec = /dev/sda1</text><text fill="#000000" font-family="Monospace" font-size="10" lengthAdjust="spacingAndGlyphs" textLength="124" x="435" y="61.4219">MountPointPath = /home</text><rect fill="#FEFECE" filter="url(#f1)" height="46.9219" style="stroke: #A80036; stroke-width: 1.5;" width="199" x="131" y="128.5"/><text fill="#000000" font-family="Monospace" font-size="10" lengthAdjust="spacingAndGlyphs" textLength="185" x="138" y="140.5">LMI_MountedFileSystemSettingData1</text><line style="stroke: #A80036; stroke-width: 1.5;" x1="132" x2="329" y1="144.1406" y2="144.1406"/><text fill="#000000" font-family="Monospace" font-size="10" lengthAdjust="spacingAndGlyphs" textLength="112" x="137" y="158.1406">IsCurrent = 1 (current)</text><text fill="#000000" font-family="Monospace" font-size="10" lengthAdjust="spacingAndGlyphs" textLength="104" x="137" y="169.7813">IsNext = 2 (not next)</text><rect fill="#FEFECE" filter="url(#f1)" height="46.9219" style="stroke: #A80036; stroke-width: 1.5;" width="199" x="405" y="128.5"/><text fill="#000000" font-family="Monospace" font-size="10" lengthAdjust="spacingAndGlyphs" textLength="185" x="412" y="140.5">LMI_MountedFileSystemSettingData2</text><line style="stroke: #A80036; stroke-width: 1.5;" x1="406" x2="603" y1="144.1406" y2="144.1406"/><text fill="#000000" font-family="Monospace" font-size="10" lengthAdjust="spacingAndGlyphs" textLength="131" x="411" y="158.1406">IsCurrent = 2 (not current)</text><text fill="#000000" font-family="Monospace" font-size="10" lengthAdjust="spacingAndGlyphs" textLength="85" x="411" y="169.7813">IsNext = 1 (next)</text><rect fill="#FEFECE" filter="url(#f1)" height="128.4063" style="stroke: #A80036; stroke-width: 1.5;" width="175" x="6" y="236"/><text fill="#000000" font-family="Monospace" font-size="10" lengthAdjust="spacingAndGlyphs" textLength="161" x="13" y="248">LMI_MountedFileSystemSetting1</text><line style="stroke: #A80036; stroke-width: 1.5;" x1="7" x2="180" y1="251.6406" y2="251.6406"/><text fill="#000000" font-family="Monospace" font-size="10" lengthAdjust="spacingAndGlyphs" textLength="85" x="12" y="265.6406">AllowWrite = True</text><text fill="#000000" font-family="Monospace" font-size="10" lengthAdjust="spacingAndGlyphs" textLength="86" x="12" y="277.2813">AllowSUID = True</text><text fill="#000000" font-family="Monospace" font-size="10" lengthAdjust="spacingAndGlyphs" textLength="116" x="12" y="288.9219">InterpretDevices = True</text><text fill="#000000" font-family="Monospace" font-size="10" lengthAdjust="spacingAndGlyphs" textLength="108" x="12" y="300.5625">AllowExecution = True</text><text fill="#000000" font-family="Monospace" font-size="10" lengthAdjust="spacingAndGlyphs" textLength="58" x="12" y="312.2031">Auto = True</text><text fill="#000000" font-family="Monospace" font-size="10" lengthAdjust="spacingAndGlyphs" textLength="118" x="12" y="323.8438">AllowUserMount = False</text><text fill="#000000" font-family="Monospace" font-size="10" lengthAdjust="spacingAndGlyphs" textLength="113" x="12" y="335.4844">SynchronousIO = False</text><text fill="#000000" font-family="Monospace" font-size="10" lengthAdjust="spacingAndGlyphs" textLength="69" x="12" y="347.125">Dump = False</text><text fill="#000000" font-family="Monospace" font-size="10" lengthAdjust="spacingAndGlyphs" textLength="132" x="12" y="358.7656">FileSystemCheckOrder = 0</text><rect fill="#FEFECE" filter="url(#f1)" height="105.125" style="stroke: #A80036; stroke-width: 1.5;" width="175" x="280" y="247.5"/><text fill="#000000" font-family="Monospace" font-size="10" lengthAdjust="spacingAndGlyphs" textLength="161" x="287" y="259.5">LMI_MountedFileSystemSetting2</text><line style="stroke: #A80036; stroke-width: 1.5;" x1="281" x2="454" y1="263.1406" y2="263.1406"/><text fill="#000000" font-family="Monospace" font-size="10" lengthAdjust="spacingAndGlyphs" textLength="89" x="286" y="277.1406">AllowWrite = False</text><text fill="#000000" font-family="Monospace" font-size="10" lengthAdjust="spacingAndGlyphs" textLength="108" x="286" y="288.7813">AllowExecution = True</text><text fill="#000000" font-family="Monospace" font-size="10" lengthAdjust="spacingAndGlyphs" textLength="58" x="286" y="300.4219">Auto = True</text><text fill="#000000" font-family="Monospace" font-size="10" lengthAdjust="spacingAndGlyphs" textLength="114" x="286" y="312.0625">AllowUserMount = True</text><text fill="#000000" font-family="Monospace" font-size="10" lengthAdjust="spacingAndGlyphs" textLength="113" x="286" y="323.7031">SynchronousIO = False</text><text fill="#000000" font-family="Monospace" font-size="10" lengthAdjust="spacingAndGlyphs" textLength="65" x="286" y="335.3438">Dump = True</text><text fill="#000000" font-family="Monospace" font-size="10" lengthAdjust="spacingAndGlyphs" textLength="132" x="286" y="346.9844">FileSystemCheckOrder = 1</text><rect fill="#FEFECE" filter="url(#f1)" height="81.8438" style="stroke: #A80036; stroke-width: 1.5;" width="290" x="493.25" y="259"/><text fill="#000000" font-family="Monospace" font-size="10" lengthAdjust="spacingAndGlyphs" textLength="102" x="587.25" y="271">LMI_LocalFileSystem</text><line style="stroke: #A80036; stroke-width: 1.5;" x1="494.25" x2="782.25" y1="274.6406" y2="274.6406"/><text fill="#000000" font-family="Monospace" font-size="10" lengthAdjust="spacingAndGlyphs" textLength="113" x="499.25" y="288.6406">AvailableSpace = None</text><text fill="#000000" font-family="Monospace" font-size="10" lengthAdjust="spacingAndGlyphs" textLength="85" x="499.25" y="300.2813">BlockSize = None</text><text fill="#000000" font-family="Monospace" font-size="10" lengthAdjust="spacingAndGlyphs" textLength="114" x="499.25" y="311.9219">FileSystemSize = None</text><text fill="#000000" font-family="Monospace" font-size="10" lengthAdjust="spacingAndGlyphs" textLength="113" x="499.25" y="323.5625">FileSystemType = ext3</text><text fill="#000000" font-family="Monospace" font-size="10" lengthAdjust="spacingAndGlyphs" textLength="278" x="499.25" y="335.2031">Name = UUID=330d61f7-9cdc-416b-9995-25ff78d5776c</text><rect fill="#FEFECE" filter="url(#f1)" height="31.6406" style="stroke: #A80036; stroke-width: 1.5;" width="135" x="688" y="136"/><text fill="#000000" font-family="Monospace" font-size="10" lengthAdjust="spacingAndGlyphs" textLength="121" x="695" y="148">LMI_AttachedFileSystem</text><line style="stroke: #A80036; stroke-width: 1.5;" x1="689" x2="822" y1="151.6406" y2="151.6406"/><rect fill="#FEFECE" filter="url(#f1)" height="35.2813" style="stroke: #A80036; stroke-width: 1.5;" width="104" x="818.25" y="282.5"/><text fill="#000000" font-family="Monospace" font-size="10" lengthAdjust="spacingAndGlyphs" textLength="90" x="825.25" y="294.5">LMI_UnixDirectory</text><line style="stroke: #A80036; stroke-width: 1.5;" x1="819.25" x2="921.25" y1="298.1406" y2="298.1406"/><text fill="#000000" font-family="Monospace" font-size="10" lengthAdjust="spacingAndGlyphs" textLength="75" x="824.25" y="312.1406">Name = /home</text><rect fill="#FEFECE" filter="url(#f1)" height="31.6406" style="stroke: #A80036; stroke-width: 1.5;" width="93" x="903" y="136"/><text fill="#000000" font-family="Monospace" font-size="10" lengthAdjust="spacingAndGlyphs" textLength="79" x="910" y="148">LMI_MountPoint</text><line style="stroke: #A80036; stroke-width: 1.5;" x1="904" x2="995" y1="151.6406" y2="151.6406"/><ellipse cx="93.25" cy="152" fill="#000000" rx="2" ry="2" style="stroke: none; stroke-width: 1.0;"/><ellipse cx="367.25" cy="152" fill="#000000" rx="2" ry="2" style="stroke: none; stroke-width: 1.0;"/><ellipse cx="641.25" cy="152" fill="#000000" rx="2" ry="2" style="stroke: none; stroke-width: 1.0;"/><ellipse cx="865.25" cy="152" fill="#000000" rx="2" ry="2" style="stroke: none; stroke-width: 1.0;"/><path d="M428.894,42.346 C346.154,49.02 211.958,68.908 113.25,128 C106.0481,132.311 100.0924,140.111 96.6037,145.42 " fill="none" style="stroke: #A80036; stroke-width: 1.0;"/><path d="M93.25,154.262 C93.25,161.302 93.25,196.619 93.25,230.602 " fill="none" style="stroke: #A80036; stroke-width: 1.0;"/><path d="M95.3906,152 C105.5767,152 115.763,152 125.949,152 " fill="none" style="stroke: #A80036; stroke-width: 1.0; stroke-dasharray: 7.0,7.0;"/><path d="M462.536,67.537 C439.43,84.114 410.72,106.018 387.25,128 C381.124,133.738 374.911,141.196 371.071,146.039 " fill="none" style="stroke: #A80036; stroke-width: 1.0;"/><path d="M367.25,154.262 C367.25,162.099 367.25,204.978 367.25,242.049 " fill="none" style="stroke: #A80036; stroke-width: 1.0;"/><path d="M369.391,152 C379.577,152 389.763,152 399.949,152 " fill="none" style="stroke: #A80036; stroke-width: 1.0; stroke-dasharray: 7.0,7.0;"/><path d="M545.11,67.613 C567.993,84.3 596.595,106.286 620.25,128 C626.569,133.8 633.12,141.243 637.189,146.066 " fill="none" style="stroke: #A80036; stroke-width: 1.0;"/><path d="M641.224,154.262 C641.046,162.931 639.987,214.482 639.183,253.615 " fill="none" style="stroke: #A80036; stroke-width: 1.0;"/><path d="M643.477,152 C656.453,152 669.43,152 682.407,152 " fill="none" style="stroke: #A80036; stroke-width: 1.0; stroke-dasharray: 7.0,7.0;"/><path d="M579.789,48.833 C650.208,60.308 756.507,83.657 839.25,128 C848.035,132.708 856.32,140.931 861.085,146.164 " fill="none" style="stroke: #A80036; stroke-width: 1.0;"/><path d="M865.293,154.262 C865.655,164.835 868.202,239.193 869.497,277.0154 " fill="none" style="stroke: #A80036; stroke-width: 1.0;"/><path d="M867.547,152 C877.603,152 887.658,152 897.714,152 " fill="none" style="stroke: #A80036; stroke-width: 1.0; stroke-dasharray: 7.0,7.0;"/></g></svg>