<?xml version="1.0" encoding="UTF-8" standalone="yes"?><svg xmlns="http://www.w3.org/2000/svg" xmlns:xlink="http://www.w3.org/1999/xlink" height="373pt" style="width:726px;height:373px;" version="1.1" viewBox="0 0 726 373" width="726pt"><defs><filter height="300%" id="f1" width="300%" x="-1" y="-1"><feGaussianBlur result="blurOut" stdDeviation="2"/><feColorMatrix in="blurOut" result="blurOut2" type="matrix" values="0 0 0 0 0 0 0 0 0 0 0 0 0 0 0 0 0 0 .4 0"/><feOffset dx="4" dy="4" in="blurOut2" result="blurOut3"/><feBlend in="SourceGraphic" in2="blurOut3" mode="normal"/></filter></defs><g><rect fill="#FEFECE" filter="url(#f1)" height="58.5625" style="stroke: #A80036; stroke-width: 1.5;" width="151" x="283" y="8.5"/><text fill="#000000" font-family="Monospace" font-size="10" lengthAdjust="spacingAndGlyphs" textLength="120" x="298.5" y="20.5">LMI_MountedFileSystem</text><line style="stroke: #A80036; stroke-width: 1.5;" x1="284" x2="433" y1="24.1406" y2="24.1406"/><text fill="#000000" font-family="Monospace" font-size="10" lengthAdjust="spacingAndGlyphs" textLength="113" x="289" y="38.1406">FileSystemType = ext4</text><text fill="#000000" font-family="Monospace" font-size="10" lengthAdjust="spacingAndGlyphs" textLength="139" x="289" y="49.7813">FileSystemSpec = /dev/sda2</text><text fill="#000000" font-family="Monospace" font-size="10" lengthAdjust="spacingAndGlyphs" textLength="118" x="289" y="61.4219">MountPointPath = /boot</text><rect fill="#FEFECE" filter="url(#f1)" height="46.9219" style="stroke: #A80036; stroke-width: 1.5;" width="193" x="128" y="128.5"/><text fill="#000000" font-family="Monospace" font-size="10" lengthAdjust="spacingAndGlyphs" textLength="179" x="135" y="140.5">LMI_MountedFileSystemSettingData</text><line style="stroke: #A80036; stroke-width: 1.5;" x1="129" x2="320" y1="144.1406" y2="144.1406"/><text fill="#000000" font-family="Monospace" font-size="10" lengthAdjust="spacingAndGlyphs" textLength="112" x="134" y="158.1406">IsCurrent = 1 (current)</text><text fill="#000000" font-family="Monospace" font-size="10" lengthAdjust="spacingAndGlyphs" textLength="104" x="134" y="169.7813">IsNext = 2 (not next)</text><rect fill="#FEFECE" filter="url(#f1)" height="128.4063" style="stroke: #A80036; stroke-width: 1.5;" width="169" x="6" y="236"/><text fill="#000000" font-family="Monospace" font-size="10" lengthAdjust="spacingAndGlyphs" textLength="155" x="13" y="248">LMI_MountedFileSystemSetting</text><line style="stroke: #A80036; stroke-width: 1.5;" x1="7" x2="174" y1="251.6406" y2="251.6406"/><text fill="#000000" font-family="Monospace" font-size="10" lengthAdjust="spacingAndGlyphs" textLength="85" x="12" y="265.6406">AllowWrite = True</text><text fill="#000000" font-family="Monospace" font-size="10" lengthAdjust="spacingAndGlyphs" textLength="86" x="12" y="277.2813">AllowSUID = True</text><text fill="#000000" font-family="Monospace" font-size="10" lengthAdjust="spacingAndGlyphs" textLength="116" x="12" y="288.9219">InterpretDevices = True</text><text fill="#000000" font-family="Monospace" font-size="10" lengthAdjust="spacingAndGlyphs" textLength="108" x="12" y="300.5625">AllowExecution = True</text><text fill="#000000" font-family="Monospace" font-size="10" lengthAdjust="spacingAndGlyphs" textLength="58" x="12" y="312.2031">Auto = True</text><text fill="#000000" font-family="Monospace" font-size="10" lengthAdjust="spacingAndGlyphs" textLength="118" x="12" y="323.8438">AllowUserMount = False</text><text fill="#000000" font-family="Monospace" font-size="10" lengthAdjust="spacingAndGlyphs" textLength="108" x="12" y="335.4844">SynchronouIO = False</text><text fill="#000000" font-family="Monospace" font-size="10" lengthAdjust="spacingAndGlyphs" textLength="69" x="12" y="347.125">Dump = False</text><text fill="#000000" font-family="Monospace" font-size="10" lengthAdjust="spacingAndGlyphs" textLength="132" x="12" y="358.7656">FileSystemCheckOrder = 0</text><rect fill="#FEFECE" filter="url(#f1)" height="81.8438" style="stroke: #A80036; stroke-width: 1.5;" width="296" x="210.25" y="259"/><text fill="#000000" font-family="Monospace" font-size="10" lengthAdjust="spacingAndGlyphs" textLength="102" x="307.25" y="271">LMI_LocalFileSystem</text><line style="stroke: #A80036; stroke-width: 1.5;" x1="211.25" x2="505.25" y1="274.6406" y2="274.6406"/><text fill="#000000" font-family="Monospace" font-size="10" lengthAdjust="spacingAndGlyphs" textLength="113" x="216.25" y="288.6406">AvailableSpace = None</text><text fill="#000000" font-family="Monospace" font-size="10" lengthAdjust="spacingAndGlyphs" textLength="85" x="216.25" y="300.2813">BlockSize = None</text><text fill="#000000" font-family="Monospace" font-size="10" lengthAdjust="spacingAndGlyphs" textLength="114" x="216.25" y="311.9219">FileSystemSize = None</text><text fill="#000000" font-family="Monospace" font-size="10" lengthAdjust="spacingAndGlyphs" textLength="113" x="216.25" y="323.5625">FileSystemType = ext4</text><text fill="#000000" font-family="Monospace" font-size="10" lengthAdjust="spacingAndGlyphs" textLength="284" x="216.25" y="335.2031">Name = UUID=17b6df80-9292-4deb-ac28-dd6b73d1b930</text><rect fill="#FEFECE" filter="url(#f1)" height="31.6406" style="stroke: #A80036; stroke-width: 1.5;" width="135" x="402" y="136"/><text fill="#000000" font-family="Monospace" font-size="10" lengthAdjust="spacingAndGlyphs" textLength="121" x="409" y="148">LMI_AttachedFileSystem</text><line style="stroke: #A80036; stroke-width: 1.5;" x1="403" x2="536" y1="151.6406" y2="151.6406"/><rect fill="#FEFECE" filter="url(#f1)" height="35.2813" style="stroke: #A80036; stroke-width: 1.5;" width="104" x="541.25" y="282.5"/><text fill="#000000" font-family="Monospace" font-size="10" lengthAdjust="spacingAndGlyphs" textLength="90" x="548.25" y="294.5">LMI_UnixDirectory</text><line style="stroke: #A80036; stroke-width: 1.5;" x1="542.25" x2="644.25" y1="298.1406" y2="298.1406"/><text fill="#000000" font-family="Monospace" font-size="10" lengthAdjust="spacingAndGlyphs" textLength="69" x="547.25" y="312.1406">Name = /boot</text><rect fill="#FEFECE" filter="url(#f1)" height="31.6406" style="stroke: #A80036; stroke-width: 1.5;" width="93" x="624" y="136"/><text fill="#000000" font-family="Monospace" font-size="10" lengthAdjust="spacingAndGlyphs" textLength="79" x="631" y="148">LMI_MountPoint</text><line style="stroke: #A80036; stroke-width: 1.5;" x1="625" x2="716" y1="151.6406" y2="151.6406"/><ellipse cx="90.25" cy="152" fill="#000000" rx="2" ry="2" style="stroke: none; stroke-width: 1.0;"/><ellipse cx="358.25" cy="152" fill="#000000" rx="2" ry="2" style="stroke: none; stroke-width: 1.0;"/><ellipse cx="586.25" cy="152" fill="#000000" rx="2" ry="2" style="stroke: none; stroke-width: 1.0;"/><path d="M282.805,55.36 C231.092,69.037 162.641,92.172 110.25,128 C103.3214,132.738 97.3003,140.435 93.7223,145.605 " fill="none" style="stroke: #A80036; stroke-width: 1.0;"/><path d="M90.25,154.262 C90.25,161.302 90.25,196.619 90.25,230.602 " fill="none" style="stroke: #A80036; stroke-width: 1.0;"/><path d="M92.3438,152 C102.4356,152 112.527,152 122.619,152 " fill="none" style="stroke: #A80036; stroke-width: 1.0; stroke-dasharray: 7.0,7.0;"/><path d="M358.25,67.552 C358.25,93.395 358.25,129.599 358.25,144.351 " fill="none" style="stroke: #A80036; stroke-width: 1.0;"/><path d="M358.25,154.262 C358.25,162.931 358.25,214.482 358.25,253.615 " fill="none" style="stroke: #A80036; stroke-width: 1.0;"/><path d="M360.418,152 C372.445,152 384.473,152 396.5,152 " fill="none" style="stroke: #A80036; stroke-width: 1.0; stroke-dasharray: 7.0,7.0;"/><path d="M428.808,67.544 C466.544,83.713 513.33,105.227 553.25,128 C563.676,133.948 574.977,142.276 581.279,147.108 " fill="none" style="stroke: #A80036; stroke-width: 1.0;"/><path d="M586.311,154.262 C586.817,164.835 590.383,239.193 592.196,277.0154 " fill="none" style="stroke: #A80036; stroke-width: 1.0;"/><path d="M588.547,152 C598.603,152 608.658,152 618.714,152 " fill="none" style="stroke: #A80036; stroke-width: 1.0; stroke-dasharray: 7.0,7.0;"/></g></svg>