<?xml version="1.0" encoding="UTF-8" standalone="yes"?><svg xmlns="http://www.w3.org/2000/svg" xmlns:xlink="http://www.w3.org/1999/xlink" height="338pt" style="width:725px;height:338px;" version="1.1" viewBox="0 0 725 338" width="725pt"><defs><filter height="300%" id="f1" width="300%" x="-1" y="-1"><feGaussianBlur result="blurOut" stdDeviation="2"/><feColorMatrix in="blurOut" result="blurOut2" type="matrix" values="0 0 0 0 0 0 0 0 0 0 0 0 0 0 0 0 0 0 .4 0"/><feOffset dx="4" dy="4" in="blurOut2" result="blurOut3"/><feBlend in="SourceGraphic" in2="blurOut3" mode="normal"/></filter></defs><g><rect fill="#FEFECE" filter="url(#f1)" height="58.5625" style="stroke: #A80036; stroke-width: 1.5;" width="151" x="283" y="8.5"/><text fill="#000000" font-family="Monospace" font-size="10" lengthAdjust="spacingAndGlyphs" textLength="120" x="298.5" y="20.5">LMI_MountedFileSystem</text><line style="stroke: #A80036; stroke-width: 1.5;" x1="284" x2="433" y1="24.1406" y2="24.1406"/><text fill="#000000" font-family="Monospace" font-size="10" lengthAdjust="spacingAndGlyphs" textLength="113" x="289" y="38.1406">FileSystemType = ext4</text><text fill="#000000" font-family="Monospace" font-size="10" lengthAdjust="spacingAndGlyphs" textLength="139" x="289" y="49.7813">FileSystemSpec = /dev/sda4</text><text fill="#000000" font-family="Monospace" font-size="10" lengthAdjust="spacingAndGlyphs" textLength="129" x="289" y="61.4219">MountPointPath = /var/log</text><rect fill="#FEFECE" filter="url(#f1)" height="46.9219" style="stroke: #A80036; stroke-width: 1.5;" width="193" x="128" y="128.5"/><text fill="#000000" font-family="Monospace" font-size="10" lengthAdjust="spacingAndGlyphs" textLength="179" x="135" y="140.5">LMI_MountedFileSystemSettingData</text><line style="stroke: #A80036; stroke-width: 1.5;" x1="129" x2="320" y1="144.1406" y2="144.1406"/><text fill="#000000" font-family="Monospace" font-size="10" lengthAdjust="spacingAndGlyphs" textLength="112" x="134" y="158.1406">IsCurrent = 1 (current)</text><text fill="#000000" font-family="Monospace" font-size="10" lengthAdjust="spacingAndGlyphs" textLength="85" x="134" y="169.7813">IsNext = 1 (next)</text><rect fill="#FEFECE" filter="url(#f1)" height="93.4844" style="stroke: #A80036; stroke-width: 1.5;" width="169" x="6" y="236.5"/><text fill="#000000" font-family="Monospace" font-size="10" lengthAdjust="spacingAndGlyphs" textLength="155" x="13" y="248.5">LMI_MountedFileSystemSetting</text><line style="stroke: #A80036; stroke-width: 1.5;" x1="7" x2="174" y1="252.1406" y2="252.1406"/><text fill="#000000" font-family="Monospace" font-size="10" lengthAdjust="spacingAndGlyphs" textLength="89" x="12" y="266.1406">AllowWrite = False</text><text fill="#000000" font-family="Monospace" font-size="10" lengthAdjust="spacingAndGlyphs" textLength="112" x="12" y="277.7813">AllowExecution = False</text><text fill="#000000" font-family="Monospace" font-size="10" lengthAdjust="spacingAndGlyphs" textLength="118" x="12" y="289.4219">AllowUserMount = False</text><text fill="#000000" font-family="Monospace" font-size="10" lengthAdjust="spacingAndGlyphs" textLength="108" x="12" y="301.0625">SynchronouIO = False</text><text fill="#000000" font-family="Monospace" font-size="10" lengthAdjust="spacingAndGlyphs" textLength="65" x="12" y="312.7031">Dump = True</text><text fill="#000000" font-family="Monospace" font-size="10" lengthAdjust="spacingAndGlyphs" textLength="132" x="12" y="324.3438">FileSystemCheckOrder = 1</text><rect fill="#FEFECE" filter="url(#f1)" height="81.8438" style="stroke: #A80036; stroke-width: 1.5;" width="294" x="210.25" y="242"/><text fill="#000000" font-family="Monospace" font-size="10" lengthAdjust="spacingAndGlyphs" textLength="102" x="306.25" y="254">LMI_LocalFileSystem</text><line style="stroke: #A80036; stroke-width: 1.5;" x1="211.25" x2="503.25" y1="257.6406" y2="257.6406"/><text fill="#000000" font-family="Monospace" font-size="10" lengthAdjust="spacingAndGlyphs" textLength="113" x="216.25" y="271.6406">AvailableSpace = None</text><text fill="#000000" font-family="Monospace" font-size="10" lengthAdjust="spacingAndGlyphs" textLength="85" x="216.25" y="283.2813">BlockSize = None</text><text fill="#000000" font-family="Monospace" font-size="10" lengthAdjust="spacingAndGlyphs" textLength="114" x="216.25" y="294.9219">FileSystemSize = None</text><text fill="#000000" font-family="Monospace" font-size="10" lengthAdjust="spacingAndGlyphs" textLength="113" x="216.25" y="306.5625">FileSystemType = ext4</text><text fill="#000000" font-family="Monospace" font-size="10" lengthAdjust="spacingAndGlyphs" textLength="282" x="216.25" y="318.2031">Name = UUID=65e43ee2-f428-472c-9ad5-48549a7dfa35</text><rect fill="#FEFECE" filter="url(#f1)" height="31.6406" style="stroke: #A80036; stroke-width: 1.5;" width="135" x="402" y="136"/><text fill="#000000" font-family="Monospace" font-size="10" lengthAdjust="spacingAndGlyphs" textLength="121" x="409" y="148">LMI_AttachedFileSystem</text><line style="stroke: #A80036; stroke-width: 1.5;" x1="403" x2="536" y1="151.6406" y2="151.6406"/><rect fill="#FEFECE" filter="url(#f1)" height="35.2813" style="stroke: #A80036; stroke-width: 1.5;" width="104" x="539.25" y="265.5"/><text fill="#000000" font-family="Monospace" font-size="10" lengthAdjust="spacingAndGlyphs" textLength="90" x="546.25" y="277.5">LMI_UnixDirectory</text><line style="stroke: #A80036; stroke-width: 1.5;" x1="540.25" x2="642.25" y1="281.1406" y2="281.1406"/><text fill="#000000" font-family="Monospace" font-size="10" lengthAdjust="spacingAndGlyphs" textLength="80" x="545.25" y="295.1406">Name = /var/log</text><rect fill="#FEFECE" filter="url(#f1)" height="31.6406" style="stroke: #A80036; stroke-width: 1.5;" width="93" x="623" y="136"/><text fill="#000000" font-family="Monospace" font-size="10" lengthAdjust="spacingAndGlyphs" textLength="79" x="630" y="148">LMI_MountPoint</text><line style="stroke: #A80036; stroke-width: 1.5;" x1="624" x2="715" y1="151.6406" y2="151.6406"/><ellipse cx="90.25" cy="152" fill="#000000" rx="2" ry="2" style="stroke: none; stroke-width: 1.0;"/><ellipse cx="358.25" cy="152" fill="#000000" rx="2" ry="2" style="stroke: none; stroke-width: 1.0;"/><ellipse cx="585.25" cy="152" fill="#000000" rx="2" ry="2" style="stroke: none; stroke-width: 1.0;"/><path d="M282.805,55.36 C231.092,69.037 162.641,92.172 110.25,128 C103.3214,132.738 97.3003,140.435 93.7223,145.605 " fill="none" style="stroke: #A80036; stroke-width: 1.0;"/><path d="M90.25,154.449 C90.25,162.147 90.25,199.119 90.25,231.2893 " fill="none" style="stroke: #A80036; stroke-width: 1.0;"/><path d="M92.3438,152 C102.4356,152 112.527,152 122.619,152 " fill="none" style="stroke: #A80036; stroke-width: 1.0; stroke-dasharray: 7.0,7.0;"/><path d="M358.25,67.552 C358.25,93.395 358.25,129.599 358.25,144.351 " fill="none" style="stroke: #A80036; stroke-width: 1.0;"/><path d="M358.239,154.449 C358.176,162.568 357.861,203.244 357.603,236.511 " fill="none" style="stroke: #A80036; stroke-width: 1.0;"/><path d="M360.418,152 C372.445,152 384.473,152 396.5,152 " fill="none" style="stroke: #A80036; stroke-width: 1.0; stroke-dasharray: 7.0,7.0;"/><path d="M429.4,67.507 C467.095,83.588 513.658,105.031 553.25,128 C563.236,133.794 573.962,141.943 580.113,146.825 " fill="none" style="stroke: #A80036; stroke-width: 1.0;"/><path d="M585.317,154.449 C585.792,164.643 588.653,226.171 590.222,259.9057 " fill="none" style="stroke: #A80036; stroke-width: 1.0;"/><path d="M587.547,152 C597.603,152 607.658,152 617.714,152 " fill="none" style="stroke: #A80036; stroke-width: 1.0; stroke-dasharray: 7.0,7.0;"/></g></svg>