<?xml version="1.0" encoding="UTF-8" standalone="yes"?><svg xmlns="http://www.w3.org/2000/svg" xmlns:xlink="http://www.w3.org/1999/xlink" height="384pt" style="width:607px;height:384px;" version="1.1" viewBox="0 0 607 384" width="607pt"><defs><filter height="300%" id="f1" width="300%" x="-1" y="-1"><feGaussianBlur result="blurOut" stdDeviation="2.0"/><feColorMatrix in="blurOut" result="blurOut2" type="matrix" values="0 0 0 0 0 0 0 0 0 0 0 0 0 0 0 0 0 0 .4 0"/><feOffset dx="4.0" dy="4.0" in="blurOut2" result="blurOut3"/><feBlend in="SourceGraphic" in2="blurOut3" mode="normal"/></filter></defs><g><rect fill="#FEFECE" filter="url(#f1)" height="61.625" style="stroke: #A80036; stroke-width: 1.5;" width="118" x="240" y="8"/><text fill="#000000" font-family="Monospace" font-size="10" lengthAdjust="spacingAndGlyphs" textLength="94" x="252" y="20">LMI_MountedFileSystem</text><line style="stroke: #A80036; stroke-width: 1.5;" x1="241" x2="357" y1="24.4063" y2="24.4063"/><text fill="#000000" font-family="Monospace" font-size="10" lengthAdjust="spacingAndGlyphs" textLength="85" x="246" y="38.4063">FileSystemType = ext4</text><text fill="#000000" font-family="Monospace" font-size="10" lengthAdjust="spacingAndGlyphs" textLength="106" x="246" y="50.8125">FileSystemSpec = /dev/sda2</text><text fill="#000000" font-family="Monospace" font-size="10" lengthAdjust="spacingAndGlyphs" textLength="88" x="246" y="63.2188">MountPointPath = /boot</text><rect fill="#FEFECE" filter="url(#f1)" height="49.2188" style="stroke: #A80036; stroke-width: 1.5;" width="152" x="110" y="130"/><text fill="#000000" font-family="Monospace" font-size="10" lengthAdjust="spacingAndGlyphs" textLength="138" x="117" y="142">LMI_MountedFileSystemSettingData</text><line style="stroke: #A80036; stroke-width: 1.5;" x1="111" x2="261" y1="146.4063" y2="146.4063"/><text fill="#000000" font-family="Monospace" font-size="10" lengthAdjust="spacingAndGlyphs" textLength="84" x="116" y="160.4063">IsCurrent = 1 (current)</text><text fill="#000000" font-family="Monospace" font-size="10" lengthAdjust="spacingAndGlyphs" textLength="75" x="116" y="172.8125">IsNext = 2 (not next)</text><rect fill="#FEFECE" filter="url(#f1)" height="136.0625" style="stroke: #A80036; stroke-width: 1.5;" width="134" x="6" y="239"/><text fill="#000000" font-family="Monospace" font-size="10" lengthAdjust="spacingAndGlyphs" textLength="120" x="13" y="251">LMI_MountedFileSystemSetting</text><line style="stroke: #A80036; stroke-width: 1.5;" x1="7" x2="139" y1="255.4063" y2="255.4063"/><text fill="#000000" font-family="Monospace" font-size="10" lengthAdjust="spacingAndGlyphs" textLength="67" x="12" y="269.4063">AllowWrite = True</text><text fill="#000000" font-family="Monospace" font-size="10" lengthAdjust="spacingAndGlyphs" textLength="66" x="12" y="281.8125">AllowSUID = True</text><text fill="#000000" font-family="Monospace" font-size="10" lengthAdjust="spacingAndGlyphs" textLength="89" x="12" y="294.2188">InterpretDevices = True</text><text fill="#000000" font-family="Monospace" font-size="10" lengthAdjust="spacingAndGlyphs" textLength="84" x="12" y="306.625">AllowExecution = True</text><text fill="#000000" font-family="Monospace" font-size="10" lengthAdjust="spacingAndGlyphs" textLength="44" x="12" y="319.0313">Auto = True</text><text fill="#000000" font-family="Monospace" font-size="10" lengthAdjust="spacingAndGlyphs" textLength="92" x="12" y="331.4375">AllowUserMount = False</text><text fill="#000000" font-family="Monospace" font-size="10" lengthAdjust="spacingAndGlyphs" textLength="84" x="12" y="343.8438">SynchronouIO = False</text><text fill="#000000" font-family="Monospace" font-size="10" lengthAdjust="spacingAndGlyphs" textLength="53" x="12" y="356.25">Dump = False</text><text fill="#000000" font-family="Monospace" font-size="10" lengthAdjust="spacingAndGlyphs" textLength="101" x="12" y="368.6563">FileSystemCheckOrder = 0</text><rect fill="#FEFECE" filter="url(#f1)" height="86.4375" style="stroke: #A80036; stroke-width: 1.5;" width="237" x="177.5" y="264"/><text fill="#000000" font-family="Monospace" font-size="10" lengthAdjust="spacingAndGlyphs" textLength="81" x="255.5" y="276">LMI_LocalFileSystem</text><line style="stroke: #A80036; stroke-width: 1.5;" x1="178.5" x2="413.5" y1="280.4063" y2="280.4063"/><text fill="#000000" font-family="Monospace" font-size="10" lengthAdjust="spacingAndGlyphs" textLength="89" x="183.5" y="294.4063">AvailableSpace = None</text><text fill="#000000" font-family="Monospace" font-size="10" lengthAdjust="spacingAndGlyphs" textLength="66" x="183.5" y="306.8125">BlockSize = None</text><text fill="#000000" font-family="Monospace" font-size="10" lengthAdjust="spacingAndGlyphs" textLength="87" x="183.5" y="319.2188">FileSystemSize = None</text><text fill="#000000" font-family="Monospace" font-size="10" lengthAdjust="spacingAndGlyphs" textLength="85" x="183.5" y="331.625">FileSystemType = ext4</text><text fill="#000000" font-family="Monospace" font-size="10" lengthAdjust="spacingAndGlyphs" textLength="225" x="183.5" y="344.0313">Name = UUID=17b6df80-9292-4deb-ac28-dd6b73d1b930</text><rect fill="#FEFECE" filter="url(#f1)" height="32.4063" style="stroke: #A80036; stroke-width: 1.5;" width="107" x="336.5" y="138.5"/><text fill="#000000" font-family="Monospace" font-size="10" lengthAdjust="spacingAndGlyphs" textLength="93" x="343.5" y="150.5">LMI_AttachedFileSystem</text><line style="stroke: #A80036; stroke-width: 1.5;" x1="337.5" x2="442.5" y1="154.9063" y2="154.9063"/><rect fill="#FEFECE" filter="url(#f1)" height="36.8125" style="stroke: #A80036; stroke-width: 1.5;" width="84" x="450" y="288.5"/><text fill="#000000" font-family="Monospace" font-size="10" lengthAdjust="spacingAndGlyphs" textLength="70" x="457" y="300.5">LMI_UnixDirectory</text><line style="stroke: #A80036; stroke-width: 1.5;" x1="451" x2="533" y1="304.9063" y2="304.9063"/><text fill="#000000" font-family="Monospace" font-size="10" lengthAdjust="spacingAndGlyphs" textLength="51" x="456" y="318.9063">Name = /boot</text><rect fill="#FEFECE" filter="url(#f1)" height="32.4063" style="stroke: #A80036; stroke-width: 1.5;" width="76" x="522" y="138.5"/><text fill="#000000" font-family="Monospace" font-size="10" lengthAdjust="spacingAndGlyphs" textLength="62" x="529" y="150.5">LMI_MountPoint</text><line style="stroke: #A80036; stroke-width: 1.5;" x1="523" x2="597" y1="154.9063" y2="154.9063"/><ellipse cx="73" cy="154.5" fill="#000000" rx="2" ry="2" style="stroke: none; stroke-width: 1.0;"/><ellipse cx="299" cy="154.5" fill="#000000" rx="2" ry="2" style="stroke: none; stroke-width: 1.0;"/><ellipse cx="485" cy="154.5" fill="#000000" rx="2" ry="2" style="stroke: none; stroke-width: 1.0;"/><path d="M239.676,57.29 C195.957,71.958 136.594,96.064 92,130 C82.9819,136.863 75.6555,148.875 73.5861,152.461 " fill="none" style="stroke: #A80036; stroke-width: 1.0;"/><path d="M73,156.801 C73,164.3 73,202.924 73,238.992 " fill="none" style="stroke: #A80036; stroke-width: 1.0;"/><path d="M75.207,154.5 C86.748,154.5 98.2889,154.5 109.83,154.5 " fill="none" style="stroke: #A80036; stroke-width: 1.0; stroke-dasharray: 7.0,7.0;"/><path d="M299,70.118 C299,100.591 299,144.312 299,152.242 " fill="none" style="stroke: #A80036; stroke-width: 1.0;"/><path d="M298.974,156.801 C298.789,166.081 297.654,223.031 296.841,263.812 " fill="none" style="stroke: #A80036; stroke-width: 1.0;"/><path d="M301.133,154.5 C312.82,154.5 324.507,154.5 336.194,154.5 " fill="none" style="stroke: #A80036; stroke-width: 1.0; stroke-dasharray: 7.0,7.0;"/><path d="M358.291,68.08 C390.016,84.282 429.023,106.143 461,130 C471.096,137.532 481.241,149.084 484.165,152.51 " fill="none" style="stroke: #A80036; stroke-width: 1.0;"/><path d="M485.061,156.801 C485.59,168.178 489.452,251.208 491.174,288.2468 " fill="none" style="stroke: #A80036; stroke-width: 1.0;"/><path d="M487.051,154.5 C498.639,154.5 510.227,154.5 521.816,154.5 " fill="none" style="stroke: #A80036; stroke-width: 1.0; stroke-dasharray: 7.0,7.0;"/></g></svg>