<?xml version="1.0" encoding="UTF-8" standalone="yes"?><svg xmlns="http://www.w3.org/2000/svg" xmlns:xlink="http://www.w3.org/1999/xlink" height="346pt" style="width:605px;height:346px;" version="1.1" viewBox="0 0 605 346" width="605pt"><defs><filter height="300%" id="f1" width="300%" x="-1" y="-1"><feGaussianBlur result="blurOut" stdDeviation="2.0"/><feColorMatrix in="blurOut" result="blurOut2" type="matrix" values="0 0 0 0 0 0 0 0 0 0 0 0 0 0 0 0 0 0 .4 0"/><feOffset dx="4.0" dy="4.0" in="blurOut2" result="blurOut3"/><feBlend in="SourceGraphic" in2="blurOut3" mode="normal"/></filter></defs><g><rect fill="#FEFECE" filter="url(#f1)" height="61.625" style="stroke: #A80036; stroke-width: 1.5;" width="118" x="240" y="8"/><text fill="#000000" font-family="Monospace" font-size="10" lengthAdjust="spacingAndGlyphs" textLength="94" x="252" y="20">LMI_MountedFileSystem</text><line style="stroke: #A80036; stroke-width: 1.5;" x1="241" x2="357" y1="24.4063" y2="24.4063"/><text fill="#000000" font-family="Monospace" font-size="10" lengthAdjust="spacingAndGlyphs" textLength="85" x="246" y="38.4063">FileSystemType = ext4</text><text fill="#000000" font-family="Monospace" font-size="10" lengthAdjust="spacingAndGlyphs" textLength="106" x="246" y="50.8125">FileSystemSpec = /dev/sda4</text><text fill="#000000" font-family="Monospace" font-size="10" lengthAdjust="spacingAndGlyphs" textLength="97" x="246" y="63.2188">MountPointPath = /var/log</text><rect fill="#FEFECE" filter="url(#f1)" height="49.2188" style="stroke: #A80036; stroke-width: 1.5;" width="152" x="110" y="130"/><text fill="#000000" font-family="Monospace" font-size="10" lengthAdjust="spacingAndGlyphs" textLength="138" x="117" y="142">LMI_MountedFileSystemSettingData</text><line style="stroke: #A80036; stroke-width: 1.5;" x1="111" x2="261" y1="146.4063" y2="146.4063"/><text fill="#000000" font-family="Monospace" font-size="10" lengthAdjust="spacingAndGlyphs" textLength="84" x="116" y="160.4063">IsCurrent = 1 (current)</text><text fill="#000000" font-family="Monospace" font-size="10" lengthAdjust="spacingAndGlyphs" textLength="61" x="116" y="172.8125">IsNext = 1 (next)</text><rect fill="#FEFECE" filter="url(#f1)" height="98.8438" style="stroke: #A80036; stroke-width: 1.5;" width="134" x="6" y="239"/><text fill="#000000" font-family="Monospace" font-size="10" lengthAdjust="spacingAndGlyphs" textLength="120" x="13" y="251">LMI_MountedFileSystemSetting</text><line style="stroke: #A80036; stroke-width: 1.5;" x1="7" x2="139" y1="255.4063" y2="255.4063"/><text fill="#000000" font-family="Monospace" font-size="10" lengthAdjust="spacingAndGlyphs" textLength="70" x="12" y="269.4063">AllowWrite = False</text><text fill="#000000" font-family="Monospace" font-size="10" lengthAdjust="spacingAndGlyphs" textLength="87" x="12" y="281.8125">AllowExecution = False</text><text fill="#000000" font-family="Monospace" font-size="10" lengthAdjust="spacingAndGlyphs" textLength="92" x="12" y="294.2188">AllowUserMount = False</text><text fill="#000000" font-family="Monospace" font-size="10" lengthAdjust="spacingAndGlyphs" textLength="84" x="12" y="306.625">SynchronouIO = False</text><text fill="#000000" font-family="Monospace" font-size="10" lengthAdjust="spacingAndGlyphs" textLength="50" x="12" y="319.0313">Dump = True</text><text fill="#000000" font-family="Monospace" font-size="10" lengthAdjust="spacingAndGlyphs" textLength="101" x="12" y="331.4375">FileSystemCheckOrder = 1</text><rect fill="#FEFECE" filter="url(#f1)" height="86.4375" style="stroke: #A80036; stroke-width: 1.5;" width="234" x="178" y="245.5"/><text fill="#000000" font-family="Monospace" font-size="10" lengthAdjust="spacingAndGlyphs" textLength="81" x="254.5" y="257.5">LMI_LocalFileSystem</text><line style="stroke: #A80036; stroke-width: 1.5;" x1="179" x2="411" y1="261.9063" y2="261.9063"/><text fill="#000000" font-family="Monospace" font-size="10" lengthAdjust="spacingAndGlyphs" textLength="89" x="184" y="275.9063">AvailableSpace = None</text><text fill="#000000" font-family="Monospace" font-size="10" lengthAdjust="spacingAndGlyphs" textLength="66" x="184" y="288.3125">BlockSize = None</text><text fill="#000000" font-family="Monospace" font-size="10" lengthAdjust="spacingAndGlyphs" textLength="87" x="184" y="300.7188">FileSystemSize = None</text><text fill="#000000" font-family="Monospace" font-size="10" lengthAdjust="spacingAndGlyphs" textLength="85" x="184" y="313.125">FileSystemType = ext4</text><text fill="#000000" font-family="Monospace" font-size="10" lengthAdjust="spacingAndGlyphs" textLength="222" x="184" y="325.5313">Name = UUID=65e43ee2-f428-472c-9ad5-48549a7dfa35</text><rect fill="#FEFECE" filter="url(#f1)" height="32.4063" style="stroke: #A80036; stroke-width: 1.5;" width="107" x="336.5" y="138.5"/><text fill="#000000" font-family="Monospace" font-size="10" lengthAdjust="spacingAndGlyphs" textLength="93" x="343.5" y="150.5">LMI_AttachedFileSystem</text><line style="stroke: #A80036; stroke-width: 1.5;" x1="337.5" x2="442.5" y1="154.9063" y2="154.9063"/><rect fill="#FEFECE" filter="url(#f1)" height="36.8125" style="stroke: #A80036; stroke-width: 1.5;" width="84" x="447" y="270"/><text fill="#000000" font-family="Monospace" font-size="10" lengthAdjust="spacingAndGlyphs" textLength="70" x="454" y="282">LMI_UnixDirectory</text><line style="stroke: #A80036; stroke-width: 1.5;" x1="448" x2="530" y1="286.4063" y2="286.4063"/><text fill="#000000" font-family="Monospace" font-size="10" lengthAdjust="spacingAndGlyphs" textLength="60" x="453" y="300.4063">Name = /var/log</text><rect fill="#FEFECE" filter="url(#f1)" height="32.4063" style="stroke: #A80036; stroke-width: 1.5;" width="76" x="520" y="138.5"/><text fill="#000000" font-family="Monospace" font-size="10" lengthAdjust="spacingAndGlyphs" textLength="62" x="527" y="150.5">LMI_MountPoint</text><line style="stroke: #A80036; stroke-width: 1.5;" x1="521" x2="595" y1="154.9063" y2="154.9063"/><ellipse cx="73" cy="154.5" fill="#000000" rx="2" ry="2" style="stroke: none; stroke-width: 1.0;"/><ellipse cx="299" cy="154.5" fill="#000000" rx="2" ry="2" style="stroke: none; stroke-width: 1.0;"/><ellipse cx="483" cy="154.5" fill="#000000" rx="2" ry="2" style="stroke: none; stroke-width: 1.0;"/><path d="M239.676,57.29 C195.957,71.958 136.594,96.064 92,130 C82.9819,136.863 75.6555,148.875 73.5861,152.461 " fill="none" style="stroke: #A80036; stroke-width: 1.0;"/><path d="M73,156.982 C73,165.111 73,205.137 73,238.7465 " fill="none" style="stroke: #A80036; stroke-width: 1.0;"/><path d="M75.207,154.5 C86.748,154.5 98.2889,154.5 109.83,154.5 " fill="none" style="stroke: #A80036; stroke-width: 1.0; stroke-dasharray: 7.0,7.0;"/><path d="M299,70.118 C299,100.591 299,144.312 299,152.242 " fill="none" style="stroke: #A80036; stroke-width: 1.0;"/><path d="M298.955,156.982 C298.692,165.65 297.331,210.577 296.278,245.326 " fill="none" style="stroke: #A80036; stroke-width: 1.0;"/><path d="M301.133,154.5 C312.82,154.5 324.507,154.5 336.194,154.5 " fill="none" style="stroke: #A80036; stroke-width: 1.0; stroke-dasharray: 7.0,7.0;"/><path d="M358.326,67.336 C390.244,83.394 429.423,105.355 461,130 C470.516,137.427 479.636,149.051 482.254,152.502 " fill="none" style="stroke: #A80036; stroke-width: 1.0;"/><path d="M483.067,156.982 C483.566,167.944 486.7,236.902 488.201,269.9203 " fill="none" style="stroke: #A80036; stroke-width: 1.0;"/><path d="M485.051,154.5 C496.639,154.5 508.227,154.5 519.816,154.5 " fill="none" style="stroke: #A80036; stroke-width: 1.0; stroke-dasharray: 7.0,7.0;"/></g></svg>