<?xml version="1.0" encoding="UTF-8" standalone="yes"?><svg xmlns="http://www.w3.org/2000/svg" xmlns:xlink="http://www.w3.org/1999/xlink" height="269pt" style="width:479px;height:269px;" version="1.1" viewBox="0 0 479 269" width="479pt"><defs><filter height="300%" id="f1" width="300%" x="-1" y="-1"><feGaussianBlur result="blurOut" stdDeviation="2.0"/><feColorMatrix in="blurOut" result="blurOut2" type="matrix" values="0 0 0 0 0 0 0 0 0 0 0 0 0 0 0 0 0 0 .4 0"/><feOffset dx="4.0" dy="4.0" in="blurOut2" result="blurOut3"/><feBlend in="SourceGraphic" in2="blurOut3" mode="normal"/></filter></defs><g><rect fill="#FEFECE" filter="url(#f1)" height="32" style="stroke: #A80036; stroke-width: 1.5;" width="122" x="131" y="8"/><text fill="#000000" font-family="Courier" font-size="10" lengthAdjust="spacingAndGlyphs" textLength="108" x="138" y="20">CIM_ComputerSystem</text><line style="stroke: #A80036; stroke-width: 1.5;" x1="132" x2="252" y1="24" y2="24"/><rect fill="#FEFECE" filter="url(#f1)" height="36" style="stroke: #A80036; stroke-width: 1.5;" width="170" x="107" y="114"/><text fill="#000000" font-family="Courier" font-size="10" lengthAdjust="spacingAndGlyphs" textLength="156" x="114" y="126">LMI_PowerManagementService</text><line style="stroke: #A80036; stroke-width: 1.5;" x1="108" x2="276" y1="130" y2="130"/><text fill="#000000" font-family="Courier" font-size="10" lengthAdjust="spacingAndGlyphs" textLength="150" x="113" y="144">RequestPowerStateChange()</text><rect fill="#FEFECE" filter="url(#f1)" height="36" style="stroke: #A80036; stroke-width: 1.5;" width="372" x="6" y="224"/><text fill="#000000" font-family="Courier" font-size="10" lengthAdjust="spacingAndGlyphs" textLength="186" x="99" y="236">LMI_PowerManagementCapabilities</text><line style="stroke: #A80036; stroke-width: 1.5;" x1="7" x2="377" y1="240" y2="240"/><text fill="#000000" font-family="Courier" font-size="10" lengthAdjust="spacingAndGlyphs" textLength="360" x="12" y="254">PowerStatesSupportedValues = [OffSoftGraceful, OffSoft, ...]</text><path d="M130.726,30.309 C104.4864,35.976 76.2035,47.357 60,70 C42.0764,95.047 71.215,110.075 106.63,118.945 " fill="none" style="stroke: #A80036; stroke-width: 1.0;"/><text fill="#000000" font-family="Courier" font-size="10" lengthAdjust="spacingAndGlyphs" textLength="216" x="61" y="81">LMI_AssociatedPowerManagementService</text><path d="M251.296,113.958 C274.877,103.876 293.908,89.268 282,70 C273.642,56.477 259.854,46.882 245.553,40.131 " fill="none" style="stroke: #A80036; stroke-width: 1.0;"/><text fill="#000000" font-family="Courier" font-size="10" lengthAdjust="spacingAndGlyphs" textLength="192" x="286" y="81">LMI_HostedPowerManagementService</text><path d="M192,150.352 C192,170.506 192,203.5554 192,223.691 " fill="none" style="stroke: #A80036; stroke-width: 1.0;"/><text fill="#000000" font-family="Courier" font-size="10" lengthAdjust="spacingAndGlyphs" textLength="138" x="193" y="191">LMI_ElementCapabilities</text></g></svg>